<?xml version="1.0" encoding="utf-8"?>
<!-- Generator: Adobe Illustrator 25.0.0, SVG Export Plug-In . SVG Version: 6.00 Build 0)  -->
<svg version="1.1" id="Layer_1" xmlns="http://www.w3.org/2000/svg" xmlns:xlink="http://www.w3.org/1999/xlink" x="0px" y="0px"
	 viewBox="0 0 250 250" style="enable-background:new 0 0 250 250;" xml:space="preserve">
<style type="text/css">
	.st0{clip-path:url(#SVGID_2_);fill:#FFFCF9;}
	.st1{clip-path:url(#SVGID_2_);}
	.st2{fill:#1A2E35;}
	.st3{fill:#FFC19D;}
	.st4{fill:#FF9C6A;}
	.st5{fill:#00537E;}
	.st6{fill:#ECECEC;}
	.st7{opacity:0.3;}
	.st8{fill:#CC6760;}
	.st9{fill:#9D4941;}
	.st10{fill:#FF4571;}
	.st11{fill:#E1E1E1;}
</style>
<g>
	<defs>
		<circle id="SVGID_1_" cx="125" cy="125" r="125"/>
	</defs>
	<clipPath id="SVGID_2_">
		<use xlink:href="#SVGID_1_"  style="overflow:visible;"/>
	</clipPath>
	<circle class="st0" cx="125" cy="125" r="125"/>
	<g class="st1">
		<g>
			<g>
				<g>
					<g>
						<g>
							<g>
								<g>
									<g>
										<g>
											<path class="st2" d="M141.3,35.3c0.3-5.2,3.5-8.5,8-11.2c4.5-2.7,10.4-2.9,15.1-0.7c3.2,1.5,6,4.1,9.4,4.5
												c5.7,0.7,11.2-4.6,16.8-3.3c3.3,0.8,5.9,4.1,5.7,7.5c-0.1,3.4-2.9,6.6-6.3,7.1c3.8,0.5,5.9,5.3,4.5,8.8
												c-1.4,3.5-5.3,5.6-9.1,5.7c-3.8,0.1-7.4-1.5-10.7-3.4c-3.3-1.9-6.4-4.2-9.8-5.8c-3.4-1.6-7.4-2.6-11-1.6
												c-5,1.3-8.5,6-9.8,11c-1.3,5-0.7,10.2,0,15.3c0.8,5.1,1.8,10.2,1.3,15.3c-0.1,0.6-0.2,1.3-0.7,1.6
												c-0.8,0.4-1.6-0.3-2.2-1c-6.4-7.5-11.2-16.3-14.2-25.7c-1.7-5.5-2.7-10.8-0.6-16.1C129.9,38.2,136.9,33.2,141.3,35.3"/>
										</g>
									</g>
								</g>
							</g>
						</g>
					</g>
					<g>
						<g>
							<g>
								<g>
									<g>
										<g>
											<g>
												<g>
													<g>
														<g>
															<g>
																<g>
																	<g>
																		<g>
																			<g>
																				<g>
																					<g>
																						<g>
																							<g>
																								<path class="st3" d="M136.5,60.7l8.4,51.8c1.6,9.7,7.9,19,23.1,15.9l0,0c13-3.8,12-13.1,10.3-24.6
																									c0,0,0,0.4,0,0c0,0,14.3-3.7,13-18.2c-0.6-7-3.1-21.4-5.4-34.3c-2.5-13.9-15.4-23.5-29.4-22.1l-1.4,0.1
																									C140,31.7,133.7,45.8,136.5,60.7z"/>
																							</g>
																						</g>
																					</g>
																				</g>
																			</g>
																		</g>
																	</g>
																</g>
															</g>
														</g>
													</g>
												</g>
											</g>
											<g>
												<g>
													<g>
														<g>
															<g>
																<g>
																	<g>
																		<g>
																			<g>
																				<g>
																					<g>
																						<g>
																							<g>
																								<path class="st4" d="M178.3,103.8c0,0-9.1,1.5-19.4-3.7c0,0,5.7,10.8,20,8L178.3,103.8z"/>
																							</g>
																						</g>
																					</g>
																				</g>
																			</g>
																		</g>
																	</g>
																</g>
															</g>
														</g>
													</g>
												</g>
											</g>
										</g>
									</g>
								</g>
								<g>
									<g>
										<g>
											<g>
												<g>
													<g>
														<g>
															<g>
																<g>
																	<g>
																		<g>
																			<g>
																				<g>
																					<g>
																						<g>
																							<g>
																								<g>
																									<g>
																										<g>
																											<path class="st2" d="M180.9,65.8c0.1,1.1-0.7,2.1-1.8,2.3c-1.1,0.2-2.2-0.6-2.3-1.7
																												c-0.1-1.1,0.7-2.1,1.8-2.3C179.7,63.9,180.8,64.7,180.9,65.8z"/>
																										</g>
																									</g>
																								</g>
																							</g>
																						</g>
																					</g>
																				</g>
																			</g>
																		</g>
																	</g>
																</g>
															</g>
														</g>
														<g>
															<g>
																<g>
																	<g>
																		<g>
																			<g>
																				<g>
																					<g>
																						<g>
																							<g>
																								<g>
																									<g>
																										<g>
																											<g>
																												<path class="st2" d="M183.4,58.7c-0.2,0.3-1.9-0.7-4.1-0.5c-2.2,0.2-3.7,1.5-4,1.3
																													c-0.1-0.1,0.1-0.6,0.7-1.2c0.6-0.6,1.8-1.2,3.2-1.3c1.4-0.1,2.6,0.3,3.3,0.7
																													C183.3,58.1,183.5,58.6,183.4,58.7z"/>
																											</g>
																										</g>
																									</g>
																								</g>
																							</g>
																						</g>
																					</g>
																				</g>
																			</g>
																		</g>
																	</g>
																</g>
															</g>
														</g>
													</g>
													<g>
														<g>
															<g>
																<g>
																	<g>
																		<g>
																			<g>
																				<g>
																					<g>
																						<g>
																							<g>
																								<g>
																									<g>
																										<g>
																											<path class="st2" d="M160,67.1c0.1,1.1-0.7,2.1-1.8,2.3c-1.1,0.2-2.2-0.6-2.3-1.7
																												c-0.1-1.1,0.7-2.1,1.8-2.3C158.8,65.3,159.9,66,160,67.1z"/>
																										</g>
																									</g>
																								</g>
																							</g>
																						</g>
																					</g>
																				</g>
																			</g>
																		</g>
																	</g>
																</g>
															</g>
														</g>
														<g>
															<g>
																<g>
																	<g>
																		<g>
																			<g>
																				<g>
																					<g>
																						<g>
																							<g>
																								<g>
																									<g>
																										<g>
																											<g>
																												<path class="st2" d="M161.6,61.3c-0.2,0.3-1.9-0.7-4.1-0.5c-2.2,0.2-3.7,1.5-4,1.3
																													c-0.1-0.1,0.1-0.6,0.7-1.2c0.6-0.6,1.8-1.2,3.2-1.3c1.4-0.1,2.6,0.3,3.3,0.7
																													C161.4,60.7,161.7,61.2,161.6,61.3z"/>
																											</g>
																										</g>
																									</g>
																								</g>
																							</g>
																						</g>
																					</g>
																				</g>
																			</g>
																		</g>
																	</g>
																</g>
															</g>
														</g>
													</g>
													<g>
														<g>
															<g>
																<g>
																	<g>
																		<g>
																			<g>
																				<g>
																					<g>
																						<g>
																							<g>
																								<g>
																									<g>
																										<g>
																											<path class="st2" d="M171.3,77c0-0.1,1.3-0.5,3.6-1c0.6-0.1,1.1-0.3,1.1-0.7c0.1-0.4-0.2-1-0.5-1.6
																												c-0.7-1.3-1.4-2.7-2.1-4.2c-3-5.9-5.2-10.8-4.9-10.9c0.2-0.1,2.8,4.6,5.8,10.5c0.7,1.5,1.4,2.9,2,4.2
																												c0.3,0.6,0.7,1.3,0.5,2.2c-0.1,0.4-0.5,0.8-0.9,0.9c-0.4,0.1-0.7,0.2-1,0.2
																												C172.7,77,171.3,77.1,171.3,77z"/>
																										</g>
																									</g>
																								</g>
																							</g>
																						</g>
																					</g>
																				</g>
																			</g>
																		</g>
																	</g>
																</g>
															</g>
														</g>
													</g>
												</g>
											</g>
										</g>
										<g>
											<g>
												<g>
													<g>
														<g>
															<g>
																<g>
																	<g>
																		<g>
																			<g>
																				<g>
																					<g>
																						<g>
																							<path class="st2" d="M161.3,52.5c-0.2,0.6-2.4,0.6-5,1.1c-2.6,0.5-4.6,1.5-5,1c-0.2-0.2,0.1-0.9,0.9-1.5
																								c0.8-0.7,2.1-1.4,3.6-1.7c1.6-0.3,3-0.2,4,0.1C160.8,51.8,161.3,52.2,161.3,52.5z"/>
																						</g>
																					</g>
																				</g>
																			</g>
																		</g>
																	</g>
																</g>
															</g>
														</g>
													</g>
												</g>
											</g>
										</g>
										<g>
											<g>
												<g>
													<g>
														<g>
															<g>
																<g>
																	<g>
																		<g>
																			<g>
																				<g>
																					<g>
																						<g>
																							<path class="st2" d="M182,52.3c-0.3,0.5-1.9,0.2-3.8,0.3c-1.9,0.1-3.4,0.7-3.8,0.2c-0.2-0.2,0-0.8,0.6-1.3
																								c0.6-0.5,1.7-1,3-1.1c1.3-0.1,2.4,0.3,3.1,0.7C181.8,51.6,182.1,52.1,182,52.3z"/>
																						</g>
																					</g>
																				</g>
																			</g>
																		</g>
																	</g>
																</g>
															</g>
														</g>
													</g>
												</g>
											</g>
										</g>
									</g>
								</g>
							</g>
						</g>
					</g>
					<g>
						<g>
							<g>
								<g>
									<g>
										<g>
											<g>
												<g>
													<g>
														<g>
															<g>
																<g>
																	<g>
																		<g>
																			<path class="st3" d="M138.7,71.3c-0.3-0.1-10.3-1.9-8.9,7.9c1.3,9.9,11,6.5,10.9,6.2
																				C140.7,85.2,138.7,71.3,138.7,71.3z"/>
																		</g>
																	</g>
																</g>
															</g>
														</g>
													</g>
												</g>
											</g>
										</g>
									</g>
								</g>
							</g>
						</g>
						<g>
							<g>
								<g>
									<g>
										<g>
											<g>
												<g>
													<g>
														<g>
															<g>
																<g>
																	<g>
																		<g>
																			<g>
																				<path class="st4" d="M137.2,82.1c0,0-0.2,0.1-0.4,0.3c-0.3,0.2-0.7,0.3-1.3,0.2c-1.1-0.2-2.2-1.8-2.5-3.6
																					c-0.1-0.9-0.1-1.8,0.2-2.5c0.2-0.8,0.6-1.3,1.1-1.5c0.5-0.2,0.9,0.1,1.1,0.3c0.2,0.3,0.1,0.5,0.2,0.5
																					c0,0,0.2-0.2,0.1-0.6c-0.1-0.2-0.2-0.4-0.5-0.6c-0.3-0.2-0.6-0.2-1-0.1c-0.8,0.2-1.3,0.9-1.6,1.8
																					c-0.3,0.8-0.4,1.8-0.2,2.8c0.3,2,1.6,3.7,3.1,3.9c0.7,0.1,1.3-0.2,1.5-0.5C137.2,82.4,137.3,82.1,137.2,82.1z"
																					/>
																			</g>
																		</g>
																	</g>
																</g>
															</g>
														</g>
													</g>
												</g>
											</g>
										</g>
									</g>
								</g>
							</g>
						</g>
					</g>
					<g>
						<path class="st2" d="M184.6,37.7c-1.6-2.7-4.1-4.8-6.8-6.4c-5.8-3.5-12.6-5.4-19.4-4.8c-6.8,0.6-13.3,3.7-17.7,8.8
							c-3.5,4.1-5.6,9.4-6.2,14.8c-0.7,5.4,0,10.9,1.5,16.1c0.7,2.3,1.5,4.6,3.3,6.2c1.1,1,3,1.5,4,0.5c0.6-0.6,0.8-1.5,0.9-2.4
							c1.1-7.8,2.2-16.3-1.3-23.3c1.6-2.7,3.6-5.2,6.2-7c2.6-1.8,5.8-2.8,8.9-2.1c4.6,0.9,7.7,4.9,11.5,7.6c5.5,3.8,12.8,4.7,19,2.3
							L184.6,37.7z"/>
					</g>
				</g>
				<g>
					<g>
						<g>
							<g>
								<g>
									<path class="st4" d="M173.3,83c-0.2,0.9-0.3,1.9-0.7,2.7c-0.4,0.8-1.1,1.6-2,1.8c-1,0.3-2-0.1-2.8-0.8
										c-0.7-0.7-1.1-1.7-1.3-2.7c-0.1-0.9,0-2,0.9-2.3c0.4-0.1,0.8-0.1,1.1,0c1.7,0.3,3.4,0.6,5,0.9"/>
								</g>
							</g>
						</g>
					</g>
					<g>
						<g>
							<g>
								<g>
									<g>
										<path class="st2" d="M172.2,87.2c-0.1-0.1-1,0.5-2.5,0.2c-0.8-0.1-1.6-0.5-2.2-1.3c-0.6-0.8-0.9-1.9-0.7-3
											c0-0.3,0.2-0.5,0.3-0.8c0.1-0.2,0.1-0.2,0.3-0.2c0.2,0,0.5,0.1,0.8,0.1c0.3,0.1,0.6,0.1,0.8,0.2c1.1,0.2,2.1,0.4,2.9,0.5
											c1.6,0.2,2.7,0.3,2.7,0.2c0-0.1-1-0.4-2.6-0.8c-0.8-0.2-1.8-0.4-2.8-0.7c-0.3-0.1-0.5-0.1-0.8-0.2
											c-0.3-0.1-0.5-0.1-0.9-0.2c-0.2,0-0.5,0-0.7,0.2c-0.2,0.2-0.3,0.3-0.4,0.5c-0.1,0.3-0.3,0.6-0.3,1
											c-0.3,1.4,0.1,2.8,0.9,3.7c0.8,0.9,1.9,1.3,2.8,1.4c0.9,0.1,1.6-0.1,2-0.3C172.1,87.5,172.2,87.3,172.2,87.2z"/>
									</g>
								</g>
							</g>
						</g>
					</g>
				</g>
			</g>
			<g>
				<g>
					<path class="st5" d="M194.1,26.8c0,0,0.1,0.2,0.2,0.6c0.1,0.4,0.2,1.1,0.1,1.9c-0.2,1.7-1.1,4.2-3.6,6.1
						c-2.4,1.9-6.3,2.7-10.2,2.1c-4-0.5-8-2.5-12.2-4.2c-4.2-1.7-8.5-2.9-12.3-2.2c-3.9,0.7-6.8,2.9-8.8,5c-2,2.2-3.1,4.4-3.8,5.9
						c-0.6,1.5-0.9,2.4-0.9,2.4c0,0,0-0.2,0.1-0.7c0.1-0.4,0.3-1.1,0.6-1.9c0.6-1.6,1.7-3.8,3.7-6.1c2-2.3,5-4.6,9-5.3
						c4-0.8,8.5,0.4,12.7,2.2c4.2,1.7,8.2,3.7,12.1,4.2c3.8,0.6,7.5-0.1,9.9-1.9c2.4-1.8,3.4-4.1,3.6-5.7
						C194.3,27.7,194,26.8,194.1,26.8z"/>
				</g>
			</g>
			<g>
				<g>
					<path class="st5" d="M129.2,56.9c-0.1,0-0.1-1.1,0.4-2.7c0.4-1.6,1.4-3.9,3-5.9c0.8-1,1.7-1.9,2.6-2.6c0.9-0.7,1.8-1.3,2.7-1.4
						c0.9-0.2,1.6,0,2.1,0.2c0.4,0.2,0.6,0.5,0.6,0.5c0,0.1-0.9-0.7-2.5-0.3c-1.6,0.4-3.3,2.1-4.9,4c-1.6,2-2.5,4.1-3.1,5.7
						C129.5,55.9,129.3,56.9,129.2,56.9z"/>
				</g>
			</g>
			<g>
				<g>
					<path class="st5" d="M131.8,65.4c-0.1,0,0-1.1,0.6-2.7c0.5-1.6,1.6-3.8,3.3-5.8c1.7-2,3.7-3.5,5.2-4.3c1.5-0.8,2.6-1.1,2.6-1
						c0,0.1-0.9,0.5-2.3,1.4c-1.4,0.9-3.3,2.3-4.9,4.3c-1.6,2-2.7,4-3.4,5.6C132.2,64.4,131.9,65.5,131.8,65.4z"/>
				</g>
			</g>
		</g>
		<g>
			<g>
				<path class="st5" d="M185,121.4c0,0,10.6,13.7,13.1,18.8c2.5,5.1,20.8,61.8,20.8,61.8l-7.9,3.3L185,121.4z"/>
			</g>
			<g>
				<polygon class="st6" points="142.4,108.6 142.4,101.7 180.9,114.2 191.2,130.8 199.2,153.8 176.9,120.3 				"/>
			</g>
			<g>
				<path class="st5" d="M140.1,115.2c0,0-16.3,19.5-16,32.2c0.3,12.5,17.3,88.5,17.3,88.5l-4.1,13.6l-4.4,45.3h92.5L219,202
					c-1-0.1-20.3-53.1-20.3-53.1L177.2,119l-35.4-12.8L140.1,115.2z"/>
			</g>
			<g>
				<path class="st5" d="M210.6,179.9c0,0,6.5-0.3,9.9,1.3c3.4,1.5,6.2,0.8,8.6,5.4c2.4,4.7,5.2,6.8,5.8,13.9
					c0.6,7.1-7.1,23.5-12.1,25.8C217.7,228.6,210.6,179.9,210.6,179.9z"/>
			</g>
			<g class="st7">
				<path d="M138.3,179.3c0,0,37.8,35.5,42.6,38.9c4.8,3.4,5.5,24.9,11.5,25.3c5.9,0.4,25.1-13.8,25.1-13.8l-56.9-53.6L138.3,179.3z
					"/>
			</g>
			<g>
				<g>
					<path class="st3" d="M191.5,211.1c0,0-8.2,10.5-9.2,13.2c-0.9,2.6-1.9,4.4-0.9,5.3c1,0.9,1.9,1,2.9,0.6c1.3-0.5,8-9.2,8-9.2
						s-8.8,12.5-9.2,14.7c-0.4,2.2,1.3,3.2,3.3,2.8c2-0.4,5.8-6,5.8-6s-5.4,6.3-4.3,7.3c1.1,1.1,2.5,1.2,4,0.4
						c1.5-0.8,5.3-5.7,5.3-5.7s-2.6,2.8-1.2,3.5c1.4,0.7,1.6,0.8,2.8-0.3c1.3-1,12.3-11.9,12.3-11.9l-7-4.8L191.5,211.1z"/>
				</g>
				<g>
					<g>
						<path class="st4" d="M194.9,217.5c0,0-0.5,0.7-1.3,1.8c-0.9,1.2-2,2.6-3.2,4.2c-1.3,1.6-2.4,3.1-3.3,4.1
							c-0.9,1-1.5,1.6-1.5,1.6c0,0,0.5-0.7,1.3-1.7c0.9-1.1,2-2.6,3.2-4.2c1.3-1.6,2.4-3.1,3.3-4.1
							C194.3,218.1,194.9,217.5,194.9,217.5z"/>
					</g>
				</g>
				<g>
					<g>
						<path class="st4" d="M200.7,222.6c0.1,0.1-1.9,2.5-4.4,5.5c-2.5,3-4.6,5.3-4.7,5.2c-0.1-0.1,1.9-2.5,4.4-5.5
							C198.6,224.8,200.6,222.5,200.7,222.6z"/>
					</g>
				</g>
				<g>
					<g>
						<path class="st4" d="M205.4,225.7c0.1,0.1-2,2.4-4.6,5.3c-2.6,2.9-4.8,5.1-4.9,5c-0.1-0.1,2-2.4,4.6-5.3
							C203.1,227.9,205.3,225.6,205.4,225.7z"/>
					</g>
				</g>
			</g>
			<g>
				<g>
					<path class="st5" d="M145.1,127.3c5.3-1.1,12.1-1.6,17.2,1.3l28.1,25.3c0,0,39.6,44.4,41.1,46.9c1.6,2.5,3.6,17.1-2.4,24.5
						c-6,7.4-12.7,4.6-20.4,2.8c-6.1-1.4-48.6-32.6-66.1-45.6c-6-4.5-10.5-10.8-12.4-18.1c-1.2-4.4-1.9-9.4-1.4-14.4"/>
				</g>
				<g>
					<g>
						<path class="st2" d="M128.8,150c0,0,0,0.2,0,0.7c0,0.5-0.1,1.2-0.1,2.1c0,1.9,0.1,4.7,0.8,8.2c0.4,1.7,0.8,3.7,1.5,5.7
							c0.7,2.1,1.7,4.2,3.1,6.4c1.3,2.1,3,4.3,5.1,6.3c2,2,4.6,3.8,7.1,5.7c10.3,7.6,22.6,16.6,36.4,26.3c3.5,2.4,7,4.9,10.7,7.4
							c3.7,2.5,7.4,5,11.4,7.3c1,0.6,2,1.1,3.1,1.6c0.5,0.2,1.1,0.4,1.6,0.5l1.7,0.4c2.3,0.6,4.6,1.1,6.9,1.4
							c2.3,0.2,4.8-0.1,6.9-1.2c2.1-1.1,3.8-2.9,5.1-5c2-3.5,2.8-7.5,2.9-11.5c0.1-2,0-3.9-0.2-5.9c-0.1-1-0.3-1.9-0.5-2.9
							c-0.2-0.9-0.4-1.9-0.9-2.7c-1.1-1.5-2.4-3-3.7-4.4c-1.2-1.4-2.5-2.9-3.7-4.3c-2.5-2.8-4.9-5.6-7.3-8.3
							c-9.6-10.9-18.5-20.9-26.3-29.7l0,0c-11.6-10.5-21.2-19.2-28-25.4l0,0c-2.5-1.4-5-1.9-7.2-2.1c-2.2-0.2-4-0.1-5.5,0
							c-1.5,0.1-2.6,0.3-3.3,0.5c-0.4,0.1-0.6,0.1-0.8,0.2c-0.2,0-0.3,0-0.3,0s0.4-0.1,1.1-0.2c0.7-0.1,1.9-0.3,3.3-0.5
							c1.5-0.1,3.3-0.3,5.5-0.1c2.2,0.2,4.7,0.7,7.3,2.1l0,0l0,0c6.9,6.2,16.5,14.8,28.1,25.3l0,0l0,0c7.9,8.8,16.8,18.8,26.4,29.7
							c2.4,2.7,4.8,5.5,7.3,8.3c1.2,1.4,2.5,2.8,3.7,4.3c1.2,1.5,2.5,2.9,3.7,4.4c0.2,0.2,0.2,0.4,0.4,0.7c0.1,0.2,0.2,0.5,0.3,0.7
							c0.2,0.5,0.3,0.9,0.4,1.4c0.2,1,0.4,1.9,0.5,2.9c0.2,2,0.3,3.9,0.2,5.9c-0.1,4-0.9,8.1-2.9,11.7c-1.3,2.1-3.1,3.9-5.2,5.1
							c-2.1,1.2-4.7,1.5-7.1,1.3c-2.4-0.2-4.7-0.8-7-1.4l-1.7-0.4c-0.6-0.1-1.2-0.3-1.7-0.5c-1.1-0.5-2.1-1-3.1-1.6
							c-4-2.3-7.8-4.8-11.4-7.3c-3.7-2.5-7.2-5-10.7-7.4c-13.8-9.8-26.1-18.8-36.4-26.4c-2.6-1.9-5.1-3.6-7.1-5.7
							c-2.1-2-3.7-4.2-5.1-6.4c-1.3-2.2-2.3-4.3-3.1-6.4c-0.7-2.1-1.2-4-1.5-5.8c-0.7-3.5-0.8-6.3-0.8-8.2
							C128.6,151,128.8,150,128.8,150z"/>
					</g>
				</g>
			</g>
			<g>
				<g>
					<path class="st2" d="M200,152.1c0,0-0.1,0-0.2-0.1c-0.1-0.1-0.3-0.2-0.4-0.3c-0.4-0.3-1-0.7-1.7-1.3c-1.4-1.2-3.4-3-5.8-5.3
						c-2.4-2.3-5.1-5.2-8.2-8.3c-1.6-1.5-3.2-3.1-5-4.7c-1.8-1.6-3.7-3.1-5.8-4.5c-0.8-0.6-1.8-1.1-2.6-1.6l-0.1-0.1l0-0.1
						c0.1-0.6,0.3-1.3,0.4-1.9l0.1,0.2c-8.5-2.7-16.1-5.1-21.5-6.8c-2.7-0.9-4.8-1.6-6.4-2c-0.7-0.2-1.3-0.4-1.7-0.6
						c-0.2-0.1-0.3-0.1-0.4-0.2c-0.1,0-0.1-0.1-0.1-0.1c0,0,0.1,0,0.2,0c0.1,0,0.3,0.1,0.5,0.1c0.4,0.1,1,0.3,1.7,0.5
						c1.5,0.5,3.7,1.1,6.4,1.9c5.4,1.7,13,4,21.5,6.7l0.2,0l0,0.2c-0.1,0.6-0.3,1.2-0.4,1.9l-0.1-0.2c0.9,0.5,1.8,1,2.7,1.6
						c2.1,1.4,4,3,5.8,4.6c1.8,1.6,3.4,3.2,5,4.7c3.1,3.1,5.8,6,8.2,8.3c2.3,2.3,4.3,4.2,5.7,5.4c0.7,0.6,1.3,1.1,1.6,1.4
						c0.2,0.1,0.3,0.3,0.4,0.4C199.9,152.1,200,152.1,200,152.1z"/>
				</g>
			</g>
			<g>
				<g>
					<path class="st2" d="M213.8,180.7c0,0-0.3-0.5-0.8-1.4c-0.5-1-1.2-2.4-2-4c-1.7-3.4-4-8.1-6.5-13.3c-2.5-5.2-4.8-9.9-6.4-13.4
						c-0.8-1.7-1.4-3.1-1.9-4.1c-0.2-0.5-0.4-0.8-0.5-1.1c-0.1-0.3-0.2-0.4-0.2-0.4s0.1,0.1,0.2,0.4c0.1,0.3,0.3,0.6,0.6,1.1
						c0.5,1,1.2,2.4,2,4c1.7,3.4,4,8.1,6.5,13.3c2.5,5.2,4.8,9.9,6.4,13.4c0.8,1.7,1.4,3.1,1.9,4.1
						C213.6,180.2,213.9,180.7,213.8,180.7z"/>
				</g>
			</g>
			<g>
				<g>
					<path class="st2" d="M148.5,257.3c0,0,0.1,0,0.3,0c0.2,0,0.4,0,0.7,0.1c0.6,0.1,1.6,0.1,2.8,0.2c2.4,0.2,5.9,0.5,10.2,0.9
						c8.7,0.8,20.7,1.9,34.4,3.1l-0.2,0.2c-0.7-2.9-1.5-5.9-2.2-9c-0.3-1.4-0.7-2.8-1-4.2l0.2,0.1c-15.4-1.8-29.1-3.4-38.5-4.5
						l0.1-0.1c-2.3,4-4,7.2-5.1,9.5c-0.6,1.1-1,2-1.2,2.6c-0.1,0.3-0.2,0.5-0.2,0.7C148.4,257.2,148.5,257.3,148.5,257.3
						c0,0,0-0.4,0.2-1c0.2-0.6,0.6-1.5,1.2-2.6c1.1-2.3,2.8-5.5,5.1-9.6l0-0.1l0.1,0c9.5,1.1,23.2,2.6,38.6,4.4l0.1,0l0,0.1
						c0.3,1.4,0.7,2.8,1,4.2c0.8,3.1,1.5,6.1,2.2,9l0.1,0.2l-0.3,0c-13.7-1.3-25.8-2.4-34.5-3.2c-4.3-0.4-7.8-0.8-10.2-1
						c-1.2-0.1-2.1-0.2-2.7-0.3c-0.3,0-0.5-0.1-0.7-0.1C148.5,257.3,148.5,257.3,148.5,257.3z"/>
				</g>
			</g>
			<g class="st7">
				<polygon points="149.7,257.4 151.4,261.7 196.8,264.4 196.8,261.7 				"/>
			</g>
		</g>
		<g>
			<g>
				<g>
					<path class="st2" d="M87.2,40.9c-0.1-2.4-2.2-4.5-4.5-5.2c-2.3-0.7-4.9-0.4-7.2,0.4c-5,1.7-9.3,5.1-13.4,8.5
						c-6.4,5.2-12.6,12.4-15,20.2c-1.8,5.9-2.4,9.8-0.5,16.1c1.7,5.6,3,11,2.7,15.6c-0.5,7.4-1.4,9.1-3.3,16.3
						c-1.2,4.5,2.8,16.3,2.8,16.3l25.5-9.7c9.1-4.3,28.7-12.3,28.7-12.3L87.2,40.9z"/>
				</g>
				<g>
					<g>
						<g>
							<g>
								<g>
									<g>
										<g>
											<g>
												<g>
													<g>
														<g>
															<g>
																<g>
																	<g>
																		<g>
																			<g>
																				<g>
																					<g>
																						<g>
																							<g>
																								<g>
																									<path class="st8" d="M72.9,127.3c0-6.2,0.1-10.5,0.1-10.5c0,0-11.1-2.6-13.4-18.4
																										c-1.1-7.9-1.7-20.4-0.9-31c0.8-9.5,7.3-21,16.7-19.9l29.4,8c2.9,0.4,3.8,2.8,3.7,5.7l0.2,1.4l-2.2,45.3
																										l0.9,19.3c-0.4,8.6-8.9,16.4-17.5,16.8l0,0C80.6,144.4,72.8,136.8,72.9,127.3z"/>
																								</g>
																							</g>
																						</g>
																					</g>
																				</g>
																			</g>
																		</g>
																	</g>
																</g>
															</g>
														</g>
														<g>
															<g>
																<g>
																	<g>
																		<g>
																			<g>
																				<g>
																					<g>
																						<g>
																							<g>
																								<g>
																									<g>
																										<path class="st2" d="M65.4,80c-0.1,1.1,0.8,2,1.9,2.1c1.1,0.1,2.1-0.7,2.1-1.8c0.1-1.1-0.8-2-1.9-2.1
																											C66.5,78.2,65.5,79,65.4,80z"/>
																									</g>
																								</g>
																							</g>
																						</g>
																					</g>
																				</g>
																			</g>
																		</g>
																	</g>
																</g>
															</g>
															<g>
																<g>
																	<g>
																		<g>
																			<g>
																				<g>
																					<g>
																						<g>
																							<g>
																								<g>
																									<g>
																										<g>
																											<path class="st2" d="M62.8,74.5c0.2,0.3,1.8-0.8,4-0.8c2.2,0,3.8,1.2,4,0.9c0.1-0.1-0.1-0.6-0.8-1.1
																												c-0.7-0.5-1.8-1-3.2-1c-1.4,0-2.5,0.5-3.2,1C62.9,73.9,62.7,74.4,62.8,74.5z"/>
																										</g>
																									</g>
																								</g>
																							</g>
																						</g>
																					</g>
																				</g>
																			</g>
																		</g>
																	</g>
																</g>
															</g>
														</g>
														<g>
															<g>
																<g>
																	<g>
																		<g>
																			<g>
																				<g>
																					<g>
																						<g>
																							<g>
																								<g>
																									<g>
																										<path class="st2" d="M85.9,79.8c-0.1,1.1,0.8,2,1.9,2.1c1.1,0.1,2.1-0.7,2.1-1.8c0.1-1.1-0.8-2-1.9-2.1
																											C86.9,77.9,85.9,78.7,85.9,79.8z"/>
																									</g>
																								</g>
																							</g>
																						</g>
																					</g>
																				</g>
																			</g>
																		</g>
																	</g>
																</g>
															</g>
															<g>
																<g>
																	<g>
																		<g>
																			<g>
																				<g>
																					<g>
																						<g>
																							<g>
																								<g>
																									<g>
																										<g>
																											<path class="st2" d="M83.7,74.5c0.2,0.3,1.8-0.8,4-0.8c2.2,0,3.8,1.2,4,0.9c0.1-0.1-0.1-0.6-0.8-1.1
																												c-0.7-0.5-1.8-1-3.2-1c-1.4,0-2.5,0.5-3.2,1C83.8,73.9,83.6,74.4,83.7,74.5z"/>
																										</g>
																									</g>
																								</g>
																							</g>
																						</g>
																					</g>
																				</g>
																			</g>
																		</g>
																	</g>
																</g>
															</g>
														</g>
														<g>
															<g>
																<g>
																	<g>
																		<g>
																			<g>
																				<g>
																					<g>
																						<g>
																							<g>
																								<g>
																									<g>
																										<path class="st2" d="M75,91c0-0.1-1.3-0.4-3.5-0.7c-0.6-0.1-1.1-0.2-1.2-0.6c-0.1-0.4,0.1-1,0.4-1.6
																											c0.5-1.3,1.1-2.7,1.7-4.2c2.4-6,4.1-11,3.9-11c-0.2-0.1-2.4,4.7-4.8,10.7c-0.6,1.5-1.1,2.9-1.7,4.2
																											c-0.2,0.6-0.6,1.3-0.3,2.2c0.1,0.4,0.5,0.7,0.9,0.8c0.4,0.1,0.7,0.1,0.9,0.1C73.6,91.1,74.9,91.1,75,91z"
																											/>
																									</g>
																								</g>
																							</g>
																						</g>
																					</g>
																				</g>
																			</g>
																		</g>
																	</g>
																</g>
															</g>
														</g>
														<g>
															<g>
																<g>
																	<g>
																		<g>
																			<g>
																				<g>
																					<g>
																						<g>
																							<g>
																								<g>
																									<path class="st9" d="M73,116.8c0,0,10.6,0.9,21.3-5.3c0,0-5.5,11.1-21.4,9.3L73,116.8z"/>
																								</g>
																							</g>
																						</g>
																					</g>
																				</g>
																			</g>
																		</g>
																	</g>
																</g>
															</g>
														</g>
													</g>
												</g>
											</g>
											<g>
												<g>
													<g>
														<g>
															<g>
																<g>
																	<g>
																		<g>
																			<g>
																				<g>
																					<g>
																						<path class="st2" d="M83,66.8c0.3,0.6,2.4,0.1,5,0.3c2.6,0.1,4.7,0.7,5,0.1c0.1-0.3-0.3-0.8-1.1-1.3
																							c-0.9-0.5-2.2-1-3.8-1c-1.5-0.1-2.9,0.3-3.8,0.7C83.4,66,82.9,66.5,83,66.8z"/>
																					</g>
																				</g>
																			</g>
																		</g>
																	</g>
																</g>
															</g>
														</g>
													</g>
												</g>
											</g>
											<g>
												<g>
													<g>
														<g>
															<g>
																<g>
																	<g>
																		<g>
																			<g>
																				<g>
																					<g>
																						<path class="st2" d="M62.2,67.7c0.4,0.5,2.2,0,4.4,0c2.1-0.1,3.9,0.4,4.4-0.1c0.2-0.2-0.1-0.8-0.9-1.2
																							c-0.8-0.5-2.1-0.9-3.5-0.9c-1.5,0-2.8,0.4-3.5,0.9C62.2,67,62,67.5,62.2,67.7z"/>
																					</g>
																				</g>
																			</g>
																		</g>
																	</g>
																</g>
															</g>
														</g>
													</g>
												</g>
											</g>
										</g>
									</g>
								</g>
							</g>
						</g>
					</g>
				</g>
				<g>
					<path class="st9" d="M75.5,96.4c0.5-0.9,2.3-2.2,4.2-1.9l0,0c0.1,0,0.1,0,0.2,0c0.9,0.1,1.8,0.6,2.1,1.5
						c0.3,0.8,0.1,1.7-0.5,2.3c-0.5,0.7-1.3,1.1-2.1,1.3c-1,0.3-2.2,0.3-3.1-0.3C75.4,98.6,75,97.3,75.5,96.4z"/>
				</g>
				<g>
					<path class="st2" d="M81.6,93.1c-0.1,0-0.2,0.6-0.6,1.4c-0.4,0.8-1.1,1.9-2.2,2.6c-1.1,0.8-2.4,1.1-3.2,1.2
						c-0.9,0.1-1.5,0-1.5,0.1c0,0.1,0.5,0.3,1.5,0.4c1,0,2.4-0.2,3.6-1.1c1.3-0.9,2-2.1,2.3-3C81.7,93.7,81.7,93.1,81.6,93.1z"/>
				</g>
				<g>
					<path class="st2" d="M58.4,85.7l-3.3-13.3c-2.9-4.1-0.6-10.7,1.4-15.3c2.1-4.6,6.1-8.1,10.5-10.4c4.4-2.4,9.3-3.7,14.2-4.9
						c-1.8,5.9-6.4,11.6-11.7,14.8c0,0-8.1,5.5-9.5,12C58.4,75.8,58.4,85.7,58.4,85.7z"/>
				</g>
				<g>
					<path class="st2" d="M76.8,50.2l23.1,13.9c0,0,0.7,10.5,4.9,20.8c4.3-3.6,6.9,3.4,8.2-2c0.1-0.3-1.2,11.3-5.6,11.7l-0.7,12.6
						l22-5.4c0,0-1.2-15.3-4.9-24.6c-2.3-5.8-3.6-10.6-5.9-16.4c-1.7-4.4-4.8-10.9-7.2-14c-5-6.7-23.5-7-23.5-7
						c-8.2,1.9-2.7,1-9.5,5.8l-2.3,6.3"/>
				</g>
				<g>
					<g>
						<g>
							<g>
								<g>
									<g>
										<g>
											<g>
												<g>
													<g>
														<g>
															<path class="st8" d="M104.8,84.8c0-3.3,3.6-5.8,6.6-4.3c1.7,0.8,3,2.6,3,6.1c0.1,9.4-9.6,7.6-9.6,7.4
																C104.8,93.9,104.8,88.7,104.8,84.8z"/>
														</g>
													</g>
												</g>
											</g>
										</g>
									</g>
								</g>
							</g>
						</g>
					</g>
				</g>
				<g>
					<g>
						<g>
							<g>
								<g>
									<g>
										<g>
											<g>
												<g>
													<g>
														<g>
															<g>
																<path class="st9" d="M107.7,90.4c0,0,0.2,0.1,0.5,0.2c0.3,0.1,0.8,0.2,1.3,0c1-0.4,1.8-2,1.9-3.7
																	c0-0.9-0.2-1.7-0.5-2.3c-0.3-0.7-0.8-1.2-1.3-1.2c-0.5-0.1-0.9,0.2-1,0.5c-0.1,0.3-0.1,0.5-0.1,0.5
																	c0,0-0.2-0.2-0.1-0.5c0-0.2,0.1-0.4,0.4-0.6c0.2-0.2,0.6-0.3,0.9-0.3c0.7,0,1.4,0.7,1.8,1.4
																	c0.4,0.7,0.6,1.7,0.6,2.6c0,1.9-1,3.7-2.4,4.1c-0.7,0.2-1.2,0-1.5-0.2C107.8,90.6,107.7,90.4,107.7,90.4z"/>
															</g>
														</g>
													</g>
												</g>
											</g>
										</g>
									</g>
								</g>
							</g>
						</g>
					</g>
				</g>
				<g>
					<g>
						<path class="st5" d="M87.8,39.7c0,0-0.1,0.2-0.4,0.6c-0.3,0.3-0.7,0.8-1.3,1.4c-1.1,1.1-2.7,2.6-4.5,4.2
							c-1.8,1.6-3.4,3.1-4.5,4.2c-1.1,1.1-1.8,1.8-1.9,1.8c0,0,0.1-0.2,0.4-0.6c0.3-0.3,0.7-0.8,1.3-1.4c1.1-1.1,2.7-2.7,4.5-4.3
							c1.8-1.6,3.3-3,4.6-4.2C87.1,40.4,87.8,39.7,87.8,39.7z"/>
					</g>
				</g>
				<g>
					<g>
						<path class="st5" d="M62.1,47.7c0,0,0.2-0.3,0.6-0.7c0.4-0.4,1.1-1.1,1.9-1.8c1.7-1.4,4.4-3,7.6-3.8c1.6-0.4,3.3-0.5,4.7-0.1
							c1.4,0.4,2.5,1.4,2.9,2.5c0.4,1,0.3,2,0.1,2.6c-0.1,0.3-0.2,0.5-0.3,0.6c-0.1,0.1-0.2,0.2-0.2,0.2c0,0,0.2-0.3,0.4-0.9
							c0.2-0.6,0.2-1.5-0.2-2.5c-0.4-1-1.5-1.9-2.8-2.3c-1.3-0.4-3-0.3-4.5,0.1c-3.2,0.8-5.8,2.4-7.6,3.7
							C63.1,46.8,62.2,47.8,62.1,47.7z"/>
					</g>
				</g>
				<g>
					<g>
						<path class="st5" d="M56.8,57.2c0,0,0.2-0.3,0.6-0.7c0.4-0.4,1-1,1.8-1.7c1.5-1.4,3.7-3.4,6.5-5c1.4-0.8,2.8-1.4,4.2-1.6
							c1.4-0.2,2.7,0,3.6,0.5c0.9,0.5,1.5,1.3,1.7,1.8c0.1,0.3,0.2,0.5,0.2,0.7c0,0.2,0,0.2,0,0.2c0,0-0.1-0.3-0.3-0.8
							c-0.3-0.5-0.8-1.2-1.7-1.7c-0.9-0.5-2.1-0.7-3.5-0.4c-1.3,0.2-2.7,0.9-4.1,1.6c-2.8,1.5-4.9,3.5-6.5,4.8
							c-0.7,0.7-1.3,1.2-1.8,1.7C57.1,57,56.8,57.2,56.8,57.2z"/>
					</g>
				</g>
				<g>
					<path class="st5" d="M112.1,94.9c0.1,1.8-1.4,3.3-3.2,3.4c-1.8,0.1-3.3-1.4-3.4-3.2c-0.1-1.8,1.4-3.3,3.2-3.4
						S112,93.1,112.1,94.9z"/>
				</g>
			</g>
			<g>
				<g>
					<path class="st10" d="M51.6,189.3c-0.8,0.5-9.5,2.6-11.6,8.2c-2.1,5.5-13.3,16.8-5.2,27.8l16.8-9.3V189.3z"/>
					<path class="st2" d="M34.8,225.3L34.8,225.3c-1.5-2-2.4-4.2-2.8-6.4c-0.3-2-0.2-4,0.4-6.2c1-4,3.3-7.7,5.1-10.7
						c1.1-1.8,2-3.3,2.5-4.6c1.7-4.5,7.9-6.8,10.5-7.7c0.6-0.2,1-0.4,1.1-0.5l0,0v26.7l0,0L34.8,225.3z M51.6,189.3
						c-0.2,0.1-0.6,0.2-1.1,0.4c-2.6,1-8.7,3.2-10.5,7.7c-0.5,1.3-1.4,2.8-2.5,4.6c-1.8,3-4.1,6.7-5.1,10.7
						c-0.5,2.2-0.7,4.2-0.4,6.2c0.3,2.2,1.3,4.4,2.7,6.3l16.8-9.3V189.3z"/>
				</g>
				<g>
					<polygon class="st11" points="71,143.3 72.4,124.3 107,109.9 108.2,117 84.6,129 					"/>
				</g>
				<g>
					<path class="st10" d="M108.2,112.8c0,0-21.2,8.6-30.6,17c-8.8,7.9-27.2,38.9-29.2,47.4c-2,8.5-1.6,31.9-1.6,31.9s0,24.2,0,24.8
						s-15.2,39.6-12.4,60.9h86.5c0,0,2.6-29.9-3.3-41.6c-5.9-11.6-6.1-9.3-6.1-9.3s3.5-3.9,3.2-7.5c-0.4-3.5-2.6-6.5-2.6-6.5
						l15.2-47.3c0,0,1.6-23.8-2.6-39.8c-3.9-15-5.3-14.1-10.2-18.9c-0.1-0.1,0.1,0.1,0,0l-4.4-3.6L108.2,112.8z"/>
				</g>
				<g>
					<g>
						<path class="st10" d="M51.6,257.3c-0.3-1,6.5-13.1,6.5-13.1l39.1,6.6l2.7,11L51.6,257.3z"/>
					</g>
					<g>
						<g>
							<path class="st2" d="M51.6,257.3c0,0,0.1,0,0.3,0c0.2,0,0.4,0,0.7,0.1c0.6,0.1,1.6,0.1,2.8,0.2c2.4,0.2,5.9,0.5,10.2,0.9
								c8.7,0.8,20.7,1.9,34.4,3.1l-0.2,0.2c-0.7-2.7-1.4-5.5-2.1-8.3c-0.2-0.9-0.4-1.8-0.7-2.7l0.1,0.1c-15.6-2.6-29.5-5-39.1-6.6
								l0.1-0.1c-2.3,4-4,7.2-5.1,9.5c-0.6,1.1-1,2-1.2,2.6c-0.1,0.3-0.2,0.5-0.2,0.7C51.6,257.2,51.6,257.3,51.6,257.3
								c0,0,0-0.4,0.2-1c0.2-0.6,0.6-1.5,1.2-2.7c1.1-2.3,2.8-5.5,5.1-9.6l0-0.1l0.1,0c9.6,1.6,23.5,3.9,39.1,6.5l0.1,0l0,0.1
								c0.2,0.9,0.4,1.8,0.7,2.7c0.7,2.8,1.4,5.6,2.1,8.3l0.1,0.2l-0.3,0c-13.7-1.3-25.8-2.4-34.5-3.2c-4.3-0.4-7.8-0.8-10.2-1
								c-1.2-0.1-2.1-0.2-2.7-0.3c-0.3,0-0.5-0.1-0.7-0.1C51.7,257.3,51.6,257.3,51.6,257.3z"/>
						</g>
					</g>
				</g>
				<g class="st7">
					<g>
						<path d="M43.2,238.5l0.9,7.1c6.2,4.4,15,3.6,21.7-0.2c6.7-3.7,11.6-9.9,16.2-16c13.9-18.5,25.9-38.6,34.2-60.2
							C94.7,195.1,64.9,212.9,43.2,238.5z"/>
					</g>
				</g>
				<g>
					<g>
						<path class="st10" d="M113,132.8c7.3,5.8,13.6,23.8,2.3,39.5c0,0-49.1,66.6-57.2,71.9s-19.1,2.2-22.2-5.6
							c-3.1-7.8-1.9-15.3,2.5-20.6c4.4-5.3,33.1-56,33.1-56s6.6-23.5,17.7-30.3"/>
					</g>
					<g>
						<g>
							<path class="st2" d="M89.3,131.7c0,0-0.2,0.1-0.5,0.4c-0.3,0.2-0.8,0.6-1.5,1.1c-1.2,1-2.9,2.7-4.7,5.2
								c-3.6,4.9-7.7,13-10.9,23.7l0,0l0,0c-6.3,11.1-14.2,24.9-23.4,40.5c-2.3,3.9-4.7,7.9-7.2,11.9c-0.7,1-1.3,2-2,3
								c-0.4,0.5-0.7,1-1.1,1.4c-0.4,0.5-0.7,1-1,1.5c-0.6,1-1.1,2.1-1.5,3.3c-0.4,1.2-0.7,2.3-0.9,3.6c-0.3,2.4-0.2,5,0.3,7.4
								c0.1,0.6,0.3,1.2,0.5,1.8c0.2,0.6,0.4,1.2,0.6,1.8c0.2,0.6,0.5,1.1,0.8,1.7l0.5,0.8c0.2,0.3,0.3,0.5,0.6,0.8
								c1.6,2,3.8,3.5,6.2,4.3c2.4,0.8,5.1,1.1,7.7,0.7c2.4-0.4,4.7-1.3,6.6-2.7c1.9-1.5,3.5-3.3,5.1-5.1c3.2-3.6,6.2-7.2,9.1-10.8
								c5.8-7.2,11.3-14.2,16.5-20.9c5.2-6.7,10-13.2,14.6-19.2c2.3-3,4.4-5.9,6.6-8.7c1-1.4,2.1-2.8,3.1-4.1c1-1.4,2-2.6,2.9-4
								c1.8-2.6,3-5.5,3.9-8.2c0.2-0.7,0.4-1.4,0.6-2.1c0.2-0.7,0.3-1.4,0.4-2c0.3-1.3,0.3-2.7,0.4-3.9c0.2-5.1-0.9-9.4-2.2-12.8
								c-1.3-3.3-2.9-5.7-4.1-7.1c-0.3-0.4-0.6-0.7-0.8-0.9c-0.3-0.2-0.5-0.4-0.7-0.6c-0.4-0.3-0.5-0.5-0.5-0.5s0.2,0.2,0.6,0.5
								c0.2,0.2,0.4,0.4,0.7,0.6c0.3,0.2,0.5,0.6,0.8,0.9c1.2,1.4,2.9,3.7,4.2,7.1c1.3,3.3,2.4,7.7,2.2,12.8
								c-0.1,1.3-0.1,2.6-0.4,3.9c-0.1,0.7-0.2,1.4-0.4,2c-0.2,0.7-0.4,1.4-0.6,2.1c-0.9,2.8-2.1,5.6-3.9,8.3
								c-0.8,1.4-1.9,2.7-2.8,4c-1,1.3-2,2.7-3.1,4.1c-2.1,2.8-4.3,5.7-6.5,8.8c-4.5,6-9.4,12.5-14.6,19.2
								c-5.2,6.7-10.6,13.8-16.4,21c-2.9,3.6-5.9,7.2-9.1,10.8c-0.8,0.9-1.6,1.8-2.4,2.6c-0.8,0.9-1.7,1.7-2.7,2.5
								c-2,1.4-4.3,2.4-6.8,2.8c-2.7,0.4-5.4,0.2-7.9-0.7c-2.5-0.8-4.8-2.4-6.4-4.4c-0.2-0.2-0.4-0.5-0.6-0.8l-0.5-0.8
								c-0.3-0.6-0.6-1.2-0.8-1.8c-0.2-0.6-0.5-1.2-0.6-1.8c-0.2-0.6-0.3-1.2-0.5-1.9c-0.6-2.5-0.7-5.1-0.3-7.5
								c0.2-1.2,0.5-2.5,0.9-3.6c0.4-1.2,0.9-2.3,1.6-3.3c0.3-0.5,0.7-1,1-1.5c0.4-0.5,0.7-1,1.1-1.5c0.7-0.9,1.3-2,2-3
								c2.6-4,4.9-8,7.2-11.9c9.2-15.5,17.1-29.3,23.4-40.4l0,0c3.3-10.7,7.4-18.8,11.1-23.7c1.8-2.5,3.5-4.1,4.8-5.1
								c0.6-0.5,1.1-0.9,1.5-1.1C89.2,131.8,89.3,131.7,89.3,131.7z"/>
						</g>
					</g>
				</g>
				<g>
					<path class="st8" d="M67.7,183.2c0,0-1.3-3.3-3.8-3.7c-2.5-0.4-7.4,0-7.4,0s-2.2,1.6-2.1,3.8s0.5,3.8,0.5,3.8s-1.8-2.4-4.1-0.1
						c-2.3,2.3-4.4,6.8-4.4,6.8s-3.1,1-4.3,2.5c-1.2,1.5-1.9,3.9-1.9,3.9s-2.5,1.5-2.1,4.8c0.4,3.3,3.3,4.7,3.3,4.7
						s9.2,6.8,10.4,5.9c1.1-0.9,3.4-2.3,0.1-5.2c-3.3-2.9-5.4-4.8-5.4-4.8l1.6-2.4c0,0,9,6.2,10.5,5.9c1.4-0.3,3.9-0.3,2.9-2.6
						c-1-2.2-9.5-8.7-9.5-8.7l1-3.5c0,0,9.8,6.6,11.4,5.6c1.6-1.1,3-1.6,1.4-3.7c-1.6-2.2-8.7-7.4-8.7-7.4l2.9-2.7
						C59.9,186.1,66.7,187.3,67.7,183.2z"/>
				</g>
				<g>
					<g>
						<path class="st2" d="M110,120.3c0,0-0.1,0-0.2,0.1c-0.2,0-0.4,0.1-0.7,0.2c-0.6,0.2-1.6,0.4-2.8,0.7c-2.4,0.7-5.8,1.7-9.9,3.3
							c-1,0.4-2.1,0.9-3.2,1.4c-0.5,0.3-1.1,0.5-1.6,0.8c-0.3,0.1-0.6,0.3-0.8,0.5c-0.3,0.2-0.5,0.3-0.8,0.5
							c-2.1,1.6-3.9,3.6-5.9,5.8c-3.8,4.4-7.7,9.5-11.7,15c-4,5.4-7.7,10.7-11,15.5c-1.7,2.4-3.2,4.7-4.6,6.9
							c-1.4,2.2-2.7,4.2-3.7,6.2c-2,4-3.1,7.4-3.9,9.7c-0.4,1.2-0.7,2.1-0.8,2.7c-0.1,0.3-0.2,0.5-0.2,0.7c0,0.2-0.1,0.2-0.1,0.2
							c0,0,0-0.1,0-0.2c0-0.2,0.1-0.4,0.2-0.7c0.2-0.6,0.4-1.6,0.8-2.7c0.7-2.4,1.8-5.8,3.8-9.8c1-2,2.3-4.1,3.7-6.2
							c1.4-2.2,3-4.5,4.6-6.9c3.3-4.8,7-10.1,11-15.6c4-5.4,7.9-10.6,11.8-15c1.9-2.2,3.8-4.3,5.9-5.9c0.3-0.2,0.6-0.4,0.8-0.5
							c0.3-0.2,0.6-0.3,0.8-0.5c0.6-0.3,1.1-0.6,1.7-0.8c1.1-0.5,2.2-1,3.2-1.4c4.1-1.6,7.6-2.6,10-3.2c1.2-0.3,2.1-0.5,2.8-0.7
							c0.3-0.1,0.5-0.1,0.7-0.2C109.9,120.3,110,120.3,110,120.3z"/>
					</g>
				</g>
				<g>
					<g>
						<path class="st2" d="M104.5,239.7c0,0-0.4-0.2-1.1-0.6c-0.7-0.4-1.7-1-2.8-1.9c-2.3-1.6-5.4-4.1-8.5-7.2
							c-3.1-3.1-5.6-6.2-7.2-8.5c-0.8-1.2-1.5-2.1-1.9-2.8c-0.4-0.7-0.6-1.1-0.6-1.1c0,0,0.3,0.3,0.7,1c0.4,0.7,1.1,1.6,2,2.7
							c1.7,2.3,4.2,5.3,7.3,8.4c3.1,3.1,6.1,5.5,8.4,7.2c1.1,0.8,2.1,1.5,2.8,1.9C104.2,239.4,104.5,239.7,104.5,239.7z"/>
					</g>
				</g>
				<g class="st7">
					<polygon points="52.9,257.4 54.1,261.7 98.3,261.6 					"/>
				</g>
			</g>
		</g>
	</g>
</g>
</svg>
