<?xml version="1.0" encoding="utf-8"?>
<!-- Generator: Adobe Illustrator 25.0.0, SVG Export Plug-In . SVG Version: 6.00 Build 0)  -->
<svg version="1.1" id="Layer_1" xmlns="http://www.w3.org/2000/svg" xmlns:xlink="http://www.w3.org/1999/xlink" x="0px" y="0px"
	 viewBox="0 0 100 100" style="enable-background:new 0 0 100 100;" xml:space="preserve">
<g>
	<path d="M65.2,91.1c-3.2,2.5-4.9,2.4-7.8-0.5c-0.6-0.6-1.2-1.2-1.7-1.8c-1.3-1.5-1.6-3.7-0.4-5.2c1.1-1.2,0.8-2.1,0.2-3.3
		c-0.2-0.5-0.4-1-0.6-1.6c-4,0-8,0-12,0c-1.3,0-2.6,0-3.9,0c-1.7,0-2.7-0.8-2.7-2c0-1.2,1-2,2.6-2c3.5,0,7.1,0,10.8,0
		c0-1.3,0-2.5,0-3.6c0-2.7,1.5-4.4,4.1-4.8c0.5-0.1,1.1-0.6,1.4-1.1c0.7-1.3,1.2-2.5-0.1-4c-1.3-1.4-0.8-3.6,0.6-5.1
		c0.8-0.9,1.7-1.8,2.6-2.7c1.7-1.6,3.9-1.6,5.8-0.2c1.3,0.9,4.1-0.2,4.4-1.7c0.4-2.6,1.9-4,4.5-4.1c1.3-0.1,2.6-0.1,3.9,0.1
		c2.2,0.2,3.8,1.8,3.9,3.9c0.1,0.9,0.4,1.2,1.2,1.5c1.5,0.6,2.7,1.2,4.2-0.2c0.5-0.5,1.6-0.5,2.6-0.7c0-6.4,0-12.9,0-19.5
		c-28.2,0-56.4,0-84.8,0C4,33,4,33.5,4,34.1c0,11.1,0,22.2,0,33.3c0,1.9,0.3,3.6,1.4,5.2c1,1.4,2.4,2.2,4.2,2.2c3.5,0,7,0,10.5,0
		c1.8,0,2.8,0.8,2.7,2.1c0,1.2-1,1.9-2.7,1.9c-3.1,0-6.3-0.1-9.4,0C3.7,79.1,0.1,73.4,0,68.3c0-4,0-7.9,0-11.9c0-14.3,0-28.5,0-42.8
		c0-2.2,0.3-4.4,1.5-6.3c1.8-3.1,4.4-4.9,8.1-4.9c24.6,0,49.1,0,73.7,0c5.3,0,9.5,4.4,9.5,10.1c0.1,7.7,0,15.3,0,23
		c0,6,0,12.1,0,18.1c0,0.7,0.3,1.6,0.8,2.2c1.8,2.1,1.9,4.2,0.3,6.4c-0.3,0.4-0.3,1-0.2,1.5c0.5,1.6,1,2.9,3.2,3.1
		c1.9,0.2,3,2.2,3,4.5c0,2.8,0.6,5.8-2.8,7.2c-0.1,0-0.2,0.1-0.3,0.1c-2.4-0.2-2.5,1.8-3.2,3.2c-0.1,0.3,0.1,0.9,0.3,1.2
		c1.6,2.1,1.5,4.4-0.3,6.3c-0.8,0.8-1.5,1.6-2.3,2.3c-1.8,1.7-4.1,1.8-5.9,0.3c-0.8-0.7-1.4-0.7-2-0.2c-0.9,0.6-2.5,0.2-2.5,2.1
		c0,2.1-1.7,3.7-3.7,3.9c-1.6,0.1-3.2,0.1-4.8,0c-1.8-0.1-3.4-1.5-3.5-3.2c-0.1-1.6-0.9-2.2-2.3-2.6C66.1,91.6,65.6,91.3,65.2,91.1z
		 M4,28.3c28.4,0,56.5,0,84.7,0c0-5.8,0.2-11.6-0.1-17.3c-0.2-2.9-2.7-4.7-5.4-4.7c-24.5,0-49,0-73.5,0c-1.5,0-2.7,0.5-3.8,1.6
		C4.6,9.3,4,11,4,13c0,3.5,0,7.1,0,10.6C4,25.1,4,26.7,4,28.3z M53.7,74.7c0.7,0,1.3,0,1.8,0c1.5-0.1,2.4,0.6,2.9,2.1
		c0.5,1.6,1.2,3.1,1.9,4.6c0.5,1.1,0.5,2-0.4,2.8c-0.5,0.5-1,1.1-2,2.1c0.7,0.4,1.3,0.7,1.7,1.1c1.9,1.8,1.5,1.9,3.3,0.1
		c0.9-1,1.9-1.1,3.1-0.4c1.1,0.6,2.3,1.2,3.5,1.6c2.7,1,2.8,0.9,2.9,3.8c0,1,0.4,1.3,1.3,1.2c0.3,0,0.6,0,0.9,0c2.3,0,2.3,0,2.3-2.2
		c0-1.4,0.6-2.2,1.9-2.6c1.6-0.5,3.1-1.2,4.6-1.9c1-0.5,1.8-0.5,2.7,0.2c2.1,1.7,2.1,1.7,4-0.2c0.3-0.3,0.6-0.7,1-1.1
		c-0.4-0.4-0.7-0.8-1.1-1.2c-1.6-1.6-1.6-1.9-0.6-3.9c0.6-1.3,1.2-2.7,1.6-4c0.4-1.4,1.2-2.1,2.7-2c0.6,0,1.3,0,1.9,0
		c0-1.6,0-3,0-4.4c-0.6,0-1.1,0-1.6,0c-2.1,0-2.5-0.3-3.1-2.3c-0.3-0.8-0.4-1.8-0.9-2.5c-1.7-2.4-1.6-4.5,0.8-6.2
		c0.1,0,0-0.2,0.1-0.6c-0.3-0.3-0.9-0.6-1.3-1c-1.7-1.6-1.7-1.7-3.3-0.1c-0.9,0.9-1.9,1.1-3.1,0.4c-1.2-0.7-2.5-1.3-3.8-1.7
		c-2.6-0.9-2.6-0.8-2.8-3.7c0-0.8-0.1-1.4-1.1-1.3c-0.4,0-0.8,0-1.2,0c-2.1,0-2.1,0-2.1,2.1c0,1.4-0.5,2.3-2,2.7
		c-1.1,0.2-2.2,0.5-3,1.2c-2.2,1.6-4.1,1.5-5.7-0.8c-0.1-0.1-0.3-0.1-0.5-0.2c-1,0.9-2,1.9-3.5,3.4c0.8,0.5,1.5,0.9,2.1,1.4
		c0.8,0.7,0.9,1.6,0.4,2.7c-0.8,1.6-1.3,3.4-2.1,5c-0.4,0.7-1.2,1.5-2,1.6c-2.7,0.5-2.7,0.4-2.6,3.1C53.6,73.7,53.7,74.1,53.7,74.7z
		"/>
	<path d="M44,53.5c-1.5-1.7-3-3.4-4.4-5c-1-1.2-1.1-2.3-0.1-3.1c0.9-0.7,2.1-0.6,3,0.5c1.7,1.8,3.3,3.7,5,5.6c1.3,1.5,1.3,2.7,0,4.2
		c-1.7,1.9-3.4,3.8-5.1,5.7c-1,1.1-2.1,1.2-3,0.4c-1-1-0.8-2,0.1-3C41,57,42.5,55.3,44,53.5z"/>
	<path d="M15.5,53.5c1.5,1.7,3,3.3,4.4,5c1,1.2,1.1,2.4,0.2,3.2c-0.9,0.8-2,0.7-3.1-0.5c-1.6-1.8-3.3-3.6-4.9-5.5
		c-1.3-1.5-1.3-2.7,0-4.3c1.6-1.8,3.2-3.6,4.8-5.4c1.1-1.2,2.3-1.4,3.2-0.6c0.9,0.8,0.8,2-0.4,3.3C18.4,50.3,17,51.9,15.5,53.5z"/>
	<path d="M25.9,61.4c0.4-1.7,0.9-3.6,1.3-5.5c0.8-3.5,1.6-7,2.5-10.4c0.4-1.6,1.3-2.2,2.5-2c1.2,0.3,1.7,1.3,1.3,2.8
		c-1.2,5.1-2.4,10.3-3.7,15.4c-0.3,1.2-0.9,2.1-2.2,1.9C26.5,63.5,25.9,62.8,25.9,61.4z"/>
	<path d="M31.6,76.7c-0.1,1.2-0.8,1.9-2,2c-1,0.1-2-1-2-2c0-1,1-2,2-2C30.8,74.8,31.4,75.5,31.6,76.7z"/>
	<path d="M67.3,24.1c-2.8,0-5.5,0-8.3,0c-4,0-7-2.9-7.1-6.6c-0.1-3.7,3-6.6,7-6.7c5.6-0.1,11.2-0.1,16.8,0c4.1,0,6.9,2.8,6.9,6.7
		c0,3.8-2.9,6.5-7,6.6C72.8,24.1,70,24.1,67.3,24.1z M67.2,20c2.9,0,5.7,0,8.6,0c1.7,0,2.9-1.1,3-2.5c0.1-1.5-1.2-2.7-3-2.7
		c-5.6,0-11.2,0-16.8,0c-1.9,0-3,1.1-3,2.7c0,1.6,1.1,2.6,3,2.6C61.7,20.1,64.4,20,67.2,20z"/>
	<path d="M11.7,17.3c0-3.6,3-6.5,6.6-6.6c3.7,0,6.7,3,6.6,6.7c0,3.6-3,6.6-6.6,6.6C14.7,24.1,11.6,21,11.7,17.3z M20.9,17.6
		c0.1-1.4-1.1-2.7-2.5-2.8c-1.4-0.1-2.6,1-2.8,2.4c-0.2,1.5,0.9,2.8,2.4,2.9C19.5,20.1,20.8,19.1,20.9,17.6z"/>
	<path d="M41.9,17.3c0,3.7-2.9,6.7-6.6,6.7c-3.6,0-6.5-3-6.6-6.6c0-3.7,3-6.7,6.6-6.7C39,10.8,41.9,13.7,41.9,17.3z M38.1,17.5
		c0.1-1.4-1.2-2.7-2.6-2.7c-1.4,0-2.6,1.1-2.7,2.5c-0.1,1.5,1,2.7,2.5,2.8C36.7,20.1,38,18.9,38.1,17.5z"/>
	<path d="M74.8,60.5c6.6,0,12,5.3,12,12c0,6.6-5.4,12-11.9,12.1c-6.6,0.1-12.1-5.5-12.1-12.1C62.8,65.9,68.2,60.5,74.8,60.5z
		 M82.9,72.7c0.1-4.5-3.5-8.2-7.9-8.3c-4.4-0.1-8.1,3.5-8.2,7.9c-0.1,4.5,3.3,8.1,7.7,8.3C79,80.7,82.8,77.2,82.9,72.7z"/>
</g>
</svg>
