<?xml version="1.0" encoding="utf-8"?>
<!-- Generator: Adobe Illustrator 25.0.0, SVG Export Plug-In . SVG Version: 6.00 Build 0)  -->
<svg version="1.1" id="Layer_1" xmlns="http://www.w3.org/2000/svg" xmlns:xlink="http://www.w3.org/1999/xlink" x="0px" y="0px"
	 viewBox="0 0 100 100" style="enable-background:new 0 0 100 100;" xml:space="preserve">
<g>
	<path d="M9.7,48.4c0-0.8,0-1.4,0-2c0-12.5,0-24.9,0-37.4c0-5.7,3.2-9,9-9c20.9,0,41.8,0,62.7,0c5.6,0,8.9,3.3,8.9,8.9
		c0,21.1,0,42.1,0,63.2c0,0.6,0,1.3,0,2c1.1,0.1,2.1,0.1,3.1,0.3c4.1,0.8,6.9,4.4,6.5,8.5c-0.3,4.1-3.6,7.3-7.8,7.4
		c-3.9,0.1-7.8,0-11.8,0c-12.8,0-25.6,0-38.4,0c-1.1,0-2.1-0.1-3.3-0.2c0,1.5,0,3.1,0,4.7c0,3.1-2,5.1-5.2,5.1c-9.5,0-18.9,0-28.4,0
		C2,100,0,98,0,94.8c0-13.8,0-27.5,0-41.3c0-3.2,2-5.1,5.1-5.2C6.6,48.4,8,48.4,9.7,48.4z M3.2,74.2c0,6.8,0,13.5,0,20.3
		c0,1.4,0.5,2.3,2,2.3c9.4,0,18.8,0,28.2,0c1.3,0,2-0.6,2-2c0-1.7,0.1-3.4,0-5.2c0-0.5-0.5-1.1-0.9-1.3c-1.9-0.8-3.8-1.5-5.7-2.2
		c-1.8-0.7-2.9-1.8-3-3.8c-0.1-1.8,1-3.2,3-3.9c1.8-0.7,3.6-1.4,5.4-2c1-0.3,1.3-0.8,1.3-1.9c-0.1-6.8,0-13.7,0-20.5
		c0-2-0.5-2.4-2.5-2.4c-9.1,0-18.2,0-27.3,0c-2.1,0-2.5,0.4-2.5,2.6C3.2,60.9,3.2,67.5,3.2,74.2z M12.9,19.2c24.8,0,49.4,0,74.2,0
		c0-3.4,0-6.8,0-10.1c0-4.2-1.7-5.9-6-5.9c-20.7,0-41.5,0-62.2,0c-0.5,0-1,0-1.4,0C15,3.5,13,5.3,13,7.7
		C12.8,11.5,12.9,15.3,12.9,19.2z M16.1,48.3c0-6.2,0-12.3,0-18.4c0-3.1,1.1-4.1,4.2-4.1c19.8,0,39.5,0,59.3,0c3.2,0,4.2,1,4.2,4.3
		c0,14,0,28,0,42.1c0,0.6,0,1.3,0,1.9c1.2,0,2.1,0,3.1,0c0-17.2,0-34.3,0-51.4c-24.7,0-49.3,0-74,0c0,8.6,0,17.1,0,25.7
		C14.1,48.3,15,48.3,16.1,48.3z M83.8,77.5c-14,0-27.9,0-41.7,0c0,1.1,0,2.1,0,3c14,0,27.8,0,41.7,0C83.8,79.5,83.8,78.6,83.8,77.5z
		 M83.8,84c-14,0-27.9,0-41.7,0c0,1.1,0,2.1,0,3c14,0,27.8,0,41.7,0C83.8,86,83.8,85,83.8,84z M19.5,29.1c0,3.3,0,6.4,0,9.5
		c3.2,0,6.3,0,9.4,0c0-3.2,0-6.3,0-9.5C25.7,29.1,22.7,29.1,19.5,29.1z M41.8,38.7c0-3.3,0-6.4,0-9.5c-3.2,0-6.4,0-9.4,0
		c0,3.2,0,6.4,0,9.5C35.6,38.7,38.6,38.7,41.8,38.7z M45.2,38.6c3.3,0,6.4,0,9.5,0c0-3.2,0-6.4,0-9.5c-3.2,0-6.3,0-9.5,0
		C45.2,32.3,45.2,35.4,45.2,38.6z M58.1,29.1c0,3.3,0,6.4,0,9.5c3.2,0,6.3,0,9.5,0c0-3.2,0-6.3,0-9.5C64.4,29.1,61.3,29.1,58.1,29.1
		z M71.1,29.1c0,3.3,0,6.4,0,9.5c3.2,0,6.3,0,9.5,0c0-3.2,0-6.4,0-9.5C77.3,29.1,74.2,29.1,71.1,29.1z M71,51.5c3.2,0,6.3,0,9.5,0
		c0-3.2,0-6.3,0-9.5c-3.2,0-6.4,0-9.5,0C71,45.3,71,48.4,71,51.5z M45.2,64.4c3.3,0,6.4,0,9.5,0c0-3.2,0-6.4,0-9.5
		c-3.2,0-6.3,0-9.5,0C45.2,58.1,45.2,61.2,45.2,64.4z M67.7,55c-3.3,0-6.4,0-9.5,0c0,3.2,0,6.4,0,9.5c3.2,0,6.3,0,9.5,0
		C67.7,61.2,67.7,58.2,67.7,55z M80.5,64.4c0-3.3,0-6.4,0-9.5c-3.2,0-6.4,0-9.5,0c0,3.2,0,6.3,0,9.5C74.2,64.4,77.3,64.4,80.5,64.4z
		 M58.1,51.5c3.3,0,6.4,0,9.5,0c0-3.2,0-6.4,0-9.5c-3.2,0-6.3,0-9.5,0C58.1,45.2,58.1,48.3,58.1,51.5z M54.8,42c-3.2,0-6.4,0-9.5,0
		c0,3.2,0,6.4,0,9.5c3.2,0,6.3,0,9.5,0C54.8,48.4,54.8,45.3,54.8,42z M87.2,87.1c1.8,0,3.5,0.1,5.2,0c2.5-0.2,4.3-2.3,4.4-4.7
		c0-2.4-1.8-4.6-4.3-4.8c-1.7-0.2-3.5,0-5.3,0C87.2,80.7,87.2,83.8,87.2,87.1z M32.3,48.4c2-0.1,4.1,0,5.1,1.8
		c1.2,2,2.8,1.4,4.3,1.3c0-3.3,0-6.4,0-9.5c-3.2,0-6.3,0-9.5,0C32.3,44.1,32.3,46.1,32.3,48.4z M19.4,48.3c3.3,0,6.4,0,9.5,0
		c0-2.2,0-4.2,0-6.2c-3.2,0-6.3,0-9.5,0C19.4,44.1,19.4,46.1,19.4,48.3z M45.3,67.8c0,2.2,0,4.2,0,6.3c3.2,0,6.3,0,9.5,0
		c0-2.2,0-4.2,0-6.3C51.5,67.8,48.4,67.8,45.3,67.8z M67.7,74.1c0-2.2,0-4.2,0-6.3c-3.2,0-6.3,0-9.5,0c0,2.2,0,4.2,0,6.3
		C61.4,74.1,64.5,74.1,67.7,74.1z M71,74c3.2,0,6.3,0,9.5,0c0-2.1,0-4.2,0-6.2c-3.2,0-6.4,0-9.5,0C71,70,71,71.9,71,74z M38.6,78.2
		c-3.1,1.1-6,2.2-8.9,3.4c-0.8,0.3-0.9,1-0.1,1.4c2.9,1.2,5.9,2.3,9,3.4C38.6,83.5,38.6,80.9,38.6,78.2z M41.8,64.4
		c0-3.2,0-6.3,0-9.5c-1.1,0-2.1,0-3,0c0,3.2,0,6.4,0,9.5C39.9,64.4,40.8,64.4,41.8,64.4z M41.8,74.1c0-2.2,0-4.2,0-6.2
		c-1.1,0-2,0-3,0c0,2.3,0,4.4,0,6.6C39.8,74.3,40.8,74.2,41.8,74.1z"/>
	<path d="M32.1,67.7c-8.6,0-17,0-25.6,0c0-4.2,0-8.4,0-12.7c8.5,0,17,0,25.6,0C32.1,59.1,32.1,63.3,32.1,67.7z M29,58.2
		c-6.5,0-12.8,0-19.2,0c0,2.1,0,4.2,0,6.2c6.4,0,12.8,0,19.2,0C29,62.3,29,60.3,29,58.2z"/>
	<path d="M21.2,79.4c1,1,1.7,1.6,2.4,2.2c-4.7,4.7-9.3,9.3-14,13.9c-1.2-1.3-2.6-2.8-3.9-4.2c0.5-0.5,1.3-1.2,2.1-2
		c0.5,0.5,1.2,1.1,1.9,1.8C13.5,87.2,17.4,83.3,21.2,79.4z"/>
	<path d="M6.5,74.1c0-1,0-2,0-3c3.1,0,6.3,0,9.5,0c0,1,0,1.9,0,3C12.9,74.1,9.7,74.1,6.5,74.1z"/>
	<path d="M6.6,77.5c3.2,0,6.3,0,9.5,0c0,1,0,2,0,3c-3.1,0-6.2,0-9.5,0C6.6,79.6,6.6,78.6,6.6,77.5z"/>
	<path d="M29,11.3c0,2.6-2.2,4.8-4.8,4.8c-2.7,0-4.9-2.2-4.8-4.9c0.1-2.6,2.3-4.8,4.9-4.7C26.9,6.5,29,8.7,29,11.3z M26,11.7
		c0-0.2,0-0.5,0-0.7c-0.6-0.4-1.1-1.1-1.8-1.2c-1-0.2-1.8,0.6-1.6,1.5c0.1,0.6,0.9,1.5,1.5,1.5C24.7,12.8,25.4,12.1,26,11.7z"/>
	<path d="M40.4,6.5c2.6,0,4.8,2.2,4.8,4.8c0,2.7-2.3,4.9-5,4.8c-2.6-0.1-4.8-2.3-4.7-4.9C35.5,8.6,37.7,6.4,40.4,6.5z M40.4,9
		c-0.8,1-1.5,1.5-1.6,2.1c-0.2,1,0.5,1.6,1.5,1.7c1,0,1.7-0.6,1.6-1.6C41.8,10.6,41.1,10.1,40.4,9z"/>
	<path d="M59.5,16.1c-2.6-0.1-4.8-2.3-4.7-4.9c0.1-2.7,2.4-4.9,5-4.7c2.6,0.1,4.7,2.4,4.6,5C64.4,14.1,62.2,16.2,59.5,16.1z
		 M61.5,11.7c0-0.2,0-0.5,0-0.7c-0.6-0.4-1.1-1.1-1.8-1.2c-1-0.2-1.8,0.6-1.6,1.5c0.1,0.6,0.9,1.5,1.4,1.5
		C60.2,12.8,60.9,12.1,61.5,11.7z"/>
	<path d="M80.6,11.2c0,2.6-2.1,4.8-4.7,4.9c-2.7,0.1-5-2.1-4.9-4.8c0-2.6,2.2-4.8,4.8-4.8C78.4,6.4,80.6,8.6,80.6,11.2z M77.6,11.7
		c0-0.2,0-0.5,0-0.7c-0.6-0.4-1.1-1.1-1.7-1.3c-1-0.2-1.8,0.5-1.6,1.5c0.1,0.6,0.9,1.5,1.4,1.5C76.3,12.8,77,12.1,77.6,11.7z"/>
</g>
</svg>
