<?xml version="1.0" encoding="utf-8"?>
<!-- Generator: Adobe Illustrator 25.0.0, SVG Export Plug-In . SVG Version: 6.00 Build 0)  -->
<svg version="1.1" id="Layer_1" xmlns="http://www.w3.org/2000/svg" xmlns:xlink="http://www.w3.org/1999/xlink" x="0px" y="0px"
	 viewBox="0 0 100 100" style="enable-background:new 0 0 100 100;" xml:space="preserve">
<g>
	<path d="M46.5,97.5C26.2,94.4,12,83.8,5.1,64.1c-1-3-1.3-6.2-1.9-9.3C3,53.8,3,53,1.7,52.5C0.9,52.3,0,50.9,0,50
		c0-0.9,0.8-2.1,1.6-2.6c1-0.6,1.5-1.1,1.6-2.3C5.1,24.7,21,7.4,41.3,3.7c1.2-0.2,2.3-0.4,3.5-0.5C46,3.1,47,3,47.5,1.6
		C47.8,0.8,49.2,0,50.1,0c0.9,0,1.7,1.1,2.6,1.7c0.7,0.5,1.3,1.4,2,1.4C77,5.5,94.1,22.4,96.8,44.9c0.2,1.3,0.4,2.1,1.7,2.6
		c0.7,0.3,1.5,1.6,1.5,2.4c-0.1,0.9-0.8,2.2-1.6,2.6c-1.2,0.5-1.4,1.2-1.5,2.3c-2.5,20.3-15.9,35.8-35.6,40.9
		c-1.8,0.5-3.6,0.7-5.4,1c-1.4,0.2-3,0-3.6,2.1c-0.2,0.6-1.9,1.4-2.5,1.2C48.6,99.5,47.6,98.4,46.5,97.5z M52.9,90.8
		c21.8-0.5,38.3-21.1,37.8-37.9c-1.6,0-3.2,0-4.8,0c-2.2-0.1-3.4-1.2-3.4-2.9c0-1.7,1.3-2.9,3.4-2.9c1.7,0,3.4,0,5,0
		c-1-22.4-21.5-38.1-37.8-37.8c0,0.1-0.1,0.1-0.1,0.2c0,1.5-0.1,3.1-0.1,4.6c-0.1,2.3-1.1,3.4-2.9,3.4c-1.8,0-2.9-1.2-3-3.4
		c0-1.7,0-3.3,0-5C25.2,9.9,9,30.1,9.3,47c1.6,0,3.2,0,4.8,0c2.2,0.1,3.4,1.1,3.4,2.9c0,1.8-1.1,2.9-3.4,2.9c-1.7,0-3.3,0-5,0
		c0.7,21.8,20.8,38,37.9,37.9c0-1.7,0-3.4,0-5.1c0.1-2,1.2-3.2,2.9-3.3c1.7,0,2.9,1.2,2.9,3.2C52.9,87.3,52.9,89,52.9,90.8z"/>
	<path d="M40.3,52.4c-8-8.3-5.2-17.8-0.2-22.3c5.7-5.2,14.5-5.1,20.1,0.2c6.2,5.9,6.1,14.3-0.4,22c0.6,0.4,1.2,0.8,1.7,1.2
		c5.6,3.9,8.8,9.2,9.1,16.1c0.1,2.4-0.8,3.7-2.6,3.9c-1.9,0.2-3-1.2-3.2-3.6c-0.6-7.5-5.9-13.1-13.3-14c-6.8-0.8-13.3,3.5-15.5,10.3
		c-0.4,1.4-0.6,2.9-0.8,4.3c-0.2,1.9-1.2,3.1-3.1,3c-1.9-0.1-2.8-1.5-2.7-3.4c0.3-7.2,3.5-12.8,9.5-16.8
		C39.3,53,39.8,52.7,40.3,52.4z M50,32.4c-5,0-8.8,3.8-8.8,8.8c0,4.8,3.8,8.7,8.7,8.8c4.8,0.1,8.9-4,9-8.8
		C58.9,36.4,54.9,32.4,50,32.4z"/>
</g>
</svg>
