<?xml version="1.0" encoding="utf-8"?>
<!-- Generator: Adobe Illustrator 25.0.0, SVG Export Plug-In . SVG Version: 6.00 Build 0)  -->
<svg version="1.1" id="Layer_1" xmlns="http://www.w3.org/2000/svg" xmlns:xlink="http://www.w3.org/1999/xlink" x="0px" y="0px"
	 viewBox="0 0 100 100" style="enable-background:new 0 0 100 100;" xml:space="preserve">
<g>
	<path d="M36.6,32.8c0.4-3.2-0.1-5.7-2.4-8.1c-7-7.2-4.8-19.2,4.2-23.6c2.3-1.1,3.3-0.5,3.3,2.1c0,3.1,0.1,6.2,0,9.3
		c-0.1,2,1.7,2.1,2.8,2.9c0.4,0.3,1.3-0.2,2-0.4c1.7-0.7,2.1-1.9,2-3.7c-0.2-2.8-0.1-5.7,0-8.5c0-2.1,1-2.7,2.9-1.9
		c9.1,4,11.8,16.3,4.9,23.6c-2.8,2.9-2.9,3.8-2.7,8.3c3.1,0,6.2,0.1,9.2-0.1c0.6,0,1.1-0.8,2-1.4c-0.6-0.1-0.8-0.1-1-0.1
		C60,31.1,60,31.1,60,27.5c0-1.3,0-2.6,0-3.8c0-2.1,0.5-2.5,2.5-2.5c0.5,0,1.1,0,1.7,0c-0.2-0.3-0.2-0.5-0.3-0.6
		c-2.5-2.8-2.5-2.8,0.2-5.5c0.8-0.8,1.6-1.7,2.5-2.5c1.5-1.5,2-1.5,3.6,0c0.4,0.4,0.8,0.7,1.3,1.2c0.1-0.3,0.2-0.4,0.2-0.5
		c0.1-3.8,0.1-3.8,3.8-3.8c1.2,0,2.3,0,3.5,0c2.3,0,2.7,0.4,2.7,2.7c0,0.4,0,0.9,0,1.8c0.8-0.8,1.3-1.3,1.8-1.8c1-1,1.9-1,2.9,0
		c1.3,1.3,2.7,2.7,4,4c1.4,1.4,1.3,1.9,0,3.3c-0.4,0.4-0.8,0.9-1.2,1.3c0.2,0.1,0.2,0.2,0.3,0.2c3.9,0,4,0.1,3.9,4
		c0,1.1,0,2.2,0,3.3c0,2.2-0.4,2.6-2.6,2.7c-0.5,0-1,0-1.5,0c-0.1,0.2-0.2,0.3-0.2,0.5c0.8,0.4,1.6,0.8,2.3,1.2
		c0.7,0.4,1.7,0.8,2,1.4c2.2,4.1,4.2,8.2,6.2,12.3c0.9,1.8,0.3,2.9-1.8,2.9c-1.4,0-2.8,0-4.3,0c0,6,0,12,0,18.1
		c0.3,0.1,0.6,0.2,1,0.3c2.7,0.8,4.5,2.6,4.9,5.5c0.4,3-0.8,5.3-3.4,6.9c-4.1,2.4-8.2,4.7-12.3,7.1c-5,2.9-10.1,5.8-15.1,8.7
		c-2.2,1.3-4.5,1.8-7,1.8c-7.6,0-15.2-0.1-22.8,0c-3.1,0-5.9-0.7-8.5-2.2C30.1,95.9,30,96,30,96.1c-0.1,3.5-0.1,3.5-3.7,3.5
		c-3.2,0-6.3,0-9.5,0c-3.3,0-3.3,0-3.7-3.3c-3.5,0-7,0-10.4,0c-2.3,0-2.7-0.4-2.7-2.7c0-7.1,0-14.2,0-21.3c0-2.3,0.4-2.7,2.7-2.7
		c3.5,0,7,0,10.6,0c0-0.7-0.2-1.3,0-1.6c0.4-0.7,1.1-1.6,1.7-1.6c4.4-0.1,8.8-0.1,13.2-0.1c1.1,0,1.7,0.7,1.8,1.8c0,0.8,0,1.7,0,2.5
		c0.3,0,0.6,0,0.8,0c2.6-0.5,2.6-0.5,2.6-3.1c0-5.9,0-11.8,0-17.8c-1.5,0-3,0-4.4,0c-2.1,0-2.8-1.1-1.9-2.9c2-4.1,4.2-8.2,6.1-12.4
		C34,32.7,35.2,32.8,36.6,32.8z M49.8,94.5c4.1,0,8.1,0.1,12.2,0c1.5-0.1,3.2-0.3,4.5-1.1c9.3-5.3,18.6-10.6,27.8-16
		c1.8-1.1,2.4-3.1,1.5-4.7c-1-1.6-3-2.1-4.8-1.1c-5.2,3-10.4,6-15.6,9c-0.4,0.3-0.9,0.9-0.9,1.3c-0.6,4.5-4,7.2-8.5,6.1
		c-6.5-1.6-12.9-3.5-19.4-5.2c-1.1-0.3-1.8-1-1.5-2.2c0.3-1.2,1.3-1.4,2.4-1.1c3.3,0.9,6.5,1.7,9.8,2.6c3.3,0.9,6.5,1.8,9.8,2.6
		c1.4,0.4,2.8,0,3.4-1.4c0.4-1,0.6-2.5,0.2-3.2c-0.6-0.9-1.9-1.7-3-2c-7.4-2.1-14.7-4.1-22.1-6c-1.7-0.4-3.5-0.9-5.2-0.6
		c-3.1,0.5-6.2,1.4-9.2,2.2c-0.4,0.1-1,0.9-1,1.3C30,80.5,30,85.7,30,90.9c0,0.4,0.2,1,0.5,1.1c2.3,1.2,4.5,2.6,7.3,2.5
		C41.8,94.4,45.8,94.5,49.8,94.5z M73.3,77.9c5.5-3.2,10.8-6.2,16.1-9.4c0.4-0.2,0.6-1,0.6-1.5c0.1-3.3,0-6.6,0-9.8
		c0-2.5,0-5.1,0-7.7c-0.8,0-1.4,0-2,0c-5.6,0-11.2-0.1-16.8,0c-1.6,0-2.6-0.5-3.2-2c-0.8-1.8-1.8-3.6-2.9-5.7c0,11,0,21.6,0,32.2
		C68,75,71.3,75,73.3,77.9z M61.6,73.1c0-10.3,0-20.6,0-30.8c-1.2,1.8-2.1,3.6-3,5.5c-0.6,1.2-1.4,1.7-2.7,1.7
		c-5.8-0.1-11.5,0-17.3,0c-0.6,0-1.2,0-1.9,0c0,6.3,0,12.4,0,18.5c0,0.3,0.1,0.5,0.1,1c3.3-1.2,6.5-0.9,9.8,0.1
		C51.6,70.6,56.6,71.8,61.6,73.1z M43.3,32.8c0-1.4,0-2.7,0-3.9c0-1.3,0-2.7,1.7-2.6c1.7,0,1.6,1.5,1.6,2.7c0,1.3,0,2.5,0,3.8
		c1.2,0,2.2,0,3.3,0c0-0.5,0-0.9,0-1.3c-0.3-3.6,0.8-6.6,3.5-9.1c2-1.8,2.9-4.3,3.1-7c0.2-4.2-1.3-7.6-4.9-10.4c0,1.8-0.2,3.2,0,4.6
		c0.7,4.4-0.9,7.2-4.9,9.1c-1.4,0.6-2.3,1-3.6,0c-1-0.8-2.1-1.5-3.2-2.1c-1.3-0.7-1.8-1.7-1.8-3.2c0.1-2.7,0-5.4,0-8.3
		c-0.5,0.4-0.8,0.6-1.1,0.8C32.2,10.3,32,18.1,37,22.9c2.1,2,3.1,4.4,3,7.3c0,0.9,0,1.7,0,2.6C41.2,32.8,42.1,32.8,43.3,32.8z
		 M16.8,69.6c0,8.9,0,17.7,0,26.5c3.4,0,6.6,0,9.8,0c0-8.9,0-17.6,0-26.5C23.3,69.6,20.1,69.6,16.8,69.6z M31.1,46.2
		c8.1,0,16,0,23.8,0c0.4,0,1-0.5,1.3-1c1-1.8,1.9-3.7,2.9-5.6c0.5-1,1-2.1,1.6-3.3c-8.1,0-15.8,0-23.6,0c-0.4,0-1,0.3-1.2,0.6
		C34.2,39.8,32.7,42.8,31.1,46.2z M66.1,36.3c1.5,3,2.9,5.8,4.2,8.6c0.5,1,1,1.3,2.2,1.3c7.2-0.1,14.3,0,21.5,0
		c0.5,0,0.9-0.1,1.6-0.1c-1.5-3-2.9-5.8-4.3-8.7c-0.4-0.9-1-1.3-2-1.2c-7.2,0.1-14.4,0-21.7,0C67.2,36.2,66.8,36.2,66.1,36.3z
		 M13.3,72.9c-3.4,0-6.6,0-9.9,0c0,6.7,0,13.2,0,19.8c3.4,0,6.6,0,9.9,0C13.3,86.1,13.3,79.6,13.3,72.9z M78.3,32.7
		c2.5,0,4.8,0,7.1,0c-0.2-0.3-0.2-0.4-0.4-0.5c-1-0.8-1.2-1.7-0.7-2.9c0.5-1.3,1.5-1.5,2.7-1.4c1,0.1,1.9,0,2.9,0c0-1.2,0-2.2,0-3.3
		c-1.2,0-2.3,0-3.4,0c-1.2,0.1-1.8-0.6-2.2-1.6c-0.4-1-0.3-1.8,0.5-2.5c0.8-0.7,1.7-1.5,2.6-2.3c-1-1-1.7-1.7-2.6-2.6
		c-0.8,0.9-1.6,1.7-2.3,2.5c-0.7,0.8-1.5,1-2.5,0.5c-1-0.4-1.7-1-1.6-2.2c0-1.1,0-2.3,0-3.4c-1.2,0-2.2,0-3.3,0c0,1.2,0,2.3,0,3.4
		c0.1,1.2-0.6,1.8-1.6,2.2c-1,0.4-1.8,0.3-2.5-0.5c-0.7-0.8-1.5-1.6-2.2-2.4c-1,0.9-1.8,1.6-2.7,2.4c0.7,0.6,1.2,1,1.7,1.5
		c1,1,2.1,1.8,1.4,3.5c-0.7,1.6-2,1.5-3.3,1.5c-0.8,0-1.5,0-2.3,0c0,1.2,0,2.2,0,3.3c1.2,0,2.3,0.1,3.4,0c1.5-0.1,2.3,0.9,2.3,2.1
		c0.1,1-0.6,1.9-0.9,3c1,0,2.1,0,3.2,0c1.1,0,2.2,0,3.3,0c-3.6-1.8-5.3-4.7-4.6-8c0.7-3.2,3.3-5.4,6.5-5.4c3.2,0,5.9,2.2,6.5,5.4
		C83.9,28.1,82.2,31,78.3,32.7z M76.7,29.5c1.8,0,3.3-1.5,3.3-3.3c0-1.8-1.5-3.4-3.4-3.4c-1.8,0-3.3,1.5-3.3,3.3
		C73.3,28,74.9,29.5,76.7,29.5z"/>
</g>
</svg>
