<?xml version="1.0" encoding="utf-8"?>
<!-- Generator: Adobe Illustrator 25.0.0, SVG Export Plug-In . SVG Version: 6.00 Build 0)  -->
<svg version="1.1" id="Layer_1" xmlns="http://www.w3.org/2000/svg" xmlns:xlink="http://www.w3.org/1999/xlink" x="0px" y="0px"
	 viewBox="0 0 100 100" style="enable-background:new 0 0 100 100;" xml:space="preserve">
<g>
	<path d="M46.9,2.9c0.9,0.9,1.6,1.6,2.2,2.4c5.2,6.6,2.4,15.7-5.7,18.9c-1.3,0.5-2.8,1-4.2,1c-3.2,0-6,1.2-8.9,2
		c-0.8,0.2-2,0.3-2.4-0.2c-0.4-0.4-0.3-1.6-0.1-2.4c0.5-1.6,0.5-2.7-0.8-4.1C22.4,15.9,22.7,9,27.2,4.3c0.4-0.4,0.9-0.6,1.4-0.9
		c-0.1-0.2-0.2-0.3-0.3-0.5c-3.3,0-6.5,0-9.8,0c-0.3,0-0.9,0.7-0.9,1.1c-0.1,1.1-0.1,2.3,0,3.4c0,1-0.4,1.7-1.4,1.7
		c-1.1,0-1.4-0.7-1.4-1.6c0-1.4,0-2.8,0-4.2c0.1-1.8,1.3-3,3-3.2c0.5-0.1,0.9,0,1.4,0c20.6,0,41.1,0,61.7,0c3.5,0,4.5,1,4.5,4.6
		c0,15.3,0,30.6,0,45.9c0,3.4-1.1,4.5-4.5,4.5c-1.7,0-3.4,0-5.2,0c-1.5,0-1.9,0.7-1.6,2.1c0.2,0.7,0.4,1.4,0.6,2.1
		c0.4,1.6-0.3,2.5-2,2.1c-1.9-0.5-3.8-1.2-5.7-1.6c-2-0.4-4.1-0.3-5.9-1c-2.2-0.7-4.2-2-6.2-3c-0.5-0.2-1-0.6-1.5-0.7
		c-8.5,0-17,0-25.4,0c-0.1,0-0.2,0.1-0.5,0.2c0,0.5,0,1,0,1.6c0,4.4-0.1,8.7,0,13.1c0.2,4.9-1.3,8.9-5.6,11.7
		c0.8,0.6,1.6,1.1,2.2,1.7c2.5,2.2,3.9,5,4.2,8.3c0.2,2.2,0.1,4.5,0.1,6.7c0,1.1-0.7,1.7-1.8,1.7c-7,0-13.9,0-20.9,0
		c-0.9,0-1.8-0.3-1.8-1.3c0-3.1-0.1-6.2,0.4-9.2c0.6-3.4,2.9-5.9,5.8-7.7c0-0.1,0-0.2-0.1-0.3c-3.9-2.7-5.5-6.5-5.4-11.3
		c0.1-5.5,0.1-10.9,0-16.4c-0.1-4.8,1.6-8.5,5.8-11.2c-0.4-0.3-0.7-0.6-1-0.9c-3-2.6-4.4-6-3.6-9.9c0.8-4.2,3.3-7,7.4-8.2
		c1.2-0.3,1.5-0.9,1.5-2c-0.1-2.2,0-4.5,0-6.7c0-1,0.3-1.8,1.5-1.7c1.1,0,1.4,0.8,1.4,1.7c0,2.4,0,4.8,0,7.2c0,0.8,0.1,1.2,1,1.4
		c4.1,1.1,6.8,3.7,7.8,7.9c1,4.4-0.5,8.1-4.1,10.8c-0.1,0.1-0.2,0.2-0.4,0.4c3.4,2.2,5.4,5.3,5.8,9.3c8.1,0,16.1,0,24.2,0
		c-2.7-6.9-0.8-12.4,5.5-16.2c5.1-3.1,12-2.4,16.6,1.3c4.5,3.7,5.6,8.2,3.5,14.9c1.5,0,2.9,0,4.4,0c0.3,0,0.6-0.5,0.8-0.9
		c0.1-0.1,0-0.2,0-0.3c0-15.6,0-31.1,0-46.7c0-1.2-0.6-1.2-1.5-1.2c-5,0-10,0-15,0c-5.8,0-11.6,0-17.3,0C48.1,2.9,47.6,2.9,46.9,2.9
		z M71.4,57.7c-1.4-2.2-0.4-3.3,1-4.6c4.1-3.6,4.1-9.3,0.2-13.1c-4.5-4.4-12.3-4.3-16.6,0.2c-2.1,2.2-3.2,4.8-2.5,7.8
		c0.9,4.1,4.3,7.2,8.5,7.9c2.6,0.4,5.2,0.9,7.8,1.4C70.2,57.4,70.6,57.5,71.4,57.7z M31,23.7c0.3,0,0.5,0,0.7,0
		c2.6-0.9,5.1-1.6,7.9-1.5c0.8,0,1.6-0.3,2.4-0.6c5.9-2.2,8.5-8.5,5.4-13.5c-2.2-3.5-5.6-5-9.6-5.1c-4.6-0.2-9,2.6-10.5,6.5
		c-1.3,3.4-0.6,7.9,3.5,10.8c0.4,0.3,0.6,1.2,0.6,1.9C31.5,22.6,31.2,23.1,31,23.7z M7.6,63.9c5.7-4.7,11.2-4.7,16.8-0.1
		c0-4,0.1-7.8,0-11.6c-0.2-4.7-3.7-8.1-8.2-8.2C11.8,44,8,47.3,7.7,51.9C7.4,55.8,7.6,59.7,7.6,63.9z M6.9,97c6.1,0,12.2,0,18.4,0
		c0-1.7,0-3.3,0-4.9c-0.2-6.4-7-10.7-12.9-8.1C7.4,86.1,6,90.6,6.9,97z M16.1,63.3c-4.7,0-8.5,3.7-8.6,8.3c-0.1,4.5,3.8,8.5,8.4,8.6
		c4.6,0.1,8.4-3.7,8.5-8.4C24.5,67.2,20.8,63.4,16.1,63.3z M8.5,33.6c0,4.1,3.5,7.6,7.6,7.6c4.1,0,7.6-3.5,7.6-7.6
		c0-4.1-3.5-7.5-7.6-7.5C11.9,26.1,8.5,29.5,8.5,33.6z"/>
	<path d="M44.1,81.7c-7.4-5.3-6.3-13.5-2.6-17.5c4.4-4.8,11.7-5.1,16.3-0.6c2.7,2.6,3.7,5.8,3.4,9.5c-0.4,3.7-2.4,6.4-5.4,8.6
		c3.2,2,5.6,4.6,6.1,8.2c0.4,2.9,0.3,5.9,0.3,8.9c0,1.1-1.1,1.2-2,1.2c-6,0-12.1,0-18.1,0c-4.8,0-4.4,0.2-4.3-4.3
		c0.1-2.5,0.1-5,0.8-7.4C39.3,85.4,41.4,83.3,44.1,81.7z M40.4,96.9c6.6,0,12.7,0,18.9,0c0-1.8,0.1-3.5,0-5.1
		c-0.4-4.7-3.8-8.1-8.5-8.7c-4-0.5-8.4,2.2-9.6,6.4C40.5,91.9,40.6,94.4,40.4,96.9z M50.1,63.3c-4.7,0-8.5,3.7-8.5,8.3
		c-0.1,4.7,3.8,8.6,8.4,8.6c4.6,0,8.4-3.8,8.5-8.4C58.4,67.2,54.7,63.4,50.1,63.3z"/>
	<path d="M74.6,97.1c1.3,0,2.3-0.2,3.3,0.1c0.6,0.1,1.4,0.8,1.5,1.3c0.2,0.9-0.6,1.5-1.5,1.5c-1.6,0-3.1,0.1-4.7-0.1
		c-0.6-0.1-1.6-0.9-1.6-1.4c-0.1-2.4-0.2-4.9,0.1-7.3c0.5-4.2,2.3-6.7,6.3-9.5c-3.6-2.5-5.7-5.9-5.5-10.4c0.1-3.1,1.4-5.7,3.6-7.9
		c4.6-4.3,11.9-4,16.1,0.7c4.8,5.2,3.8,11.9-2.5,17.6c3.5,2.2,5.8,5.2,6.2,9.3c0.2,2.4,0.1,4.9,0.1,7.3c0,1.1-0.6,1.6-1.7,1.6
		c-3.1,0-6.1,0-9.2,0c-1,0-1.8-0.4-1.7-1.5c0-1,0.8-1.4,1.7-1.3c2.6,0,5.2,0,7.8,0c1-6.5-0.5-11-5.5-13.2
		c-5.9-2.6-12.7,1.7-12.9,8.1C74.6,93.6,74.6,95.3,74.6,97.1z M83.9,63.3c-4.7,0-8.4,3.7-8.4,8.4c0,4.6,3.8,8.5,8.4,8.5
		c4.6,0,8.5-3.9,8.5-8.5C92.4,67.2,88.5,63.4,83.9,63.3z"/>
	<path d="M66.8,47.2c-1.1,0.7-1.8,1.5-2.5,1.4c-0.6-0.1-1.4-1-1.5-1.6c-0.1-0.9,0.7-1.7,1.7-1.5C65.3,45.6,65.8,46.3,66.8,47.2z"/>
	<path d="M56.6,46.7c0.6-0.4,1.1-1.1,1.7-1.3c1-0.2,1.7,0.4,1.7,1.5c0,1-0.6,1.8-1.6,1.6c-0.6-0.1-1.2-0.8-1.8-1.2
		C56.6,47.2,56.6,47,56.6,46.7z"/>
	<path d="M72.4,47.4c-0.6,0.4-1.3,1.2-1.9,1.2c-0.5,0-1.3-0.9-1.5-1.5c-0.2-1,0.6-1.7,1.6-1.6c0.6,0.1,1.2,0.8,1.8,1.2
		C72.4,46.9,72.4,47.1,72.4,47.4z"/>
	<path d="M45.6,13.6c-0.6,0.4-1.2,1-1.8,1.1c-1,0.1-1.6-0.6-1.6-1.7c0.1-1,0.7-1.6,1.6-1.4c0.7,0.1,1.2,0.8,1.8,1.2
		C45.6,13.1,45.6,13.3,45.6,13.6z"/>
	<path d="M35.9,12.7c0.6-0.4,1.3-1.1,1.8-1.1c0.6,0.1,1.4,0.9,1.6,1.5c0.2,1-0.6,1.7-1.6,1.6c-0.6-0.1-1.2-0.8-1.8-1.2
		C35.9,13.2,35.9,13,35.9,12.7z"/>
	<path d="M33.5,13.4c-0.6,0.4-1.1,1.1-1.8,1.3c-1,0.2-1.8-0.6-1.6-1.5c0.1-0.6,0.9-1.4,1.5-1.5c0.5-0.1,1.2,0.7,1.8,1
		C33.5,13,33.5,13.2,33.5,13.4z"/>
</g>
</svg>
