<?xml version="1.0" encoding="utf-8"?>
<!-- Generator: Adobe Illustrator 25.0.0, SVG Export Plug-In . SVG Version: 6.00 Build 0)  -->
<svg version="1.1" id="Layer_1" xmlns="http://www.w3.org/2000/svg" xmlns:xlink="http://www.w3.org/1999/xlink" x="0px" y="0px"
	 viewBox="0 0 100 100" style="enable-background:new 0 0 100 100;" xml:space="preserve">
<g>
	<path d="M89.1,55.5c1.3,0,2.2,0,3.4,0c0-1.1,0-2.1,0-3.2c0-3.3,2.9-5.2,6.6-4.4c0.4,0.1,1,1,0.9,1.4c-0.1,0.5-0.7,1.1-1.2,1.3
		c-1,0.4-2.5,0.2-2.9,0.9c-0.6,0.9-0.3,2.4-0.4,3.6c0,0.1,0.1,0.2,0.1,0.5c0.9,0,1.9,0,2.8,0c1,0,1.6,0.5,1.6,1.5
		c0,1-0.7,1.5-1.7,1.4c-2.7,0-5.3,0-8,0c-2.5,0-2.8,0.3-2.8,2.9c0,1.1,0,2.3,0,3.6c1.2,0,2.2,0,3.3,0c2.5,0.1,4.5,1.9,4.5,4.4
		c0.1,5.8,0.1,11.7,0,17.5c0,2.6-1.9,4.4-4.5,4.5c-3.7,0.1-7.4,0.1-11.1,0c-2.6-0.1-4.3-1.8-4.5-4.4c0-0.5-0.1-1-0.1-1.7
		c-1.1,0-2.1,0-3.1,0c-0.1,0.1-0.1,0.2-0.2,0.3c-0.3,4.7-1.6,5.9-6.3,5.9c-2.7,0-5.4,0-8.1,0c-4.1,0-5.6-1.4-5.8-5.4
		c0-0.2-0.1-0.4-0.1-0.7c-1,0-1.9,0-3.1,0c-0.1,0.6-0.1,1.3-0.2,1.9c-0.3,2.5-2,4.1-4.4,4.2c-3.6,0.1-7.3,0.1-10.9,0
		c-2.9,0-4.6-1.9-4.8-4.7c0-0.5,0-0.9-0.1-1.4c-1.1,0-2,0-3.1,0c-0.1,0.7-0.1,1.3-0.2,2c-0.2,2.3-1.9,4.1-4.1,4.1
		c-3.9,0.1-7.8,0.1-11.7,0c-2.4-0.1-4.2-2-4.2-4.4c-0.1-5.8-0.1-11.7,0-17.5c0-2.6,2-4.4,4.7-4.5c1,0,2,0,3.1,0c0-1.7,0-3.2,0-4.8
		c0-1.2-0.9-1.7-2-1.7c-2.8,0-5.5,0-8.3,0c-1.1,0-2.1-0.1-2.1-1.4c0-1.3,1-1.5,2.1-1.5c0.8,0,1.6,0,2.5,0c0-1.2,0.2-2.4-0.1-3.4
		c-0.1-0.6-0.9-1.1-1.4-1.4c-0.4-0.2-0.9-0.1-1.4-0.1c-1.1,0-1.8-0.4-1.7-1.5c0-1,0.7-1.3,1.7-1.4c3.8-0.3,6.2,2,5.8,5.5
		c-0.1,0.7,0,1.4,0,2.3c1.2,0,2.2,0,3.4,0c0-1,0-1.9,0-2.8c0.1-3,1.9-4.9,4.9-4.9c2.4,0,4.8,0,7.2,0c3.1,0,4.8,1.8,5,4.8
		c0,0.9,0,1.9,0,2.9c1.1,0,2.1,0,3.3,0c0-0.9,0-1.8,0-2.7c0.1-3.2,1.9-5,5.1-5c2.3,0,4.7,0,7,0c3,0,4.8,1.8,5,4.8c0,0.9,0,1.9,0,2.9
		c1.1,0,2.1,0,3.3,0c0-0.9,0-1.7,0-2.6c0.1-3.3,1.8-5.1,5.1-5.2c2.3,0,4.7,0,7,0c3,0,4.8,1.9,4.9,4.9c0,0.9,0,1.9,0,2.9
		c1.1,0,2,0,3.2,0c0-0.7,0.1-1.5,0.1-2.3c0-3.8,1.7-5.5,5.4-5.5c2.2,0,4.5,0,6.7,0c3,0,4.8,1.9,4.9,4.9
		C89.1,53.6,89.1,54.5,89.1,55.5z M75.2,82.1c0-0.6,0-1.2,0-1.8c0-3.4,0-6.8,0-10.2c0-2.1,0.7-3.6,2.5-4.7c0.3-0.2,0.6-0.7,0.7-1.1
		c0.1-1.3,0.1-2.7,0-4.1c0-1.1-0.6-1.8-1.7-1.8c-3.1,0-6.2-0.1-9.4,0.1c-0.5,0-1.4,0.8-1.5,1.2c-0.2,1.7-0.1,3.4-0.1,5.1
		c0.6,0,1,0,1.4,0c2.7,0.1,4.6,1.8,4.7,4.4c0.1,1.6,0.1,3.1,0,4.7c0,0.9-0.4,1.6-1.5,1.6c-1.1,0-1.4-0.8-1.4-1.7c0-1.3,0-2.6,0-3.9
		c0-1.6-0.6-2.2-2.2-2.2c-3.3,0-6.7,0-10,0c-1.6,0-2.1,0.5-2.1,2.2c0,2.5,0,5,0,7.5c0,1.5,0,3,0,4.4c4.9,0,9.5,0,14.2,0
		c0.2-1.2-0.3-3,1.6-2.9c1.8,0,1.3,1.8,1.5,3C73,82.1,73.9,82.1,75.2,82.1z M15.4,65c1.7,0,3.2,0,4.7,0c2.7,0.1,4.5,1.8,4.7,4.5
		c0.1,1.6,0,3.1,0,4.7c0,2.6,0,5.3,0,8c1.2,0,2.2,0,3.3,0c0-3.9,0-7.8,0-11.6c0-3.7,1.7-5.4,5.4-5.5c0.2,0,0.5-0.1,0.9-0.1
		c0-1.5,0-2.9,0-4.3c0-1.4-0.7-2.1-2.1-2.1c-2.8,0-5.6,0-8.4,0c-1.2,0-2,0.5-2.2,1.7c-0.2,1-0.7,1.6-1.7,1.4c-1.1-0.2-1.3-1.1-1.2-2
		c0.3-2.2,2.1-3.8,4.4-3.9c0.6,0,1.1,0,1.8,0c0-1.1,0-2,0-3c0-1.3-0.7-1.9-1.9-1.9c-2.4,0-4.9-0.1-7.3,0.1c-0.6,0-1.7,0.8-1.8,1.3
		c-0.1,1.9-0.8,4,0.7,5.8c0.5,0.6,0.6,1.6,0.6,2.5C15.5,61.8,15.4,63.3,15.4,65z M7.5,82.1c4.9,0,9.5,0,14.3,0c0-4.2,0-8.4,0-12.6
		c0-1.1-0.8-1.6-1.9-1.6c-3.4,0-6.9,0-10.3,0c-1.4,0-2.1,0.8-2.1,2.1c0,1.3,0,2.5,0,3.8C7.5,76.6,7.5,79.3,7.5,82.1z M92.4,82.1
		c0-4.2,0-8.3,0-12.4c0-1.3-0.8-1.9-2-1.9c-3.4,0-6.8,0-10.2,0c-1.6,0-2.1,0.6-2.1,2.2c0,2.5,0,4.9,0,7.4c0,1.5,0,3.1,0,4.6
		C83,82.1,87.6,82.1,92.4,82.1z M45.4,82.1c0-4.2,0-8.3,0-12.3c0-1.4-0.9-1.9-2.1-1.9c-3.3,0-6.6,0-9.8,0c-1.8,0-2.3,0.5-2.3,2.4
		c0,2.3,0,4.7,0,7c0,1.6,0,3.2,0,4.8C35.9,82.1,40.6,82.1,45.4,82.1z M56.3,64.8c0-1.6,0-3.1,0-4.6c0-1.1-0.7-1.7-1.8-1.7
		c-3,0-6,0-9,0c-1,0-1.7,0.5-1.8,1.6c-0.1,1.6,0,3.2,0,4.7c3.5,0.8,4.7,2.3,4.7,5.7c0,1.8,0,3.6,0,5.5c0,2,0,4,0,6
		c1.2,0,2.2,0,3.3,0c0-3.9,0-7.7,0-11.5C51.7,67.1,52.8,65.7,56.3,64.8z M75.2,55.5c4.8,0.3,6.1,1.6,6.1,6.4c0,1,0,2,0,3
		c1.2,0,2.2,0,3.4,0c0-1.5,0-2.9,0-4.3c0-0.8,0-1.8,0.5-2.4c1.4-1.7,1.1-3.6,1.1-5.5c0-1.4-0.7-2.1-2.1-2.1c-1.7,0-3.3,0-5,0
		c-4.3-0.1-4.2,0.2-4,4.5C75,55.2,75.1,55.3,75.2,55.5z M45.4,55.4c0-0.9,0-1.6,0-2.4c0-1.8-0.5-2.3-2.3-2.3c-1.9,0-3.7,0-5.6,0
		c-3,0-3.2,0.2-3.2,3.2c0,0.7,0.1,1.8,0.6,2.1c1.8,1.3,2.6,2.9,2.5,5c0,1.3,0,2.6,0,3.9c1.2,0,2.2,0,3.3,0c0-1.3,0-2.4,0-3.6
		C40.7,57.7,41.8,56.3,45.4,55.4z M62.6,64.9c0-1.5,0-2.9,0-4.3c0-1.5,0.2-3,1.5-3.7c1.9-1,1.6-2.6,1.6-4.2c0-1.3-0.7-2-2.1-2
		c-1.7,0-3.3,0-5,0c-3.6,0-4.5-0.6-4,4.7c3.6,1,4.6,2.3,4.6,6.1c0,1.1,0,2.2,0,3.4C60.5,64.9,61.4,64.9,62.6,64.9z M21.8,85.3
		c-4.7,0-9.4,0-14,0c-0.4,2.6,0.1,3.2,2.5,3.2c3,0,5.9,0,8.9,0C21.7,88.5,22,88,21.8,85.3z M92.3,85.2c-4.7,0-9.4,0-14,0
		c-0.4,2.7,0.1,3.2,2.6,3.2c3,0,5.9,0,8.9,0C92.1,88.5,92.6,87.9,92.3,85.2z M31.3,85.2c-0.5,2.5,0,3.2,2.3,3.2c3,0,6,0,9,0
		c2.5,0,3-0.6,2.5-3.2C40.6,85.2,35.9,85.2,31.3,85.2z M54.8,85.2c-0.4,2.7,0,3.2,2.6,3.2c3,0,6,0,9,0c2.3,0,2.9-0.8,2.2-3.2
		C64.1,85.2,59.5,85.2,54.8,85.2z"/>
	<path d="M76.8,16.8c-1.4,0.3-2.6,0.7-3.7,0.7c-2.4,0-4.7-0.1-7.1-0.3c-0.8-0.1-1.4-0.1-2,0.6c-7.9,8.5-19.9,8.4-27.9,0
		c-0.3-0.4-1.1-0.7-1.5-0.6C31,18,27.6,18,24.2,16.9c-0.2-0.1-0.5-0.1-0.9-0.1c0,0.7,0,1.3,0,1.9c0,3.1-0.1,6.3,0,9.4
		c0.1,3.1-1,5.7-3.7,7.3c-2.1,1.3-3.1,2.9-2.6,5.4c0.1,0.7,0.2,1.5-0.1,2.2c-0.2,0.6-0.9,1.3-1.3,1.3c-0.5,0-1.1-0.7-1.5-1.2
		C13.9,42.8,14,42.3,14,42c0-10.3,0-20.6,0-31c0-2.1,0.3-2.5,2.4-2.5c22.4,0,44.7,0,67.1,0c2,0,2.4,0.3,2.4,2.3
		c0,10.4,0,20.7,0,31.1c0,0.4,0.1,1-0.1,1.2c-0.4,0.5-1,1.1-1.5,1.1c-0.5,0-1.2-0.7-1.3-1.2c-0.2-1.4,0-2.9-0.1-4.4
		c-0.1-0.7-0.6-1.4-1-2c-0.4-0.5-1-0.9-1.6-1.2c-2.5-1.7-3.7-4.1-3.6-7.2C76.8,24.5,76.8,20.7,76.8,16.8z M64.2,11.6
		c-3-0.4-3-0.4-4.8,1.8c-4.8,5.7-14.1,5.8-18.8-0.1c-1.5-1.9-3-2-4.9-1.7c1.6,5.3,8.1,9.5,14.3,9.5C56.3,21,62.8,16.7,64.2,11.6z
		 M17.1,33.4c2.3-1.1,3.2-2.5,3.2-4.8c0-3.6,0-7.2,0-10.8c0-2.7-0.6-3.5-3.2-4.5C17.1,20,17.1,26.7,17.1,33.4z M82.9,13.1
		c-1,0.7-2,1.3-2.8,2c-0.3,0.2-0.4,0.7-0.4,1.1c0,4.3-0.1,8.6,0,13c0,2.1,1.3,3.6,3.2,4.2C82.9,26.6,82.9,19.9,82.9,13.1z
		 M43.1,11.6c3.6,4.8,11.6,3.7,13.6,0C52.2,11.6,47.8,11.6,43.1,11.6z M20.5,11.6c2.3,2.7,9.8,4.2,13,2.5c-0.4-0.8-0.7-1.7-1.1-2.5
		C28.4,11.6,24.5,11.6,20.5,11.6z M79.4,11.5c-3.1,0-6.1,0.2-9.2-0.1c-2.1-0.2-3.2,0.5-3.6,2.5c0,0.1,0,0.2,0,0.4
		C71.3,15.4,75.6,14.6,79.4,11.5z"/>
</g>
</svg>
