<?xml version="1.0" encoding="utf-8"?>
<!-- Generator: Adobe Illustrator 25.0.0, SVG Export Plug-In . SVG Version: 6.00 Build 0)  -->
<svg version="1.1" id="Layer_1" xmlns="http://www.w3.org/2000/svg" xmlns:xlink="http://www.w3.org/1999/xlink" x="0px" y="0px"
	 viewBox="0 0 100 100" style="enable-background:new 0 0 100 100;" xml:space="preserve">
<g>
	<path d="M85.9,54c-0.5,0.8-1,1.3-1.1,1.9c-0.9,4.7-3.6,8.3-7.2,11.3c-0.8,0.7-1.1,1.3-0.6,2.4c1.1,2.8,0,5.2-3.2,7.3
		c1.1,1.6,1.8,3.4,1.1,5.2c-0.4,1.1-1.2,2.3-2.1,3.1c-2.4,1.9-5,1.4-8.1-1.3c-1.1,1.9-2.4,3.3-4.8,3.5c-2.2,0.2-3.9-0.8-5.3-2.4
		c-3.4,4.7-5.8,4.8-11.2,0.4c-1.5,1.9-3.3,3.5-6,3.2c-2.6-0.3-4.2-2-5-4.4c-4.5-0.2-5.4-0.8-7.1-4.4c-5.2,0-7.3-2.3-6.8-7.7
		c-2.6-1.1-4.1-2.9-4.1-5.9c0.1-2.9,2.4-4.3,3.7-6c-1.3-3.2-2.5-6.3-3.9-9.8c-0.9,1-1.5,1.7-2.1,2.3c-0.9,1-1.9,1.1-2.9,0.1
		c-2.8-2.9-5.6-5.8-8.5-8.6c-1.2-1.2-0.8-2.1,0.2-3.2c6.6-6.7,13.2-13.4,19.8-20.1c2.9-2.9,5.7-5.8,8.6-8.7c1.4-1.4,2.1-1.4,3.5,0
		c2.6,2.6,5.1,5.2,7.7,7.8c1.7,1.7,1.7,2.2-0.1,4c-0.5,0.4-1.1,0.7-1.6,1c0.1,0.2,0.2,0.4,0.3,0.7c0.5,0.2,1,0.5,1.5,0.7
		c1.4,0.3,2.9,0.5,4.3,0.7c2.3,0.3,4.2,1.5,6,2.9c0.9,0.7,1.7,1,2.9,0.6c1.7-0.5,3.5-0.6,5.2-1c0.6-0.1,1.1-0.4,2-0.7
		c-0.9-1-1.5-1.6-2.2-2.3c-0.9-0.9-0.9-1.8,0-2.7c2.9-3,5.8-5.9,8.7-8.8c1.1-1.2,2.1-0.6,3,0.3c5.8,5.9,11.6,11.8,17.4,17.7
		c3.7,3.7,7.3,7.4,11,11.1c1.4,1.5,1.5,2,0,3.5c-2.6,2.7-5.3,5.4-7.9,8c-1.4,1.4-2.1,1.4-3.5,0C87,55.3,86.5,54.7,85.9,54z M51.5,66
		c-0.1,0.2-0.2,0.4-0.2,0.6c4.2,3.9,8.3,7.8,12.5,11.7c1.4,1.3,2.7,2.8,4.1,4.1c1.1,1,2.4,1,3.3,0c0.9-0.9,1-2.2,0.1-3.4
		c-0.3-0.4-0.7-0.8-1.1-1.2c-3.1-3.2-6.2-6.4-9.4-9.5c-2-1.9-4.1-3.7-6.1-5.5c0.2-0.1,0.4-0.3,0.6-0.4c0.7-0.7,1.3-1.5,2.3-2.5
		c0.7,0.8,1.2,1.5,1.8,2.2c3.6,3.7,7.1,7.3,10.7,10.9c1,1,2.4,1,3.3,0.2c1-0.9,1.1-2.2,0.2-3.3c-0.3-0.4-0.6-0.7-1-1.1
		C65.8,61.9,58.9,55,52.1,48c-0.6-0.6-1.1-1.3-1.5-1.9c-1.8,1.1-3.1,2.1-4.6,2.7c-2,0.8-4.1,1.4-6.3,1.8c-1.1,0.2-2.3-0.3-3.4-0.7
		c-2.8-1.2-3.4-4.1-1.2-6.3c1.8-1.8,4-3.2,6.1-4.7c2.7-2,5.4-3.8,8.2-5.8c-1.7-1.5-3.4-2.4-5.5-2.8c-2.4-0.4-5.2,0.1-6.5-1.7
		c-7,6.7-14,13.3-20.7,19.7c0.8,1.7,1.4,2.9,1.9,4.3c0.5,1.2,0.7,2.6,1.3,3.8c0.4,0.8,1.2,1.8,1.9,1.9c4.5,0.4,5.9,1.4,6.7,5.7
		c3.4,0.4,5.3,2.3,5.7,5.7c3.4,0.5,5.4,2.3,5.6,5.8c3.8,0.7,5.8,2.8,5.7,6.1c-0.1,1.5,1.9,3.9,3.5,4c1.3,0.1,2.4-0.5,2.4-1.8
		c0-0.9-0.4-2-1-2.7c-2.1-2.4-4.4-4.6-6.5-6.7c0.7-0.9,1.4-1.7,2.2-2.6c1.3,1.4,2.5,2.6,3.7,3.8c2.6,2.7,5.2,5.3,7.7,8
		c0.9,0.9,2,1.1,3.1,0.5c1.1-0.6,1.3-1.7,1-2.8c-0.2-0.6-0.7-1.1-1.1-1.5c-3.7-3.8-7.4-7.5-11-11.3C50.1,67.5,50.8,66.8,51.5,66z
		 M83.4,51.3c-6.7-6.4-13.6-13.1-20.6-19.8c-0.9,1.5-2.8,1.3-4.5,1.7c-2,0.5-4.2,0.7-5.9,1.7c-4.6,2.9-9,6.2-13.5,9.4
		c-0.8,0.5-1.5,1.1-2.3,1.7c1.7,1.6,3.2,1.8,4.5,1.1c2.7-1.3,5.4-2.8,8-4.3c1.5-0.9,2-0.9,3.1,0.4c0.6,0.7,1.2,1.4,1.8,2.1
		c6.3,6.5,12.7,12.9,19,19.3c0.4,0.4,0.5,1,0.8,1.6c3.4-3.5,6.8-6,7.6-10.5C81.7,54.4,82.6,53.2,83.4,51.3z M62,25.3
		c9.2,9.3,18.2,18.5,26.9,27.3c2.4-2.3,4.7-4.4,7.1-6.7c-9.1-9.2-18.1-18.3-27-27.4C66.6,20.9,64.4,23,62,25.3z M30.9,15.4
		c-9,9.1-18,18.3-27,27.5c2.4,2.3,4.7,4.5,7,6.7c8.9-9.1,17.9-18.2,27-27.4C35.5,19.8,33.3,17.6,30.9,15.4z M31.1,69.4
		c-0.6-0.7-1.1-1.7-1.9-2c-0.7-0.2-2,0-2.6,0.5c-1.6,1.4-3,2.9-4.4,4.5c-1.1,1.2-1,2.7-0.1,3.6c1.1,1,2.5,0.9,3.7-0.4
		c1.3-1.4,2.7-2.8,3.9-4.2C30.3,70.9,30.6,70.2,31.1,69.4z M36.7,75.1c-0.6-0.7-1-1.7-1.7-1.9c-0.8-0.2-2-0.1-2.6,0.4
		c-1.2,0.9-2.2,2.2-3.2,3.4c-1,1.1-0.9,2.6,0.1,3.5c0.9,0.9,2.5,0.8,3.5-0.2c1.1-1.1,2.1-2.2,3-3.3C36.1,76.5,36.3,75.9,36.7,75.1z
		 M25.3,63.5c-0.5-0.6-0.9-1.5-1.5-1.8c-0.7-0.3-1.9-0.3-2.5,0.2c-1.2,1-2.3,2.2-3.3,3.5c-0.8,1.1-0.5,2.3,0.5,3.1
		c1,0.8,2.1,0.8,3-0.2c1-1,2-2.1,3-3.2C24.9,64.8,25,64.3,25.3,63.5z M37.6,85.5c2.3-0.4,3.2-1.9,4.2-3.2c0.8-1.1,0.5-2.3-0.5-3.1
		c-1-0.8-2.1-0.8-3.1,0.1c-0.7,0.7-1.6,1.4-2,2.2c-0.4,0.8-0.5,1.9-0.2,2.6C36.1,84.8,37.1,85.2,37.6,85.5z"/>
</g>
</svg>
