<?xml version="1.0" encoding="utf-8"?>
<!-- Generator: Adobe Illustrator 25.0.0, SVG Export Plug-In . SVG Version: 6.00 Build 0)  -->
<svg version="1.1" id="Layer_1" xmlns="http://www.w3.org/2000/svg" xmlns:xlink="http://www.w3.org/1999/xlink" x="0px" y="0px"
	 viewBox="0 0 250 250" style="enable-background:new 0 0 250 250;" xml:space="preserve">
<style type="text/css">
	.st0{clip-path:url(#SVGID_2_);fill:#FFFCF9;}
	.st1{clip-path:url(#SVGID_2_);fill:#FFB56C;}
	.st2{clip-path:url(#SVGID_2_);}
	.st3{fill:#FEEEE7;}
	.st4{fill:#EF476F;}
	.st5{fill:#88291F;}
	.st6{fill:#06B3D6;}
	.st7{fill:#C94337;}
	.st8{fill:#387BA4;}
	.st9{fill:#999B7E;}
	.st10{fill:#F69220;}
	.st11{fill:#FFFFFF;}
</style>
<g>
	<defs>
		<circle id="SVGID_1_" cx="125" cy="125" r="125"/>
	</defs>
	<clipPath id="SVGID_2_">
		<use xlink:href="#SVGID_1_"  style="overflow:visible;"/>
	</clipPath>
	<circle class="st0" cx="125" cy="125" r="125"/>
	<circle class="st1" cx="225.1" cy="71.3" r="21.8"/>
	<circle class="st1" cx="168.6" cy="18.8" r="15.3"/>
	<circle class="st1" cx="47.2" cy="152.8" r="15.3"/>
	<circle class="st1" cx="200.4" cy="162.8" r="15.3"/>
	<g class="st2">
		<g>
			<rect x="56.4" y="132.4" class="st3" width="137.2" height="117.2"/>
			<rect x="51.8" y="125" class="st4" width="146.4" height="3.7"/>
			<rect x="56.4" y="128.7" class="st5" width="137.2" height="3.7"/>
		</g>
		<g>
			<path class="st6" d="M181.3,224.8c-3.9,0-7,3.1-7,7v17.7h14v-17.7C188.3,228,185.2,224.8,181.3,224.8z"/>
			<path class="st4" d="M188.3,232h-2c-0.3-2.5-2.4-4.5-5-4.5c-2.6,0-4.7,2-5,4.5h-2.1v0.9h6.6v16.7h0.9v-16.7h6.6V232z M177.3,232
				c0.3-2,2-3.5,4-3.5c2.1,0,3.8,1.5,4,3.5H177.3z"/>
			<g>
				<rect x="182.8" y="237.7" class="st7" width="0.4" height="3"/>
				<rect x="179.4" y="237.7" class="st7" width="0.4" height="3"/>
			</g>
		</g>
		<g>
			<g>
				<g>
					<g>
						<g>
							<g>
								<rect x="161.1" y="229.5" class="st6" width="7.5" height="13.5"/>
								<polygon class="st8" points="168.6,243 161.1,243 168.6,229.5 								"/>
							</g>
						</g>
					</g>
				</g>
				<rect x="161.1" y="243" class="st9" width="7.5" height="0.8"/>
			</g>
		</g>
		<g>
			<g>
				<g>
					<g>
						<g>
							<g>
								<rect x="161.1" y="182" class="st6" width="7.5" height="13.5"/>
								<polygon class="st8" points="168.6,195.6 161.1,195.6 168.6,182 								"/>
							</g>
						</g>
					</g>
				</g>
				<rect x="161.1" y="195.6" class="st9" width="7.5" height="0.8"/>
			</g>
		</g>
		<g>
			<g>
				<g>
					<g>
						<g>
							<g>
								<rect x="179.6" y="182" class="st6" width="7.5" height="13.5"/>
								<polygon class="st8" points="187.1,195.6 179.6,195.6 187.1,182 								"/>
							</g>
						</g>
					</g>
				</g>
				<rect x="179.6" y="195.6" class="st9" width="7.5" height="0.8"/>
			</g>
		</g>
		<g>
			<g>
				<g>
					<g>
						<g>
							<g>
								<rect x="161.1" y="145.7" class="st6" width="7.5" height="13.5"/>
								<polygon class="st8" points="168.6,159.3 161.1,159.3 168.6,145.7 								"/>
							</g>
						</g>
					</g>
				</g>
				<rect x="161.1" y="159.2" class="st9" width="7.5" height="0.8"/>
			</g>
		</g>
		<g>
			<g>
				<g>
					<g>
						<g>
							<g>
								<rect x="179.6" y="145.7" class="st6" width="7.5" height="13.5"/>
								<polygon class="st8" points="187.1,159.3 179.6,159.3 187.1,145.7 								"/>
							</g>
						</g>
					</g>
				</g>
				<rect x="179.6" y="159.2" class="st9" width="7.5" height="0.8"/>
			</g>
		</g>
		<rect x="56.4" y="205.9" class="st4" width="137.2" height="4.1"/>
		<rect x="157" y="210" class="st4" width="36.6" height="8.4"/>
		<rect x="62.9" y="215.2" class="st6" width="88.4" height="25.5"/>
		<polygon class="st8" points="151.3,240.7 125,240.7 151.3,215.2 		"/>
		<rect x="62.9" y="171.9" class="st6" width="88.4" height="25.5"/>
		<polygon class="st8" points="151.3,197.4 125,197.4 151.3,171.9 		"/>
		<g>
			<rect x="62.9" y="142.8" class="st6" width="88.4" height="15.3"/>
			<polygon class="st8" points="151.3,158.1 125,158.1 151.3,142.8 			"/>
			<rect x="76" y="142.8" class="st8" width="1.8" height="15.3"/>
			<rect x="91.8" y="142.8" class="st8" width="1.8" height="15.3"/>
			<rect x="107.6" y="142.8" class="st8" width="1.8" height="15.3"/>
			<rect x="123.3" y="142.8" class="st8" width="1.8" height="15.3"/>
			<rect x="139.1" y="142.8" class="st8" width="1.8" height="15.3"/>
		</g>
	</g>
	<g class="st2">
		<circle class="st10" cx="226.1" cy="108.9" r="33.5"/>
		<g>
			<path class="st11" d="M203.8,108.1c-1.7-1.9-1.2-4,0-5.1c1.3-1.1,3.3-1.1,4.5,0.1c1.2,1.1,1.5,3.3,0,4.8c0.4,0.7,0.7,1.4,1.1,2.1
				c0.7-1.2,1.7-2.1,1.6-3.8c-0.2-2.4,0-4.9,0-7.4c0-1.9,0-1.9,1.1-3.4c-1.4-1.8-1.4-3.7,0-5c1.3-1.2,3.3-1.2,4.5,0
				c1.1,1.1,1.6,3.1,0,4.9c0.4,0.7,0.7,1.4,1.1,2.1c0.4-0.3,0.8-0.8,1.3-1c0.6-0.2,1.2-0.1,2-0.2c-0.1-2.6-0.2-5.2,2.6-6.8
				c-0.8-1-1.1-2-0.8-3.2c0.2-0.7,0.7-1.4,1.2-1.8c1.2-1,3-0.9,4.2,0.1c1.3,1.2,1.5,2.8,0.3,4.9c2.6,1.6,2.7,4.1,2.5,6.8
				c1.3,0,2.7-0.3,3.2,1.4c0.4-0.9,0.8-1.5,1.2-2.4c-0.7-0.8-1.3-1.9-0.9-3.1c0.2-0.7,0.7-1.4,1.2-1.9c1.3-1.1,3.2-0.9,4.3,0.3
				c1.3,1.3,1.3,3.1-0.1,4.9c1.1,1,1.1,2.3,1.1,3.6c0,2.4,0,4.8,0,7.2c0,0.9,0.2,1.7,0.8,2.4c0.3,0.4,0.6,0.8,0.8,1.2
				c0.4-0.7,0.7-1.4,1.1-2.1c-0.8-0.8-1.2-1.8-0.9-3c0.2-0.7,0.6-1.5,1.1-2c1.3-1.2,3.2-1,4.5,0.2c1.1,1.1,1.5,3.1-0.1,4.9
				c1.1,0.9,1.1,2.2,1.1,3.5c0,2.5,0,5,0,7.4c0,0.7,0.1,1.4,0.6,1.9c1.6,1.7,1.1,3.9,1,5.9c0,0.8-0.7,1.2-1.5,1.3
				c-0.3,0-0.6,0-0.9,0.1c0,1.3,0,2.6,0,3.8c0,1.3-0.6,2-2,2c-0.9,0-1.8,0-2.7,0c-1.3,0-2-0.7-2-2c0-1.2,0-2.3,0-3.5
				c0-0.1,0-0.1,0-0.2c-2.7,0-5.4,0-8.3,0c0,1,0,1.9,0,2.9c0,1.9-1,2.8-2.8,2.8c-3.1,0-6.2,0-9.3,0c-1.9,0-2.9-1-2.9-2.9
				c0-0.9,0-1.9,0-2.9c-2.8,0-5.5,0-8.3,0c0,1.2,0,2.3,0,3.5c0,1.7-0.6,2.3-2.3,2.3c-0.9,0-1.7,0-2.6,0c-1.2,0-1.8-0.7-1.8-1.9
				c0-1.3,0-2.6,0-3.9c-2.4-0.4-2.5-0.5-2.5-3c0-0.3,0-0.6,0-0.9c-0.2-1.3,0.2-2.4,1-3.3c0.5-0.6,0.7-1.3,0.7-2.2c0-2.5,0-5.1,0-7.6
				C202.7,110,202.9,108.9,203.8,108.1z M249.3,123.1c-0.1-0.2-0.2-0.4-0.3-0.5c-5.4-8-10.8-16-16.2-24c-0.3-0.4-0.5-0.5-1-0.5
				c-3.9,0-7.7,0-11.6,0c-0.5,0-0.8,0.2-1.1,0.6c-5.3,7.9-10.7,15.8-16,23.6c-0.1,0.2-0.3,0.4-0.5,0.7c5.4,0,10.6,0,15.8,0
				c-0.1-3.5,1.3-6.1,4.4-7.7c-2.9-2.8-2-6-0.4-7.5c1.9-1.9,5-1.9,6.9-0.1c2.2,2.1,2.1,4.8-0.3,7.7c3.1,1.6,4.5,4.2,4.4,7.7
				C238.8,123.1,244,123.1,249.3,123.1z M228.5,132.2c0-0.3,0-0.6,0-0.9c0-2.1,0-4.2,0-6.3c0-0.6,0.2-1.1,0.9-1.1
				c0.6,0,0.8,0.5,0.8,1c0,0.2,0,0.4,0,0.5c0,2,0,3.9,0,5.9c0,0.3,0,0.6,0,0.8c1.5,0.1,1.6,0,1.6-1.3c0-2.8,0-5.5,0-8.3
				c0-0.5,0-0.9-0.1-1.4c-0.7-3-3.3-5-6.3-4.7c-3.1,0.3-5.3,2.8-5.3,6c0,2.8,0,5.7,0,8.5c0,1.2,0.4,1.5,1.6,1.2c0-0.1,0-0.2,0-0.4
				c0-2.2,0-4.4,0-6.6c0-0.6,0.1-1.2,0.8-1.2c0.7,0,0.9,0.5,0.9,1.1c0,1.3,0,2.6,0,3.8c0,1.1,0,2.2,0,3.3c1.5,0,2.9,0,4.3,0
				C228.1,132.2,228.3,132.2,228.5,132.2z M229.4,111.5c0-1.9-1.4-3.4-3.2-3.4c-1.9,0-3.3,1.4-3.4,3.3c0,1.9,1.4,3.4,3.2,3.4
				C227.9,114.7,229.3,113.3,229.4,111.5z M222.8,96.3c2.2,0,4.4,0,6.6,0c0-1,0.1-2,0-3c-0.1-1.5-1.6-2.8-3.3-2.8
				c-1.6,0-3.1,1.2-3.3,2.8C222.7,94.3,222.8,95.3,222.8,96.3z M218.5,126.4c0-0.6,0-1.1,0-1.6c-5.3,0-10.5,0-15.7,0
				c0,0.6,0,1.1,0,1.6C208,126.4,213.2,126.4,218.5,126.4z M233.6,124.8c0,0.6,0,1.1,0,1.6c5.3,0,10.5,0,15.7,0c0-0.6,0-1.1,0-1.6
				C244.1,124.8,238.9,124.8,233.6,124.8z M204.3,117.3c0,0,0.1,0,0.1,0.1c0.7-1.1,1.4-2.3,2.3-3.3c0.9-1.1,1-2.2,0.9-3.5
				c-0.1-1-0.7-1.7-1.6-1.7c-0.9,0-1.7,0.6-1.7,1.5C204.3,112.7,204.3,115,204.3,117.3z M247.6,117.4c0.1,0,0.1,0,0.2-0.1
				c0-2.2,0-4.5,0-6.7c0-0.9-0.6-1.5-1.4-1.7c-0.7-0.2-1.6,0.2-1.7,0.8c-0.2,1-0.5,2.2-0.1,3C245.4,114.4,246.6,115.9,247.6,117.4z
				 M212.7,104.9c0.1,0,0.1,0,0.2,0.1c0.7-1,1.3-2.1,2.1-3c1-1.2,1.2-2.5,1.1-4c-0.1-0.9-0.8-1.6-1.7-1.6c-0.9,0-1.6,0.6-1.6,1.5
				C212.7,100.3,212.7,102.6,212.7,104.9z M239.2,105c0.1,0,0.1,0,0.2-0.1c0-2.3,0-4.7,0-7c0-0.8-0.6-1.4-1.3-1.5
				c-0.7-0.1-1.6,0.2-1.7,0.9c-0.2,1-0.4,2.3,0,3.2C237,102.1,238.2,103.5,239.2,105z M208.5,128.1c-1.1,0-2.1,0-3.2,0
				c0,1.4,0,2.7,0,4.1c1.1,0,2.1,0,3.2,0C208.5,130.8,208.5,129.5,208.5,128.1z M243.6,132.2c1.1,0,2.2,0,3.2,0c0-1.4,0-2.7,0-4
				c-1.1,0-2.1,0-3.2,0C243.6,129.5,243.6,130.8,243.6,132.2z M216,93c0-0.9-0.7-1.6-1.6-1.7c-0.9,0-1.7,0.8-1.7,1.7
				c0,1,0.7,1.7,1.7,1.6C215.3,94.6,216,93.9,216,93z M239.4,93c0-0.9-0.7-1.7-1.6-1.7c-0.9,0-1.7,0.7-1.7,1.7
				c0,0.9,0.7,1.6,1.6,1.7C238.7,94.7,239.4,94,239.4,93z M226.1,85.5c-0.9,0-1.7,0.8-1.7,1.7c0,0.9,0.8,1.6,1.7,1.6
				c0.9,0,1.7-0.8,1.7-1.7C227.7,86.3,227,85.5,226.1,85.5z M206,107.2c0.9,0,1.6-0.7,1.7-1.6c0-0.9-0.7-1.7-1.7-1.7
				c-0.9,0-1.7,0.8-1.7,1.7C204.4,106.5,205.1,107.2,206,107.2z M246.1,107.2c0.9,0,1.7-0.8,1.7-1.7c0-0.9-0.8-1.6-1.7-1.7
				c-0.9,0-1.7,0.8-1.7,1.7C244.4,106.5,245.1,107.2,246.1,107.2z"/>
		</g>
	</g>
	<g class="st2">
		<circle class="st10" cx="123.6" cy="92.6" r="37.5"/>
		<g>
			<path class="st11" d="M124.4,71.4c9.6,0.2,18.6,3.8,26.1,11.1c1.1,1.1,1.4,2.4,0.8,3.7c-0.6,1.2-1.8,1.9-3.1,1.6
				c-0.7-0.2-1.5-0.6-2-1.1c-3.7-3.5-7.9-6.2-12.9-7.6c-11.9-3.5-22.6-1.1-31.9,7.1c-0.4,0.3-0.7,0.6-1,0.9c-1.3,1.1-3.1,1-4.2-0.2
				c-1.1-1.2-1.1-3,0.1-4.3c2.8-2.8,5.9-5.1,9.5-6.9C111.4,72.8,117.3,71.4,124.4,71.4z"/>
			<path class="st11" d="M122.6,83c8.2,0.1,14.4,2.6,19.6,7.6c1.4,1.3,1.5,3.1,0.4,4.4c-1.2,1.3-3,1.3-4.5,0c-2.4-2.3-5.2-4.1-8.4-5
				c-7.3-2.1-13.9-0.7-19.8,4.1c-0.4,0.4-0.8,0.7-1.3,1.1c-1.3,1-3,1-4.1-0.1c-1.1-1.2-1.2-3,0-4.2c3.7-3.7,8.1-6.2,13.2-7.2
				C119.7,83.3,121.6,83.2,122.6,83z"/>
			<path class="st11" d="M123.5,94.5c4.1,0.1,7.7,1.5,10.7,4.4c1.2,1.2,1.4,3,0.3,4.3c-1.1,1.3-2.9,1.4-4.2,0.2
				c-1.3-1.1-2.7-2.1-4.4-2.5c-3.2-0.8-6.1-0.1-8.6,2.1c-0.9,0.8-1.8,1.4-3,1.1c-1.1-0.2-2-0.9-2.3-2c-0.4-1.2-0.1-2.3,0.8-3.2
				C115.8,96.1,119.4,94.7,123.5,94.5z"/>
			<path class="st11" d="M123.5,113.9c-2.2,0-4-1.9-4-4c0-2.2,1.8-3.9,4-4c2.2,0,4,1.8,4,4C127.6,112.1,125.7,113.9,123.5,113.9z"/>
		</g>
	</g>
	<g class="st2">
		<circle class="st10" cx="54.1" cy="185.2" r="30.8"/>
		<g>
			<path class="st11" d="M35.5,191.9c-1.4-0.6-1.6-1.7-1.6-3c0.1-0.9,0-1.9,0-2.9c-1.1-0.3-2.1-0.9-2.6-2c-0.3-0.7-0.4-1.5-0.4-2.2
				c0.2-1.8,1.4-2.9,3.7-3.3c0-1.1,0-2.3,0-3.4c0-1.6,0.9-2.5,2.5-2.5c6.3,0,12.6,0,18.9,0c1.6,0,2.5,0.9,2.5,2.6c0,1.1,0,2.2,0,3.4
				c1.3-0.1,2.6,0.1,3.4,1.2c0.5,0.6,0.9,1.4,1,2.2c0.3,1.8-0.8,3.3-2.9,4.1c0,0.9,0,1.9,0,2.9c0.1,1.3-0.2,2.4-1.6,3
				c0.5,0.6,0.9,1.2,1.3,1.7c0.2,0.2,0.3,0.7,0.2,0.9c-0.1,0.2-0.5,0.3-0.8,0.5c0,0,0,0-0.1,0c-1.6,0.2-2.9-0.2-3.9-1.4
				c-1.2-1.4-2.8-1.7-4.6-1.7c-3,0.1-6,0-8.9,0.1c-0.4,0-0.8,0.2-1.1,0.4c-0.9,0.6-1.7,1.3-2.5,2c-0.5,0.5-1,0.6-1.7,0.6
				c-0.4,0-0.9,0-1.3,0c-0.3-0.1-0.7-0.2-0.8-0.4c-0.1-0.2,0-0.6,0.2-0.9C34.6,193,35,192.5,35.5,191.9z M36.2,178.5
				c0.3,0,0.6,0,0.8,0c1.4,0,1.4,0.1,1.4,1.4c0,1.9,0,3.7,0,5.5c1-0.1,1.9-0.2,2.8-0.2c3.9,0,7.9,0,11.8,0c0.8,0,1.6,0.1,2.5,0.2
				c0-0.1,0-0.4,0-0.6c0-1.7,0-3.5,0-5.2c0-0.8,0.2-1,1.1-1.1c0.1,0,0.2,0,0.4,0c0-1.1,0-2.1,0-3.2c0-1.1-0.2-1.2-1.3-1.2
				c-6.1,0-12.2,0-18.3,0c-0.2,0-0.4-0.1-0.5,0c-0.3,0.2-0.7,0.5-0.7,0.7C36.2,176,36.2,177.2,36.2,178.5z M36.9,180
				c-0.8,0-1.5,0-2.2,0c-1.3,0-2.2,0.9-2.3,2.1c-0.1,1.2,0.8,2.2,2,2.4c0.8,0.1,1,0.5,1,1.2c0,1.3,0,2.5,0,3.8c0,0.7,0.3,1,1,1
				c7.1,0,14.1,0,21.2,0c0.7,0,1-0.3,1-1c0-1.2,0-2.4,0-3.7c0-1.1,0-1.1,1.1-1.4c1.1-0.2,1.9-1.2,1.9-2.3c0-1.1-0.8-2-1.9-2.1
				c-0.8-0.1-1.7,0-2.6,0c0,2.6,0,5.1,0,7.7c0,1.1-0.2,1.3-1.3,1.3c-5.9,0-11.7,0-17.6,0c-1.1,0-1.2-0.2-1.2-1.2
				C36.9,185.2,36.9,182.7,36.9,180z M55.2,187.4c0-0.1,0.1-0.2,0.1-0.3c-0.4-0.1-0.8-0.4-1.3-0.4c-4.7,0-9.3,0-14,0
				c-0.4,0-0.8,0.3-1.3,0.4c0,0.1,0.1,0.2,0.1,0.2C44.3,187.4,49.7,187.4,55.2,187.4z M38.5,192.1c-1.4-0.5-1.6,0.7-2.1,1.3
				C37.2,193.3,37.7,192.5,38.5,192.1z M57.7,193.5c-0.9-1.6-1.1-1.7-2.1-1.4C56.4,192.5,56.8,193.3,57.7,193.5z"/>
			<path class="st11" d="M62.3,190.5c-1.5-0.1-1.5-0.1-1.5-1.6c0-0.6,0-1.1,0-1.7c0-1,0.2-1.2,1.2-1.2c1.6,0,3.1,0,4.7,0
				c0.1-0.7,0.1-1.3-0.4-1.9c-0.5-0.6-1-1.2-1.4-1.9c-0.2-0.3-0.3-0.7-0.2-1c0.1-0.2,0.5-0.4,0.8-0.4c1.3,0,2.7,0,4,0
				c0.3,0,0.7,0.2,0.8,0.4c0.1,0.2,0,0.7-0.2,0.9c-0.4,0.6-0.9,1.3-1.4,1.9c-0.5,0.6-0.7,1.2-0.5,1.9c0.9,0,1.9,0,2.9,0
				c0-1.3,0-2.6,0-4c0-0.3,0-0.7,0.2-0.9c0.6-0.9,0.6-1.9,0.6-2.9c0-1,0.2-1.2,1.2-1.2c0.5,0,1.1,0,1.6,0c0.6,0,0.9,0.3,0.9,0.9
				c0,1.2,0.1,2.3,0.6,3.4c0.3,0.5,0.1,1.2,0.1,1.8c0,0.7,0,1.3,0,2c0,0.4-0.1,0.9,0.5,1.1c0.2,0.1,0.2,0.5,0.3,0.7
				c0,0.6,0,1.3,0,1.9c0,1.5,0,1.5-1.5,1.7c0,1.1,0,2.2,0,3.3c0,1-0.2,1.1-1.2,1.2c-1.1,0.1-1.8-0.3-2.2-1.4
				c-0.3-0.9-0.9-1.7-1.2-2.5c-0.2-0.5-0.5-0.6-1-0.6c-0.8,0-1.5,0-2.3,0c-0.4,0-0.6,0.1-0.8,0.5c-0.5,1.1-1.1,2.2-1.6,3.3
				c-0.2,0.5-0.6,0.7-1.2,0.7c-1.9,0-1.9,0-1.9-1.9C62.3,192.2,62.3,191.4,62.3,190.5z M75.7,187.5c-4.5,0-8.9,0-13.3,0
				c0,0.5,0,0.9,0,1.4c4.5,0,8.9,0,13.3,0C75.7,188.5,75.7,188,75.7,187.5z M73.6,178.6c-0.1,0.7,0,1.5-0.3,2
				c-1,1.8-0.3,3.6-0.5,5.3c0.8,0,1.5,0,2.3,0c0-0.9,0-1.7,0-2.5c0-0.6,0.1-1.2,0-1.8c-0.2-1-0.6-2-1-3.1
				C73.9,178.6,73.7,178.6,73.6,178.6z M65.5,190.5c-0.6,0-1.2,0-1.7,0c0,1,0,2,0,2.9c0.1,0,0.1,0,0.2,0
				C64.5,192.5,65,191.5,65.5,190.5z M72.4,190.5c0.5,1.1,1,2,1.5,3c0.1,0,0.1,0,0.2-0.1c0-1,0-1.9,0-2.9
				C73.6,190.5,73.1,190.5,72.4,190.5z M68.2,182.3c-0.5,0-0.9,0-1.4,0c0.3,0.3,0.5,0.6,0.7,0.9C67.8,182.9,68,182.6,68.2,182.3z"/>
			<path class="st11" d="M31,196.5c15.4,0,30.7,0,46.1,0c0,0.5,0,0.9,0,1.4c-15.4,0-30.7,0-46.1,0C31,197.4,31,197,31,196.5z"/>
		</g>
	</g>
	<g class="st2">
		<circle class="st10" cx="183.1" cy="199.8" r="27.9"/>
		<g>
			<path class="st11" d="M170.4,206.4c-0.3,1.4-2.3,2.1-3.3,1.2c-0.4-0.3-0.6-1-0.7-1.5c-0.6-4-1.1-8-1.7-12c-0.2-1.1,0.4-2,1.5-2.3
				c1-0.3,2,0.3,2.4,1.4c0.6,1.8,1.1,3.6,1.6,5.4c0.1,0.5,0.3,0.6,0.8,0.6c1.7,0,3.4,0,5.1,0c1.8,0,2.8,0.9,3,2.7
				c0.1,1.4,0.2,2.8,0.3,4.2c0.1,1.3-0.4,1.8-1.7,1.8c-1,0-1.8-0.1-2-1.2c0-0.1-0.3-0.2-0.4-0.2C173.7,206.4,172,206.4,170.4,206.4z
				 M178.1,206.4c-0.1-1.5-0.2-3-0.4-4.4c-0.1-1.2-0.5-1.5-1.7-1.5c-1.9,0-3.9,0-5.8,0c-0.7,0-1-0.3-1.2-0.9c-0.5-2-1.1-3.9-1.7-5.9
				c-0.1-0.4-0.3-0.7-0.8-0.6c-0.5,0.1-0.5,0.5-0.5,1c0.6,3.8,1.1,7.7,1.6,11.5c0.1,1-0.1,1.1,1.2,0.9c0.2-1,0.6-1.4,1.4-1.4
				c1.8,0,3.6,0,5.4,0c0.6,0,1.1,0.3,1.2,0.9C177.1,206.6,177.4,206.6,178.1,206.4z"/>
			<path class="st11" d="M195.6,206.4c-1.5,0-3.1,0-4.7,0c-0.2,0-0.4,0.2-0.5,0.4c-0.3,0.7-0.7,1-1.5,1.1c-0.3,0-0.6,0-0.9,0
				c-0.7-0.1-1.3-0.6-1.2-1.3c0.1-1.7,0.2-3.5,0.4-5.2c0.2-1.3,1.3-2.2,2.8-2.2c1.8,0,3.5,0,5.3,0c0.5,0,0.7-0.1,0.8-0.6
				c0.5-1.8,1-3.5,1.5-5.3c0.3-1.2,1.3-1.8,2.4-1.5c0.8,0.2,1.7,1.1,1.5,2.4c-0.6,4-1.1,7.9-1.7,11.9c-0.2,1.6-1.9,2.5-3.3,1.6
				C196.2,207.4,196,206.9,195.6,206.4z M197.3,206.5c1,0.1,1,0.1,1.2-0.9c0.2-1.7,0.5-3.4,0.7-5.1c0.3-2.2,0.6-4.4,0.9-6.7
				c0-0.2-0.3-0.5-0.4-0.8c-0.3,0.2-0.5,0.3-0.8,0.5c-0.1,0.1-0.1,0.2-0.1,0.4c-0.5,1.9-1.1,3.7-1.6,5.6c-0.2,0.7-0.5,1-1.3,1
				c-2,0-3.9,0-5.9,0c-0.8,0-1.4,0.3-1.5,1c-0.2,1.7-0.3,3.3-0.4,5c0.6,0.1,1,0.2,1.2-0.5c0.1-0.6,0.7-0.9,1.3-0.9
				c1.6,0,3.2,0,4.8,0C196.7,205,197,205.2,197.3,206.5z"/>
			<path class="st11" d="M184.8,204.4c0.9,0.3,1,0.3,1,1.3c0,0.4,0,0.9,0,1.3c0,0.5-0.2,0.8-0.8,0.8c-1.3,0-2.6,0-3.8,0
				c-0.5,0-0.8-0.2-0.8-0.7c0-0.6,0-1.3,0-1.9c0-0.6,0.5-0.7,1-0.8c0-1.8,0-3.5,0-5.4c-0.9,0-1.9,0-2.8,0c-1.3,0-2.2-0.8-2.2-2
				c0-1.2,0.9-2.1,2.3-2.1c3,0,6,0,9,0c1.4,0,2.3,0.8,2.3,2c0,1.2-0.9,2-2.2,2c-0.9,0-1.8,0-2.8,0
				C184.8,200.9,184.8,202.7,184.8,204.4z M183,197.7c1.5,0,3,0,4.4,0c0.5,0,1-0.1,1-0.7c0-0.6-0.4-0.7-0.9-0.7c-2.9,0-5.9,0-8.8,0
				c-0.5,0-1,0.1-1,0.7c0,0.6,0.5,0.7,1,0.7C180.2,197.7,181.6,197.7,183,197.7z M183.2,204.6c0.1-0.1,0.1-0.1,0.2-0.2
				c0-1.7,0-3.3,0-5c0-0.1-0.3-0.3-0.5-0.4c-0.2,1.8-0.2,3.5-0.1,5.1C182.8,204.3,183.1,204.4,183.2,204.6z M184.4,205.9
				c-0.9,0-1.8,0-2.6,0c0,0.2,0,0.4,0,0.6c0.9,0,1.8,0,2.6,0C184.4,206.3,184.4,206.1,184.4,205.9z"/>
		</g>
	</g>
	<g class="st2">
		<circle class="st10" cx="35.1" cy="98.6" r="31.6"/>
		<g>
			<path class="st11" d="M17.4,102c0,0.3,0,0.6,0,0.9c0,5.8,0,11.7,0,17.5c0,1.6-0.4,1.9-1.9,1.9c-0.2,0-0.4,0-0.7,0
				c-1.2,0-1.7-0.4-1.7-1.6c0-5.9,0-11.9,0-17.8c0-0.3,0-0.5,0-0.9c-0.2,0-0.3-0.1-0.5-0.1c-0.8-0.1-1.2-0.6-1.2-1.4
				c0-0.6,0-1.2,0-1.9c0.1-0.9,0.7-1.4,1.6-1.4c1.2,0,2.4,0,3.6,0c0.2,0,0.5,0,0.7,0c0.3-2.4,1.4-4.1,3.7-4.8
				c0.5-0.2,1.1-0.2,1.6-0.2c2.1,0,4.2,0,6.3,0c3,0,5,1.8,5.4,4.7c0,0.1,0,0.1,0.1,0.3c0.4,0,0.8,0,1.2,0c0.2-0.6,0.2-1.2,0.5-1.8
				c0.8-2,2.4-3.1,4.6-3.2c2.4-0.1,4.7-0.1,7.1,0c2.5,0.1,4.6,2,4.9,4.5c0,0.1,0,0.3,0,0.5c1.4,0,2.7,0,4,0c1.5,0,2,0.5,2,2
				c0,0.2,0,0.4,0,0.6c0,1.5-0.2,1.8-1.7,2.2c0,0.2,0,0.5,0,0.8c0,3.8,0,7.5,0,11.3c0,0.2,0,0.3,0,0.5c0,0.5-0.2,0.8-0.7,0.7
				c-0.3-0.1-0.6-0.5-0.6-0.7c0-2.1,0-4.1,0-6.2c0-2.1,0-4.2,0-6.4c-0.5,0-0.9,0-1.4,0c0,6.3,0,12.6,0,18.9c0.4,0,0.9,0,1.4,0
				c0-0.7,0-1.5,0-2.3c0-0.2-0.1-0.5,0-0.7c0.1-0.2,0.4-0.6,0.6-0.6c0.3,0,0.7,0.4,0.7,0.6c0.1,1.1,0.1,2.3,0,3.4c0,0.7-0.6,1-1.2,1
				c-0.5,0-0.9,0-1.4,0c-1.1,0-1.5-0.5-1.6-1.5c0-1.8,0-3.5,0-5.3c0-4.2,0-8.4,0-12.6c0-0.3,0-0.6,0-0.9c-0.7-0.3-1-0.1-1.1,0.6
				c-0.1,0.9-0.4,1.7-0.6,2.6c-0.5,2.1-1.6,3-3.7,3.1c-0.1,0-0.2,0-0.4,0c0,0.4-0.1,0.9-0.2,1.4c0.6,0,1.2,0,1.8,0
				c1.4,0,2.5,1.2,2.6,2.6c0,0.9-0.7,1.6-1.8,1.7c-1.4,0-2.9,0-4.4,0c0,1.7,0,3.3,0,4.9c0.7,0.1,1.5,0.1,2.2,0.2
				c1.1,0.2,1.9,0.9,2.4,1.9c0.2,0.4,0.3,0.9-0.2,1.1c-0.5,0.3-0.8,0-1-0.4c-0.5-0.9-1.2-1.3-2.2-1.3c-1.3,0-2.5,0-3.8,0
				c-1,0-1.8,0.4-2.2,1.3c-0.2,0.4-0.6,0.7-1.1,0.4c-0.5-0.3-0.4-0.7-0.2-1.1c0.7-1.3,1.8-1.9,3.3-2c0.4,0,0.8,0,1.3,0
				c0-1.7,0-3.3,0-5c-1.3,0-2.6,0-3.9,0c-1.6,0-2.3-0.5-2.4-1.6c0-1.3,1.1-2.6,2.4-2.6c0.6,0,1.3,0,2,0c0-0.5-0.1-0.9-0.1-1.4
				c-0.2,0-0.4,0-0.6-0.1c-1.9,0-3.2-1.1-3.6-2.9c-0.2-1-0.4-2-0.6-3c-0.1-0.4-0.3-0.6-0.7-0.6c-0.4,0-0.9,0-1.3,0
				c-0.8-0.1-1.5,0-1.6,1.1c0,0.2-0.5,0.3-0.8,0.5c-0.2-0.3-0.5-0.6-0.4-0.9c0.2-1.4,0.6-2.7,0.9-4c0.7-2.9-1-5-3.9-5c-2,0-4,0-6,0
				c-3,0-4.6,2.2-3.9,5.1c0.5,2,0.9,4,1.4,6.1c0.4,1.7,1,2.3,2.7,2.3c1.9,0,3.7,0,5.6,0c1.1,0,2-0.2,2.6-1.3
				c0.1-0.2,0.6-0.2,0.9-0.3c0.1,0.3,0.3,0.7,0.2,1c-0.5,1.2-1.5,1.9-2.8,2c-0.3,0-0.6,0-1,0c0,0.5,0,0.9-0.1,1.5c0.6,0,1.2,0,1.8,0
				c1.2,0,2.3,1,2.4,2.3c0.2,1.2-0.5,2-1.7,2c-1.2,0-2.4,0-3.6,0c-0.3,0-0.5,0-0.8,0c0,1.7,0,3.3,0,4.9c0.7,0.1,1.5,0.1,2.2,0.2
				c1.1,0.2,1.9,0.9,2.4,1.9c0.2,0.4,0.2,0.8-0.2,1.1c-0.5,0.2-0.8,0-1-0.4c-0.5-1-1.3-1.4-2.4-1.4c-1.2,0-2.4,0-3.6,0
				c-1,0-1.8,0.4-2.2,1.3c-0.2,0.4-0.5,0.7-1,0.5c-0.5-0.3-0.5-0.7-0.2-1.1c0.7-1.3,1.8-1.9,3.3-2c0.4,0,0.8,0,1.3,0
				c0-1.7,0-3.3,0-5c-1.2,0-2.4,0-3.6,0c-0.4,0-0.7,0-1.1,0c-1-0.1-1.5-0.8-1.5-1.8c0.1-1.3,1.2-2.4,2.5-2.4c0.6,0,1.2,0,1.9,0
				c-0.1-0.5-0.1-0.9-0.2-1.4c-0.2,0-0.4,0-0.6,0c-1.7,0-3-1.1-3.4-2.7c-0.2-1-0.5-2-0.7-3C18.3,101.9,18.3,101.9,17.4,102z
				 M44.2,93.6C44.2,93.6,44.2,93.6,44.2,93.6c-1.3,0-2.5,0-3.8,0.1c-2.3,0.2-3.7,2.3-3.2,4.5c0.5,2.3,1,4.5,1.5,6.8
				c0.3,1.5,1,2,2.5,2c1.9,0,3.9,0,5.8,0c1.7,0,2.3-0.6,2.7-2.2c0.5-2.1,0.9-4.2,1.4-6.3c0.7-2.7-1-4.9-3.8-5
				C46.3,93.6,45.3,93.6,44.2,93.6z M14.5,102c0,6.3,0,12.6,0,18.9c0.5,0,0.9,0,1.4,0c0-6.3,0-12.6,0-18.9C15.4,102,15,102,14.5,102
				z M49.7,112.6c0.1-0.9-0.3-1.4-1.2-1.4c-2.8,0-5.7,0-8.5,0c-0.8,0-1.3,0.5-1.2,1.4C42.4,112.6,46,112.6,49.7,112.6z M20.4,112.6
				c3.6,0,7.3,0,10.9,0c0-0.9-0.4-1.4-1.3-1.4c-1,0-1.9,0-2.9,0c-1.8,0-3.5,0-5.3,0C20.8,111.2,20.3,111.7,20.4,112.6z M12.8,100.5
				c1.8,0,3.4,0,5.2,0c-0.1-0.5-0.2-1-0.3-1.5c0-0.1-0.2-0.3-0.3-0.3c-1.5,0-3,0-4.5,0C12.8,99.3,12.8,99.9,12.8,100.5z M52.2,100.5
				c1.7,0,3.4,0,5.1,0c0-0.6,0-1.1,0-1.7c-0.1,0-0.1-0.1-0.2-0.1c-1,0-2,0-3,0C52.4,98.7,52.4,98.7,52.2,100.5z M36.3,100.5
				c-0.2-0.6-0.3-1.2-0.4-1.7c-1.9,0-1.7-0.5-2.1,1.7C34.6,100.5,35.4,100.5,36.3,100.5z M45.4,109.8c0.1-0.5,0.1-0.9,0.2-1.4
				c-0.9,0-1.7,0-2.6,0c0,0.5,0.1,0.9,0.1,1.4C43.9,109.8,44.6,109.8,45.4,109.8z M24.6,108.4c0.1,0.5,0.1,0.9,0.2,1.4
				c0.8,0,1.5,0,2.3,0c0.1-0.5,0.1-0.9,0.2-1.4C26.3,108.4,25.5,108.4,24.6,108.4z"/>
			<path class="st11" d="M50.9,78.9c-5.2,0-10.1,0-15.1,0c-0.1,0.7-0.1,1.3,0.6,1.8c0.5,0.3,0.8,1.1,0.9,1.8
				c0.1,0.7,0.3,1.1,0.8,1.5c1,0.8,1.6,1.9,1.7,3.2c0.1,0.8-0.2,1.2-1.1,1.2c-2.5,0-5,0-7.6,0c-0.8,0-1.1-0.4-1-1.2
				c0.2-1.4,0.9-2.5,2-3.4c0.2-0.2,0.4-0.6,0.5-0.9c0-1.1,0.4-1.9,1.3-2.5c0.3-0.2,0.3-0.9,0.4-1.4c-5.1,0-10.1,0-15.1,0
				c-0.1,0.7-0.2,1.3,0.6,1.7c0.7,0.4,1,1.1,0.9,2c0,0.5,0.1,0.9,0.6,1.2c1.2,0.8,1.8,2,1.9,3.4c0.1,0.8-0.3,1.1-1,1.1
				c-2.5,0-5.1,0-7.6,0c-0.7,0-1-0.3-1-1.1c0.1-1.5,0.8-2.7,2-3.5c0.4-0.3,0.5-0.5,0.5-1c-0.1-1.1,0.4-1.8,1.3-2.5
				c0.3-0.2,0.3-0.9,0.4-1.5c-1.6,0-3,0-4.4,0c-0.3,0-0.7,0-1-0.1c-0.9-0.3-1.5-1.2-1.4-2.1c0.1-0.9,0.9-1.7,1.8-1.8
				c0.2,0,0.4,0,0.6,0c14.2,0,28.4,0,42.6,0c0.4,0,0.9,0.1,1.3,0.2c0.8,0.3,1.3,1.3,1.1,2.1c-0.2,1-1,1.6-2,1.6c-1.5,0-3,0-4.5,0
				c-0.1,0.8-0.2,1.4,0.6,1.8c0.7,0.4,1,1.2,0.9,2.1c0,0.5,0.1,0.7,0.5,1c1.2,0.8,1.9,2,2,3.4c0.1,0.9-0.2,1.2-1.1,1.2
				c-2.5,0-5,0-7.5,0c-0.8,0-1.2-0.4-1.1-1.2c0.2-1.5,0.9-2.6,2-3.5c0.2-0.2,0.5-0.6,0.5-0.9c0-1.1,0.4-1.9,1.3-2.5
				C50.7,80.1,50.7,79.5,50.9,78.9z M35,77.5c7,0,14,0,21,0c0.5,0,1.3,0.2,1.3-0.6c0-0.8-0.7-0.6-1.3-0.6c-14,0-28.1,0-42.1,0
				c-0.1,0-0.3,0-0.4,0c-0.4,0-0.9,0.2-0.8,0.6c0,0.2,0.5,0.4,0.8,0.6c0.2,0.1,0.4,0,0.6,0C21.1,77.5,28.1,77.5,35,77.5z M38.4,87
				c-0.2-1.5-1.7-2.8-3.5-2.8c-1.6,0.1-3,1.3-3.2,2.8C34,87,36.1,87,38.4,87z M22,87c-0.3-1.7-2-2.9-3.6-2.8c-1.6,0.2-3,1.4-3,2.8
				C17.6,87,19.8,87,22,87z M54.7,87c-0.2-1.6-1.8-2.8-3.4-2.8c-1.6,0-3.1,1.3-3.2,2.8C50.3,87,52.5,87,54.7,87z M19.6,82.8
				c0-0.9-0.3-1.3-0.9-1.3c-0.6,0-0.9,0.5-0.8,1.3C18.4,82.8,19,82.8,19.6,82.8z M36.1,82.8c-0.3-0.5-0.4-0.9-0.7-1.1
				c-0.2-0.1-0.7-0.1-0.9,0.1c-0.2,0.2-0.3,0.7-0.5,1.1C34.8,82.8,35.4,82.8,36.1,82.8z M50.6,82.8c0.6,0,1.2,0,1.7,0
				c0.1-0.8-0.3-1.3-0.9-1.3C50.8,81.6,50.5,82,50.6,82.8z"/>
		</g>
	</g>
</g>
</svg>
