<?xml version="1.0" encoding="utf-8"?>
<!-- Generator: Adobe Illustrator 25.0.0, SVG Export Plug-In . SVG Version: 6.00 Build 0)  -->
<svg version="1.1" id="Layer_1" xmlns="http://www.w3.org/2000/svg" xmlns:xlink="http://www.w3.org/1999/xlink" x="0px" y="0px"
	 viewBox="0 0 100 100" style="enable-background:new 0 0 100 100;" xml:space="preserve">
<style type="text/css">
	.st0{stroke:#000000;stroke-width:1.8285;stroke-miterlimit:10;}
	.st1{stroke:#000000;stroke-width:1.6179;stroke-miterlimit:10;}
</style>
<g>
	<path d="M0.1,22.9c1,0,1.8,0,2.8,0c0,14.7,0,29.4,0,44.2c31.5,0,62.8,0,94.4,0c0-0.6,0-1.2,0-1.8c0-17.6,0-35.3,0-52.9
		c0-3.7-1.6-5.3-5.3-5.3c-27.9,0-55.9,0-83.8,0c-3.7,0-5.2,1.6-5.2,5.2c0,1.5,0,3.1,0,4.7c-0.9,0-1.7,0-2.6,0c0-2.6-0.3-5.2,0.1-7.6
		c0.5-2.9,3.2-4.8,6.2-5.1c0.5,0,1,0,1.5,0c28,0,56,0,83.9,0c3.9,0,6.5,1.5,7.6,4.6c0.3,0.9,0.4,1.9,0.4,2.9c0,20.7,0,41.3,0,62
		c0,4.8-2.9,7.6-7.8,7.6c-9.1,0-18.2,0-27.3,0c-0.6,0-1.2,0-1.9,0c0,1.9,0,3.7,0,5.5c1.6,0.2,3.2,0.4,4.8,0.8c3.1,0.8,5,3.2,5,6.1
		c0,1.3-0.5,1.8-1.8,1.8c-0.3,0-0.7,0-1,0c-13.4,0-26.8,0-40.2,0c-2.7,0-3.3-0.8-2.6-3.4c1-3.4,3.6-4.5,6.7-4.9
		c0.9-0.1,1.9-0.2,2.9-0.2c0-1.8,0-3.6,0-5.7c-0.6,0-1.1,0-1.7,0c-9.1,0-18.2-0.1-27.3,0.1c-4.2,0.1-8.1-2.8-8-8
		c0.2-16.3,0.1-32.6,0.1-48.9C0.1,24.1,0.1,23.6,0.1,22.9z M3,70.2c0,1.7-0.1,3.4,0,5c0.2,1.9,1.7,3.1,3.6,3.3
		c0.8,0.1,1.5,0.1,2.3,0.1c16.2,0,32.4-0.1,48.6-0.1c11.3,0,22.6,0.1,33.9,0.1c0.7,0,1.4,0,2.1-0.1c1.9-0.2,3.4-1.5,3.6-3.3
		c0.2-1.6,0-3.3,0-5C65.7,70.2,34.4,70.2,3,70.2z M40.1,87c6.7,0,13.2,0,19.7,0c0-1.9,0-3.7,0-5.4c-6.7,0-13.2,0-19.7,0
		C40.1,83.4,40.1,85.2,40.1,87z M30.2,92.3c0.1,0.2,0.2,0.3,0.3,0.5c13,0,26,0,39,0c0.1-0.2,0.2-0.3,0.3-0.5
		c-0.8-0.6-1.6-1.4-2.5-1.7c-1.2-0.4-2.5-0.6-3.7-0.6c-9.1,0-18.1,0-27.2,0c-1.2,0-2.5,0.2-3.7,0.6C31.8,90.9,31,91.7,30.2,92.3z
		 M50.8,69 M50.8,6.1"/>
	<path d="M56.4,72.9c0,0.9,0,1.7,0,2.7c-3.7,0-7.4,0-11.2,0c0-0.9,0-1.7,0-2.7C48.9,72.9,52.5,72.9,56.4,72.9z"/>
	<line class="st0" x1="50.8" y1="6.1" x2="50.8" y2="69"/>
	<line class="st1" x1="100" y1="37.5" x2="50.8" y2="37.5"/>
	<path d="M71.6,61.8c0.7,0,1.3-0.1,1.9,0c0.3,0.1,0.8,0.4,0.9,0.8c0.1,0.5-0.3,0.9-0.9,0.9c-0.9,0-1.8,0.1-2.7,0
		c-0.4,0-0.9-0.5-0.9-0.8c-0.1-1.4-0.1-2.8,0-4.2c0.3-2.4,1.3-3.9,3.6-5.5c-2.1-1.5-3.3-3.4-3.2-6c0.1-1.8,0.8-3.3,2.1-4.5
		c2.7-2.5,6.8-2.3,9.3,0.4c2.7,3,2.2,6.9-1.4,10.1c2,1.2,3.4,3,3.6,5.4c0.1,1.4,0.1,2.8,0.1,4.2c0,0.6-0.4,0.9-1,0.9
		c-1.8,0-3.5,0-5.3,0c-0.6,0-1-0.3-1-0.9c0-0.6,0.4-0.8,1-0.8c1.5,0,3,0,4.5,0c0.6-3.8-0.3-6.3-3.2-7.6c-3.4-1.5-7.3,1-7.4,4.7
		C71.6,59.8,71.6,60.7,71.6,61.8z M77,42.3c-2.7,0-4.9,2.1-4.9,4.9c0,2.7,2.2,4.9,4.9,4.9c2.6,0,4.9-2.2,4.9-4.9
		C81.9,44.5,79.7,42.3,77,42.3z"/>
	<path d="M71.6,32.2c0.7,0,1.3-0.1,1.9,0c0.3,0.1,0.8,0.4,0.9,0.8c0.1,0.5-0.3,0.9-0.9,0.9c-0.9,0-1.8,0.1-2.7,0
		c-0.4,0-0.9-0.5-0.9-0.8c-0.1-1.4-0.1-2.8,0-4.2c0.3-2.4,1.3-3.9,3.6-5.5c-2.1-1.5-3.3-3.4-3.2-6c0.1-1.8,0.8-3.3,2.1-4.5
		c2.7-2.5,6.8-2.3,9.3,0.4c2.7,3,2.2,6.9-1.4,10.1c2,1.2,3.4,3,3.6,5.4c0.1,1.4,0.1,2.8,0.1,4.2c0,0.6-0.4,0.9-1,0.9
		c-1.8,0-3.5,0-5.3,0c-0.6,0-1-0.3-1-0.9c0-0.6,0.4-0.8,1-0.8c1.5,0,3,0,4.5,0c0.6-3.8-0.3-6.3-3.2-7.6c-3.4-1.5-7.3,1-7.4,4.7
		C71.6,30.3,71.6,31.2,71.6,32.2z M77,12.8c-2.7,0-4.9,2.1-4.9,4.9c0,2.7,2.2,4.9,4.9,4.9c2.6,0,4.9-2.2,4.9-4.9
		C81.9,15,79.7,12.8,77,12.8z"/>
	<path d="M16.8,59.8c-0.9,0-1.6,0-2.3-0.1c-0.5-0.1-1.4-0.9-1.5-1.2c-0.1-2.5-0.3-5.5,0.1-8.4c0.5-4.5,2.4-7.4,7.1-10.6l0.5-0.4
		l-0.5-0.4c-4.3-3-6.4-6.8-6.2-11.6c0.1-3.4,1.5-6.4,4.1-8.7c2.3-2.2,5.4-3.4,8.6-3.4c3.6,0,7,1.5,9.3,4.1c2.3,2.6,3.5,5.5,3.3,8.6
		c-0.2,3.8-2.3,7.6-6.2,11.1l-0.5,0.4l0.5,0.3c4.2,2.6,6.6,6.1,7,10.4c0.2,2,0.2,4.2,0.2,6.2c0,0.7,0,1.5,0,2.2c0,1-0.5,1.4-1.5,1.4
		c-1.8,0-3.5,0-5.3,0l-5.3,0c-0.4,0-1-0.1-1.3-0.4c-0.2-0.2-0.3-0.5-0.3-0.9c0-0.6,0.2-1.1,1.5-1.1c1.3,0,2.6,0,3.8,0l5.5,0l0.1-0.4
		c1.2-8.2-0.9-13.2-6.6-15.7c-1.4-0.6-2.9-0.9-4.4-0.9c-5.9,0-10.9,4.8-11.1,10.7c0,1.3,0,2.5,0,3.9c0,0.6,0,1.3,0,2v0.5H16
		c0.5,0,0.9,0,1.3,0c0.4,0,0.7,0,1.1,0c0.5,0,1,0,1.3,0.1c0.6,0.1,1.3,0.7,1.4,1.2c0.1,0.3,0,0.5-0.1,0.7c-0.2,0.3-0.7,0.4-1.2,0.4
		c-0.4,0-0.9,0-1.3,0C18,59.7,17.4,59.8,16.8,59.8z M26.7,17.4c-5.6,0-10.2,4.6-10.2,10.2c0,5.6,4.5,10.2,10.2,10.3
		c5.6,0,10.2-4.7,10.3-10.2c0-2.7-1.1-5.2-3-7.2C32,18.5,29.5,17.5,26.7,17.4L26.7,17.4z"/>
</g>
</svg>
