<?xml version="1.0" encoding="utf-8"?>
<!-- Generator: Adobe Illustrator 25.0.0, SVG Export Plug-In . SVG Version: 6.00 Build 0)  -->
<svg version="1.1" id="Layer_1" xmlns="http://www.w3.org/2000/svg" xmlns:xlink="http://www.w3.org/1999/xlink" x="0px" y="0px"
	 viewBox="0 0 100 100" style="enable-background:new 0 0 100 100;" xml:space="preserve">
<style type="text/css">
	.st0{fill:#B3B3B3;}
</style>
<g>
	<path class="st0" d="M39,16.5c0.6,0,1.2,0,1.8,0c2.6,0,3.6,0.6,3.6,2s-1,1.9-3.7,1.9c-1,0-2,0-3.1,0c0,1.3,0,2.5,0,3.9
		c1.5,0,2.9,0,4.4,0c1.4,0,2.4,0.8,2.4,1.9s-0.9,1.9-2.4,1.9c-1.4,0-2.9,0-4.4,0c0,1.3,0,2.5,0,3.9c1.4,0,2.9,0,4.3,0
		c1.6,0,2.6,0.8,2.4,2c-0.2,1.4-1.1,1.9-2.4,1.9c-1.4,0-2.8,0-4.3,0c0,1.3,0,2.5,0,3.8c8.2,0,16.4,0,24.8,0c0-1.2,0-2.4,0-3.8
		c-0.9,0-1.8,0-2.8,0c-2.9,0-3.9-0.5-4-1.9c0-1.5,1-2,4-2c0.9,0,1.7,0,2.7,0c0-1.3,0-2.5,0-3.9c-1.4,0-2.8,0-4.3,0
		c-1.6,0-2.5-0.8-2.5-2s1-1.9,2.5-1.9c1.4,0,2.8,0,4.2,0c0-1.4,0-2.5,0-3.9c-1.5,0-2.9,0-4.4,0s-2.4-0.8-2.4-1.9s0.9-1.9,2.3-2
		c1,0,2,0,3.1,0c0.1-0.2,0.2-0.3,0.3-0.5c-1.2-1.4-2.3-2.8-3.6-4.1c-1.2-1.2-1.6-2.2-0.9-3.2c0.8-1,2-1,3.4,0.2c3.7,3.1,6,7,6,11.9
		c0.1,10.7,0.2,21.4,0,32.2c-0.2,8.8-7.6,15.5-16.4,15.5c-8.6,0-16-6.8-16.2-15.5c-0.3-10.8-0.2-21.5,0-32.3c0.1-5,2.5-9.1,6.5-12
		c0.6-0.4,1.8-0.5,2.5-0.2c0.5,0.2,0.7,1.4,0.7,2.1c0,0.4-0.7,0.9-1,1.3c-1.2,1.4-2.5,2.7-3.7,4.1C38.7,16.1,38.9,16.3,39,16.5z
		 M37.5,43.8c0,3.1-0.1,6.1,0,9c0.3,5.6,4.9,10.7,10.2,11.5c6.4,0.9,12.1-2.4,14.1-8.2c1.3-4,0.5-8.1,0.7-12.2
		C54.1,43.8,45.9,43.8,37.5,43.8z"/>
	<path class="st0" d="M55.9,82.1c0.9,0.2,1.7,0.3,2.5,0.6c4.2,1.3,7.1,5.1,7.4,9.5c0.1,1.6-0.7,2.4-2.3,2.4c-9,0-18,0-27,0
		c-1.7,0-2.4-0.9-2.3-2.6c0.4-4.9,3.8-8.7,8.6-9.6c0.4-0.1,0.8-0.2,1.3-0.3c0-1.9,0.1-3.8-0.1-5.8c0-0.4-0.7-0.9-1.1-1.1
		c-8.6-3-14.1-8.7-16.4-17.5c-0.4-1.6-0.5-3.4-0.7-5.1c-0.1-1.6,0.7-2.5,1.9-2.5c1.2,0,1.9,0.8,2,2.5c0.4,8.6,5.6,15.8,13.6,18.6
		c12.9,4.5,26.4-4.7,27.1-18.3c0-0.7,0.1-1.6,0.5-2s1.5-0.8,2-0.6c0.6,0.3,1.4,1.4,1.3,2c-0.4,3-0.7,6.1-1.7,8.8
		c-2.8,7.1-8,11.8-15.3,14.1c-1,0.3-1.2,0.7-1.2,1.6C56,78.5,55.9,80.3,55.9,82.1z M38.5,90.7c7.7,0,15.3,0,22.9,0
		c-0.9-2.8-3.1-4.5-5.9-4.5c-3.7,0-7.4,0-11.1,0C41.7,86.2,39.5,87.9,38.5,90.7z M51.8,82.1c0-2,0-3.9,0-5.8c-1.2,0-2.4,0-3.5,0
		c0,2,0,3.8,0,5.8C49.4,82.1,50.6,82.1,51.8,82.1z"/>
	<path class="st0" d="M12.8,35.3c0,7.4,0,14.8,0,22.2c0,0.4,0,0.8,0,1.2c-0.1,1.1-0.8,1.7-1.8,1.8c-1.1,0-1.9-0.6-1.9-1.8
		c0-0.2,0-0.4,0-0.6c0-15.2,0-30.5,0-45.7c0-0.3-0.1-0.7,0-0.9c0.5-0.6,1.1-1.4,1.8-1.6c1-0.2,1.8,0.5,1.9,1.6c0.1,0.5,0,0.9,0,1.4
		C12.8,20.3,12.8,27.8,12.8,35.3z"/>
	<path class="st0" d="M91,35.3c0,7.4,0,14.8,0,22.2c0,0.5,0.2,1.1-0.1,1.4c-0.5,0.6-1.1,1.5-1.8,1.6c-1,0.2-1.8-0.5-1.9-1.6
		c0-0.3,0-0.6,0-0.9c0-15.1,0-30.3,0-45.4c0-0.4-0.1-0.9,0.1-1.1c0.5-0.6,1.1-1.5,1.8-1.6c1-0.2,1.8,0.5,1.9,1.6
		c0.1,0.5,0,0.9,0,1.4C91,20.3,91,27.8,91,35.3z"/>
	<path class="st0" d="M0,35.1c0-4,0-8,0-12c0-1.8,0.6-2.6,2-2.6c1.3,0,1.9,0.8,1.9,2.6c0,8,0,16,0,24c0,1.8-0.7,2.6-2,2.6
		S0,48.9,0,47.1C0,43.1,0,39.1,0,35.1z"/>
	<path class="st0" d="M21.9,35.1c0,4,0,8,0,12c0,1.8-0.6,2.6-2,2.6c-1.3,0-1.9-0.8-1.9-2.6c0-8,0-16,0-24c0-1.8,0.6-2.6,2-2.6
		c1.3,0,1.9,0.8,1.9,2.6C21.9,27.1,21.9,31.1,21.9,35.1z"/>
	<path class="st0" d="M82,35c0,4.1,0.1,8.1,0,12.2c0,0.8-0.4,1.8-1,2.3c-1.3,1-2.9-0.1-2.9-1.9c0-2.5,0-5,0-7.5c0-5.7,0-11.3,0-17
		c0-1.1,0.2-2.1,1.4-2.5c1.4-0.4,2.5,0.5,2.5,2.3C82.1,26.9,82,31,82,35z"/>
	<path class="st0" d="M96.1,35c0-3.9,0-7.9,0-11.8c0-1.8,0.6-2.6,1.9-2.6s2,0.8,2,2.6c0,8,0,16,0,24c0,1.8-0.6,2.6-1.9,2.6
		s-2-0.8-2-2.6C96.1,43.1,96.1,39,96.1,35z"/>
	<path class="st0" d="M51.9,7.5c0,0.9-0.6,1.6-1.8,1.6c-1.2,0.1-2-0.7-2-1.9c0-1.1,0.8-2,2-1.9C51.2,5.4,51.9,6.1,51.9,7.5z"/>
	<path class="st0" d="M50.2,52.2c0.9,0.1,1.6,0.6,1.7,1.8c0,1.2-0.7,2-1.9,2c-1.1,0-1.9-0.8-1.9-2C48.1,52.9,48.9,52.2,50.2,52.2z"
		/>
</g>
</svg>
