<?xml version="1.0" encoding="utf-8"?>
<!-- Generator: Adobe Illustrator 25.0.0, SVG Export Plug-In . SVG Version: 6.00 Build 0)  -->
<svg version="1.1" id="Layer_1" xmlns="http://www.w3.org/2000/svg" xmlns:xlink="http://www.w3.org/1999/xlink" x="0px" y="0px"
	 viewBox="0 0 100 100" style="enable-background:new 0 0 100 100;" xml:space="preserve">
<g>
	<path d="M12.7,57.3c0,0.6,0,1.2,0,1.8c0,12.3,0,24.6,0,36.9c0,3.3-0.8,4-4.1,4c-0.5,0-0.9,0-1.4,0c-2.6,0-3.5-0.9-3.5-3.5
		c0-12.5,0-25,0-37.5c0-0.6,0-1.1,0-1.8c-0.4-0.1-0.7-0.2-1-0.3c-1.6-0.3-2.5-1.3-2.6-2.9c-0.1-1.3-0.1-2.6,0-3.9
		c0.1-1.8,1.4-2.9,3.4-3c2.6,0,5.1,0,7.7,0c0.5,0,1,0,1.5-0.1c0.6-5,3-8.6,7.9-10.1c1.1-0.3,2.2-0.4,3.4-0.5c4.4,0,8.9,0,13.3,0
		c6.3,0,10.5,3.7,11.3,10c0,0.1,0.1,0.3,0.2,0.5c0.9,0,1.7,0,2.6,0c0.3-1.2,0.5-2.5,1-3.7c1.8-4.2,5-6.6,9.6-6.8c5-0.2,10-0.1,15,0
		c5.3,0.1,9.6,4.2,10.3,9.5c0,0.3,0.1,0.6,0.1,1.1c2.9,0,5.7,0,8.4,0c3.1,0,4.2,1.1,4.2,4.2c0,0.4,0,0.8,0,1.2
		c0,3.1-0.5,3.8-3.7,4.5c0,0.5,0,1.1,0,1.6c0,7.9,0,15.8,0,23.7c0,0.4,0,0.7,0,1.1c0,1-0.5,1.7-1.5,1.5c-0.5-0.1-1.3-1-1.3-1.5
		c-0.1-4.4-0.1-8.7-0.1-13.1c0-4.4,0-8.8,0-13.4c-1,0-2,0-3,0c0,13.2,0,26.5,0,39.8c0.9,0,1.8,0,3,0c0-1.6,0-3.2,0-4.9
		c0-0.5-0.2-1.1,0.1-1.5c0.3-0.5,0.9-1.2,1.3-1.2c0.5,0.1,1.4,0.7,1.4,1.2c0.1,2.4,0.2,4.8,0,7.2c-0.1,1.4-1.2,2.1-2.6,2.2
		c-1,0.1-2,0-3,0c-2.2,0-3.2-1-3.3-3.2c0-3.7,0-7.4,0-11.1c0-8.9,0-17.7,0-26.6c0-0.6,0-1.2,0-1.8c-1.5-0.5-2.1-0.2-2.3,1.3
		c-0.3,1.8-0.8,3.6-1.2,5.5c-1,4.4-3.3,6.4-7.8,6.6c-0.2,0-0.4,0-0.8,0.1c-0.1,0.9-0.2,1.8-0.3,3c1.3,0,2.6,0,3.8,0
		c2.9,0.1,5.3,2.6,5.4,5.5c0,2-1.5,3.5-3.8,3.5c-3,0-6,0-9.2,0c0,3.5,0,6.9,0,10.3c1.6,0.2,3.1,0.2,4.6,0.5c2.3,0.5,3.9,1.9,5,3.9
		c0.5,0.9,0.7,1.8-0.4,2.4c-1,0.5-1.7-0.1-2.1-0.9c-1-1.9-2.6-2.7-4.7-2.7c-2.7,0-5.3,0-8,0c-2.1,0-3.7,0.8-4.7,2.7
		c-0.5,0.9-1.2,1.5-2.2,0.9c-1-0.6-0.8-1.5-0.3-2.3c1.5-2.8,3.9-4.1,7-4.3c0.9,0,1.8,0,2.8,0c0-3.5,0-6.9,0-10.4c-2.8,0-5.5,0-8.2,0
		c-3.4,0-4.9-1-5-3.4c-0.1-2.8,2.3-5.4,5.1-5.6c1.3-0.1,2.7,0,4.2,0c-0.1-1.1-0.2-2-0.3-3c-0.4,0-0.8-0.1-1.2-0.1
		c-4-0.1-6.7-2.3-7.5-6.2c-0.4-2.1-0.9-4.2-1.4-6.2c-0.2-0.8-0.6-1.2-1.5-1.2c-0.9,0.1-1.9,0.1-2.8,0c-1.7-0.1-3.2-0.1-3.3,2.3
		c0,0.4-1.1,0.7-1.7,1c-0.3-0.6-1-1.3-0.9-1.8c0.5-2.9,1.2-5.7,1.8-8.5c1.4-6-2-10.4-8.3-10.5c-4.2,0-8.4,0-12.7,0
		c-6.3,0-9.7,4.6-8.2,10.7c1,4.2,2,8.5,2.9,12.8c0.8,3.7,2,4.8,5.7,4.8c3.9,0,7.8,0,11.7,0c2.3,0,4.2-0.5,5.4-2.7
		c0.2-0.4,1.3-0.5,1.9-0.7c0.2,0.7,0.7,1.5,0.5,2c-1.1,2.5-3.2,3.9-5.9,4.2c-0.6,0.1-1.2,0-2,0c-0.1,1-0.1,1.9-0.2,3.1
		c1.3,0,2.6,0,3.8,0c2.6,0.1,4.8,2.2,5.1,4.8c0.3,2.6-1,4.1-3.6,4.2c-2.5,0.1-5,0-7.5,0c-0.6,0-1.1,0-1.8,0c0,3.5,0,6.9,0,10.3
		c1.6,0.2,3.2,0.2,4.7,0.5c2.3,0.5,4,1.9,5.1,4.1c0.5,0.9,0.5,1.7-0.5,2.3c-0.9,0.5-1.6,0-2-0.8c-1.1-2.1-2.8-2.9-5.1-2.9
		c-2.6,0-5.1,0-7.7,0c-2.1,0-3.7,0.8-4.7,2.7c-0.5,0.9-1.1,1.5-2.1,1c-1.1-0.6-1-1.5-0.5-2.4c1.5-2.8,3.9-4.1,7-4.3
		c0.9,0,1.7,0,2.7,0c0-3.5,0-6.9,0-10.5c-2.6,0-5.1,0-7.7,0c-0.8,0-1.6,0-2.3,0c-2-0.2-3.2-1.8-3.1-3.8c0.2-2.8,2.6-5.1,5.3-5.2
		c1.3,0,2.6,0,4,0c-0.1-1.1-0.2-2-0.3-3c-0.5,0-0.9-0.1-1.3-0.1c-3.7-0.1-6.3-2.2-7.2-5.8c-0.5-2.1-1-4.3-1.5-6.4
		C14.6,56.9,14.6,56.9,12.7,57.3z M69.3,39.5c0,0,0,0.1,0,0.1c-2.7,0-5.3-0.2-8,0c-4.8,0.4-7.8,4.8-6.8,9.5c1,4.8,2.1,9.5,3.2,14.3
		c0.7,3.2,2.1,4.3,5.3,4.3c4.1,0,8.1,0,12.2,0c3.5,0,4.9-1.2,5.6-4.6c1-4.4,1.9-8.8,3-13.2c1.4-5.8-2.1-10.3-8-10.4
		C73.7,39.5,71.5,39.5,69.3,39.5z M6.7,57.1c0,13.3,0,26.6,0,39.9c1,0,1.9,0,2.9,0c0-13.3,0-26.6,0-39.9C8.6,57.1,7.7,57.1,6.7,57.1
		z M80.8,79.6c0.2-1.8-0.7-3-2.5-3c-6-0.1-12-0.1-17.9,0c-1.8,0-2.6,1.1-2.5,3C65.5,79.6,73.2,79.6,80.8,79.6z M19.1,79.6
		c7.7,0,15.3,0,23,0c0.1-2-0.9-3-2.8-3c-2-0.1-4,0-6.1,0c-3.7,0-7.5,0-11.2,0C19.9,76.6,18.9,77.6,19.1,79.6z M3.1,54
		c3.7,0,7.2,0,10.9,0c-0.2-1.1-0.4-2.1-0.7-3.1c-0.1-0.3-0.5-0.6-0.7-0.6c-3.1,0-6.3,0-9.5,0C3.1,51.6,3.1,52.7,3.1,54z M86.1,54
		c3.6,0,7.2,0,10.7,0c0-1.2,0-2.4,0-3.5c-0.2-0.1-0.3-0.2-0.4-0.2c-2.1,0-4.3,0-6.4,0C86.5,50.3,86.5,50.3,86.1,54z M52.7,54
		c-0.3-1.3-0.6-2.5-0.9-3.6c-4.1-0.1-3.6-1-4.3,3.6C49.1,54,50.8,54,52.7,54z M71.8,73.6c0.1-1,0.2-1.9,0.3-2.9c-1.9,0-3.6,0-5.4,0
		c0.1,1,0.2,1.9,0.3,2.9C68.6,73.6,70.1,73.6,71.8,73.6z M27.9,70.7c0.1,1.1,0.3,2,0.4,2.9c1.7,0,3.2,0,4.8,0c0.1-1,0.2-1.9,0.4-2.9
		C31.6,70.7,29.8,70.7,27.9,70.7z"/>
	<path d="M83.4,8.5c-10.9,0-21.3,0-31.8,0c-0.2,1.6-0.3,2.7,1.4,3.8c1,0.7,1.7,2.4,1.9,3.7c0.1,1.5,0.6,2.3,1.7,3.2
		c2.1,1.7,3.3,4,3.7,6.7c0.2,1.7-0.5,2.6-2.2,2.6c-5.3,0-10.6,0-15.9,0c-1.7,0-2.4-0.9-2.2-2.6c0.4-3,1.9-5.3,4.3-7.2
		c0.5-0.4,0.9-1.2,1-1.9c0.1-2.3,0.9-3.9,2.8-5.2c0.6-0.4,0.6-1.8,0.9-3c-10.8,0-21.2,0-31.8,0c-0.1,1.4-0.5,2.7,1.3,3.6
		c1.5,0.8,2.1,2.4,2,4.1c-0.1,1.1,0.3,1.9,1.3,2.6c2.5,1.7,3.8,4.2,4.1,7.2c0.1,1.6-0.6,2.3-2.2,2.3c-5.4,0-10.7,0-16.1,0
		c-1.5,0-2.2-0.7-2.1-2.3c0.2-3.2,1.7-5.6,4.3-7.5c0.8-0.5,1.1-1.1,1.1-2c-0.2-2.3,0.8-3.9,2.8-5.2c0.6-0.4,0.6-1.8,0.9-3.1
		c-3.4,0-6.3,0-9.3,0C4.4,8.4,3.6,8.4,3,8.2C1,7.6-0.2,5.7,0,3.7c0.2-2,1.8-3.5,3.8-3.7c0.4,0,0.8,0,1.2,0C35.1,0,65,0,94.9,0
		c0.9,0,1.9,0.1,2.7,0.5c1.7,0.7,2.6,2.7,2.3,4.5c-0.4,2-2.1,3.4-4.3,3.4c-3.2,0-6.3,0-9.6,0c-0.2,1.6-0.5,2.9,1.4,3.8
		c1.6,0.8,2.1,2.5,1.9,4.3c-0.1,1,0.3,1.6,1.1,2.2c2.5,1.7,3.9,4.1,4.2,7.2c0.2,1.8-0.5,2.5-2.3,2.5c-5.3,0-10.5,0-15.8,0
		c-1.8,0-2.5-0.7-2.3-2.5c0.3-3.1,1.9-5.4,4.3-7.3c0.5-0.4,1-1.2,1-1.8c0-2.3,0.8-3.9,2.8-5.2C83,11.1,83,9.7,83.4,8.5z M49.9,5.5
		c14.8,0,29.6,0,44.4,0c1.1,0,2.7,0.4,2.7-1.3c0-1.6-1.5-1.3-2.6-1.3c-29.6,0-59.1,0-88.7,0c-0.3,0-0.6,0-0.9,0
		C3.8,2.9,2.9,3.3,3,4.2c0.1,0.5,1,0.9,1.6,1.2c0.3,0.2,0.8,0,1.2,0C20.6,5.5,35.2,5.5,49.9,5.5z M57,25.6c-0.4-3.2-3.5-6-7.3-5.8
		c-3.4,0.1-6.4,2.8-6.7,5.8C47.7,25.6,52.3,25.6,57,25.6z M22.5,25.6c-0.7-3.6-4.1-6.2-7.5-5.8c-3.5,0.4-6.4,3-6.4,5.8
		C13.2,25.6,17.8,25.6,22.5,25.6z M91.5,25.6c-0.5-3.4-3.7-5.9-7.1-5.9c-3.4,0.1-6.6,2.8-6.8,5.9C82.2,25.6,86.8,25.6,91.5,25.6z
		 M17.4,16.8c0-1.8-0.7-2.8-2-2.7c-1.3,0.1-1.9,1.1-1.6,2.7C14.9,16.8,16.1,16.8,17.4,16.8z M52.3,16.8c-0.6-1-0.8-1.9-1.4-2.4
		c-0.4-0.3-1.5-0.2-2,0.1c-0.5,0.5-0.7,1.4-1,2.3C49.5,16.8,50.6,16.8,52.3,16.8z M82.7,16.8c1.2,0,2.4,0,3.7,0
		c0.1-1.7-0.5-2.7-1.8-2.7C83.2,14.1,82.5,15.1,82.7,16.8z"/>
</g>
</svg>
