<?xml version="1.0" encoding="utf-8"?>
<!-- Generator: Adobe Illustrator 25.0.0, SVG Export Plug-In . SVG Version: 6.00 Build 0)  -->
<svg version="1.1" id="Layer_1" xmlns="http://www.w3.org/2000/svg" xmlns:xlink="http://www.w3.org/1999/xlink" x="0px" y="0px"
	 viewBox="0 0 250 250" style="enable-background:new 0 0 250 250;" xml:space="preserve">
<style type="text/css">
	.st0{clip-path:url(#SVGID_2_);fill:#FFFCF9;}
	.st1{clip-path:url(#SVGID_2_);}
	.st2{fill:#26547C;}
	.st3{clip-path:url(#SVGID_4_);}
	.st4{fill:url(#SVGID_5_);}
	.st5{clip-path:url(#SVGID_7_);}
	.st6{fill:url(#SVGID_8_);}
</style>
<g>
	<defs>
		<circle id="SVGID_1_" cx="125" cy="125" r="125"/>
	</defs>
	<clipPath id="SVGID_2_">
		<use xlink:href="#SVGID_1_"  style="overflow:visible;"/>
	</clipPath>
	<circle class="st0" cx="125" cy="125" r="125"/>
	<g class="st1">
		<g>
			<path class="st2" d="M185.8,71h-85.4v37.8c3.6-4,8.8-7.3,15.3-9.8c6.6-2.6,13.7-3.8,21.3-3.8c13.7,0,25,3.1,34.1,9.3
				c9,6.2,15.6,14.2,19.8,24.1c4.2,9.8,6.3,20.5,6.3,32c0,21.3-6,38.3-18.1,50.8c-12,12.5-29,18.7-50.9,18.7
				c-14.6,0-27.3-2.5-38-7.5c-10.8-5-19.1-12-24.9-20.9c-5.8-8.9-9-19.2-9.6-30.9h45.7c1.1,5.7,3.7,10.4,7.9,14.1
				c4.2,3.7,9.9,5.6,17.2,5.6c8.6,0,15-2.7,19.2-8.2c4.2-5.5,6.3-12.8,6.3-21.9c0-8.9-2.2-15.8-6.6-20.5c-4.4-4.7-10.8-7.1-19.2-7.1
				c-6.2,0-11.3,1.5-15.3,4.5c-4,3-6.7,7-7.9,11.9H58V30h127.8V71z"/>
		</g>
		<g>
			<defs>
				<circle id="SVGID_3_" cx="174.8" cy="130" r="100"/>
			</defs>
			<clipPath id="SVGID_4_">
				<use xlink:href="#SVGID_3_"  style="overflow:visible;"/>
			</clipPath>
			<g class="st3">
				<linearGradient id="SVGID_5_" gradientUnits="userSpaceOnUse" x1="55.8266" y1="130" x2="197.2765" y2="130">
					<stop  offset="5.618133e-03" style="stop-color:#005B97"/>
					<stop  offset="1" style="stop-color:#06B3D6"/>
				</linearGradient>
				<path class="st4" d="M185.8,71h-85.4v37.8c3.6-4,8.8-7.3,15.3-9.8c6.6-2.6,13.7-3.8,21.3-3.8c13.7,0,25,3.1,34.1,9.3
					c9,6.2,15.6,14.2,19.8,24.1c4.2,9.8,6.3,20.5,6.3,32c0,21.3-6,38.3-18.1,50.8c-12,12.5-29,18.7-50.9,18.7
					c-14.6,0-27.3-2.5-38-7.5c-10.8-5-19.1-12-24.9-20.9c-5.8-8.9-9-19.2-9.6-30.9h45.7c1.1,5.7,3.7,10.4,7.9,14.1
					c4.2,3.7,9.9,5.6,17.2,5.6c8.6,0,15-2.7,19.2-8.2c4.2-5.5,6.3-12.8,6.3-21.9c0-8.9-2.2-15.8-6.6-20.5
					c-4.4-4.7-10.8-7.1-19.2-7.1c-6.2,0-11.3,1.5-15.3,4.5c-4,3-6.7,7-7.9,11.9H58V30h127.8V71z"/>
			</g>
		</g>
		<g>
			<defs>
				<circle id="SVGID_6_" cx="88.3" cy="221.3" r="100"/>
			</defs>
			<clipPath id="SVGID_7_">
				<use xlink:href="#SVGID_6_"  style="overflow:visible;"/>
			</clipPath>
			<g class="st5">
				<linearGradient id="SVGID_8_" gradientUnits="userSpaceOnUse" x1="55.8266" y1="130" x2="197.2765" y2="130">
					<stop  offset="1.385225e-07" style="stop-color:#06B3D6"/>
					<stop  offset="0.9944" style="stop-color:#005B97"/>
				</linearGradient>
				<path class="st6" d="M185.8,71h-85.4v37.8c3.6-4,8.8-7.3,15.3-9.8c6.6-2.6,13.7-3.8,21.3-3.8c13.7,0,25,3.1,34.1,9.3
					c9,6.2,15.6,14.2,19.8,24.1c4.2,9.8,6.3,20.5,6.3,32c0,21.3-6,38.3-18.1,50.8c-12,12.5-29,18.7-50.9,18.7
					c-14.6,0-27.3-2.5-38-7.5c-10.8-5-19.1-12-24.9-20.9c-5.8-8.9-9-19.2-9.6-30.9h45.7c1.1,5.7,3.7,10.4,7.9,14.1
					c4.2,3.7,9.9,5.6,17.2,5.6c8.6,0,15-2.7,19.2-8.2c4.2-5.5,6.3-12.8,6.3-21.9c0-8.9-2.2-15.8-6.6-20.5
					c-4.4-4.7-10.8-7.1-19.2-7.1c-6.2,0-11.3,1.5-15.3,4.5c-4,3-6.7,7-7.9,11.9H58V30h127.8V71z"/>
			</g>
		</g>
	</g>
</g>
</svg>
