<?xml version="1.0" encoding="utf-8"?>
<!-- Generator: Adobe Illustrator 25.0.0, SVG Export Plug-In . SVG Version: 6.00 Build 0)  -->
<svg version="1.1" id="Layer_1" xmlns="http://www.w3.org/2000/svg" xmlns:xlink="http://www.w3.org/1999/xlink" x="0px" y="0px"
	 viewBox="0 0 100 100" style="enable-background:new 0 0 100 100;" xml:space="preserve">
<g>
	<path d="M88.7,88.8c0-13.1,0-26.2,0-39.4c-7.8,0-15.4,0-23.1,0c0,1.8,0,3.6,0,5.5c2.7,0,5.4,0,8.1,0c2.6,0,3,0.4,3,3
		c0,2.6,0,5.3,0,7.9c0,2.3-0.5,2.8-2.7,2.8c-6.8,0-13.7,0-20.4,0c-0.5,0-1.1,0-1.8,0c-0.1,0.6-0.1,1.1-0.1,1.6c0,4.6,0,9.2,0,13.7
		c0,1.2,0.3,1.6,1.5,1.5c3.8-0.1,7.7,0,11.6,0c0,1.2,0,2.3,0,3.3c-9.9,0-19.8,0-29.7,0c0-1.1,0-2.1,0-3.3c1.8,0,3.5,0,5.3,0
		c2.3,0,4.5,0.1,6.7-0.1c0.4,0,1.1-0.5,1.1-0.8c0.1-5.1,0-10.3,0-15.5c0-0.1-0.1-0.2-0.2-0.5c-0.5,0-1,0-1.6,0c-6.8,0-13.7,0-20.4,0
		c-2.3,0-2.7-0.5-2.7-2.8c0-2.8,0-5.5,0-8.3c0-2.2,0.5-2.6,2.7-2.6c2.7,0,5.5,0,8.4,0c0-1.9,0-3.6,0-5.5c-7.6,0-15.2,0-23.1,0
		c0,13.2,0,26.3,0,39.5c-1.2,0-2.3,0-3.4,0c0-13.1,0-26.2,0-39.6c-1.9,0-3.6,0-5.4,0S0,48.6,0,46.9c0-1.9,0-4,0-5.9
		c0-2.3,0.4-2.7,2.7-2.7c9.9,0,19.9,0,29.8,0c0.5,0,1.1,0,1.9,0c0-0.7,0-1.2,0-1.8c0-7.5,0-14.9,0-22.3c0-2.6,0.4-3,2.9-3
		c8.5,0,16.9,0,25.5,0c2.5,0,2.9,0.4,2.9,3c0,7.4,0,14.8,0,22.1c0,0.5,0,1.2,0,1.9c0.6,0,1.2,0,1.7,0c10,0,20,0,30,0
		c2.3,0,2.7,0.4,2.7,2.7c0,2,0,4,0,6.1c0,1.6-0.5,2.2-2.2,2.2c-1.8,0-3.5,0-5.4,0c0,13.2,0,26.3,0,39.5C91,88.8,90,88.8,88.7,88.8z
		 M62,14.6c-8.2,0-16.1,0-24.1,0c0,16.8,0,33.6,0,50.4c8.1,0,16.1,0,24.1,0C62,48.3,62,31.5,62,14.6z M3.4,45.6
		c10.4,0,20.6,0,30.8,0c0-1.4,0-2.6,0-4c-10.3,0-20.5,0-30.8,0C3.4,43.1,3.4,44.3,3.4,45.6z M96.4,41.7c-10.3,0-20.6,0-30.8,0
		c0,1.4,0,2.6,0,4c10.3,0,20.5,0,30.8,0C96.4,44.3,96.4,43.1,96.4,41.7z M34.2,58.3c-2.6,0-5.1,0-7.6,0c0,2.3,0,4.4,0,6.7
		c2.6,0,5,0,7.6,0C34.2,62.7,34.2,60.6,34.2,58.3z M73.1,65.1c0-2.3,0-4.5,0-6.8c-2.6,0-5,0-7.5,0c0,2.3,0,4.5,0,6.8
		C68.1,65.1,70.4,65.1,73.1,65.1z"/>
</g>
</svg>
