<?xml version="1.0" encoding="utf-8"?>
<!-- Generator: Adobe Illustrator 25.0.0, SVG Export Plug-In . SVG Version: 6.00 Build 0)  -->
<svg version="1.1" id="Layer_1" xmlns="http://www.w3.org/2000/svg" xmlns:xlink="http://www.w3.org/1999/xlink" x="0px" y="0px"
	 viewBox="0 0 100 100" style="enable-background:new 0 0 100 100;" xml:space="preserve">
<style type="text/css">
	.st0{fill:#B3B3B3;}
</style>
<g>
	<path class="st0" d="M42.8,94c0.8-5.7,2.8-11.2,2.1-17.2c-1,0-2,0-3,0c-2.3,0-3.6-1.3-3.6-3.6c0-2.8,0-5.5,0-8.3
		c0-2.3,1.3-3.5,3.6-3.6c1.7,0,3.4,0,5.3,0c0-1,0-1.8,0-2.6c0-2.1,1.2-3.4,3.2-3.4c2.7-0.1,5.4-0.1,8.1,0c1.8,0,3.1,1.2,3.1,3
		c0.1,5.1,0.1,10.2,0,15.3c0,1.8-1.3,3.1-3.2,3.2c-1.1,0.1-2.2,0-3.3,0c-0.8,5.9,1.3,11.4,2,17.2c0.7,0,1.2,0,1.8,0
		c11.9,0,23.9,0,35.8,0c2.5,0,2.8-0.5,1.9-2.8c-0.6-1.6-1.3-3.2-1.9-4.8c-0.3-0.8-0.8-1.1-1.6-1.1c-2.1,0.1-4.3,0-6.4,0
		c-1.1,0-2.6,0.4-2.6-1.4c0-1.7,1.4-1.5,2.5-1.5c2.1,0,4.1,0,6.5,0c-1.2-3-2.1-5.9-3.4-8.6c-2.4-5.2-3.4-10.5-3.2-16.2
		c0.2-4,0-8,0-12.2c-0.3,0.2-0.5,0.3-0.6,0.4c-2,1.5-4.1,1.1-5.3-1.2c-3.8-7.2-7.5-14.4-11.3-21.6c-0.7-1.3-0.8-2.6,0.1-3.8
		c1-1.3,2.3-1.5,3.8-1.2c2.4,0.5,4.9,1,7.4,1.3c2.2,0.3,4.3,0.7,5.9,3.1c0.1-0.9,0.1-1.3,0.1-1.8c0-4.3,0-8.5,0-12.8
		c0-1.8-0.3-2.1-2.1-2.1c-4.6,0-9.3,0-13.9,0c-1.1,0-2.1-0.1-2.1-1.5c0-1.4,1.1-1.4,2.1-1.4c4.8,0,9.6,0,14.4,0
		c2.8,0,4.5,1.6,4.5,4.4c0,4.9,0,9.9,0,14.8c0,0.5,0,1,0,1.8c1.9-1.2,3.6-2.3,5.3-3.4c1-0.6,1.9-1.3,2.8-2c0.8-0.6,1.7-0.6,2.1,0.3
		c0.2,0.5,0,1.8-0.4,1.9c-2.9,1.3-2.7,3.7-2.7,6.2c0.1,17.8,0,35.6,0,53.4c0,1.8,0.2,3.5,1,5.1c0.8,1.7,1.5,3.4,2.1,5.2
		c1.1,3.1-0.7,5.8-4,5.8c-23.2,0-46.5,0-69.7,0c-1.1,0-2-0.2-2-1.4c0-1.3,1-1.5,2.1-1.5c5,0,10,0,15,0C41.6,94,42.2,94,42.8,94z
		 M93.6,25c-0.9,0.6-1.6,1-2.3,1.4c-2.2,1.4-2.5,1.1-1,3.6c1.3,2.2,1.4,4.2,0.2,6.5c-0.5,1-1,2.1-1,3.2c-0.1,7.5-0.1,15,0,22.5
		c0,4.7,2.3,8.7,4.2,12.9C93.6,58.6,93.6,41.9,93.6,25z M71.4,21c4.1,7.9,8.1,15.5,12.2,23.4c1.7-3.7,3.2-7,4.7-10.3
		c0.2-0.5,0-1.2-0.3-1.8c-1.3-2.7-2.7-5.4-4.2-8c-0.4-0.7-1.2-1.3-2-1.5c-2.1-0.5-4.2-0.8-6.3-1.2C74.3,21.4,73.1,21.2,71.4,21z
		 M41.4,64.4c0,3.2,0,6.2,0,9.3c5.8,0,11.6,0,17.2,0c0-3.2,0-6.2,0-9.3C52.8,64.4,47.2,64.4,41.4,64.4z M47.7,83.8
		c-0.6,3.4-1.2,6.7-1.9,10.1c2.9,0,5.5,0,8.3,0c-0.7-3.4-1.3-6.7-1.9-10.1C50.8,83.8,49.4,83.8,47.7,83.8z M50.2,61.2
		c2.9,0,5.7,0,8.4,0c0-1.1,0-2,0-3c-2.9,0-5.6,0-8.4,0C50.2,59.2,50.2,60.2,50.2,61.2z M48.1,76.9c0,1.4,0,2.6,0,3.9
		c1.3,0,2.5,0,3.8,0c0-1.4,0-2.6,0-3.9C50.6,76.9,49.4,76.9,48.1,76.9z"/>
	<path class="st0" d="M13.6,45.7c0,4.9-0.1,9.6,0,14.4c0.1,3.8-0.5,7.4-2,11c-1.3,3.2-2.6,6.5-3.9,9.7c-0.2,0.5-0.4,1-0.6,1.8
		c2.4,0,4.6,0,6.9,0c1.1,0,2.1,0.1,2.1,1.5c0,1.4-1.1,1.4-2.1,1.4c-2.2,0-4.5,0-6.7,0c-1,0-1.5,0.2-1.8,1.2c-0.6,1.7-1.3,3.4-2,5.1
		C2.7,93.5,3,94,5,94c4.1,0,8.1,0,12.2,0c0.4,0,0.9-0.1,1.2,0c0.6,0.4,1.1,0.9,1.6,1.4c-0.5,0.5-1,1.3-1.6,1.4
		c-2.1,0.2-4.2,0.1-6.2,0.1c-2.7,0-5.3,0-8,0c-3.1-0.1-4.9-2.7-3.9-5.6c0-0.1,0.1-0.3,0.2-0.4c2.6-4.9,3.1-10.2,3-15.7
		c-0.2-16.7-0.1-33.3,0-50c0-1.5-0.3-2.5-1.7-3.3c-1-0.6-2.4-1.2-1.4-2.7c1-1.5,2.1-0.3,3,0.3c2.3,1.5,4.7,3.1,7.3,4.8
		c0-2.5,0-4.7,0-6.9c0-3.3,0-6.7,0-10c0-2.6,1.6-4.3,4.3-4.3c15.8,0,31.6,0,47.3,0c0.7,0,1.8,0.5,1.9,0.9c0.1,0.6-0.3,1.6-0.8,2.1
		c-3.3,3-6.7,5.9-10.2,8.8c-1.2,1-1.9,2.2-1.7,3.8c0.1,0.6,0.1,1.2,0,1.7c-0.2,1.4,0.1,2.4,1.6,3.1c1.3,0.7,2,2.1,2,3.7
		c0,2.2,0.1,4.4,0,6.6c-0.1,2.7-2.3,4.7-5,4.7c-2.7,0-4.9-2.1-5-4.8c-0.1-2.1,0-4.3,0-6.4c0-1.8,0.9-3.2,2.4-4.1
		c0.9-0.5,1.3-1.1,1.1-2.1c-0.7-4.3,0.9-7.5,4.5-10c2-1.4,3.7-3.2,5.8-5C58.1,6.1,57.7,6,57.2,6C43.4,6,29.6,6,15.8,6
		c-2,0-2.3,0.3-2.3,2.2c0,4.6,0,9.3,0,14.1c4-3.7,9.3-2.8,13.9-4.1c1.3-0.4,2.5,0.3,3.2,1.4c0.8,1.2,0.7,2.4,0.1,3.7
		c-3.3,6.4-6.6,12.7-9.9,19.1c-0.3,0.5-0.5,1-0.8,1.5C18.3,47.2,16.9,47.6,13.6,45.7z M6.4,25c0,16.9,0,33.5,0,50.1
		c0.1,0,0.2,0,0.2,0c0.2-0.5,0.5-1,0.7-1.5c2.6-5.3,3.6-10.9,3.3-16.8c-0.3-5.3,0-10.6-0.1-15.9c0-1.3-0.3-2.7-0.9-3.8
		c-1.3-2.5-1.3-4.8,0.2-7.2c1.2-1.9,1.1-2-0.8-3.1C8.3,26.2,7.5,25.7,6.4,25z M28.5,21.2c-0.5-0.1-0.7-0.1-0.9-0.1
		c-3.2,0.6-6.5,1.1-9.6,1.8c-0.7,0.1-1.4,0.8-1.8,1.5c-1.5,2.6-2.8,5.2-4.1,7.9c-0.3,0.7-0.3,1.8,0,2.6c0.8,2,1.8,4,2.7,6
		c0.5,1.1,1,2.1,1.7,3.5C20.6,36.4,24.5,28.9,28.5,21.2z M52.2,30.6c0-1,0.1-2.1,0-3.1c-0.1-1.3-1.1-2.2-2.2-2.1
		c-1.3,0.1-2,0.9-2.1,2.1c-0.1,2-0.1,3.9,0,5.9c0,1.3,1.1,2.2,2.2,2.1c1.2-0.1,2-0.8,2.1-2.1C52.3,32.4,52.2,31.5,52.2,30.6z"/>
	<path class="st0" d="M52.2,68c0.1,1.4-2.1,3.5-3,3.2c-0.5-0.2-1.3-1.3-1.3-1.3c0.9-1,1.9-2,3-2.9C51,66.9,51.9,67.7,52.2,68z"/>
</g>
</svg>
