<?xml version="1.0" encoding="utf-8"?>
<!-- Generator: Adobe Illustrator 25.0.0, SVG Export Plug-In . SVG Version: 6.00 Build 0)  -->
<svg version="1.1" id="Layer_1" xmlns="http://www.w3.org/2000/svg" xmlns:xlink="http://www.w3.org/1999/xlink" x="0px" y="0px"
	 viewBox="0 0 423 100" style="enable-background:new 0 0 423 100;" xml:space="preserve">
<style type="text/css">
	.st0{fill:#F69220;}
	.st1{fill:#06B3D6;}
</style>
<g>
	<path class="st0" d="M378.5,54.5H351v18h49.5C389.6,72.5,380.5,64.8,378.5,54.5z"/>
	<path class="st0" d="M405,54.5h-26.5c2.1,10.3,11.2,18,22,18c1.5,0,3-0.2,4.5-0.5V54.5z"/>
	<path class="st1" d="M108,63.5h18v-45c0-9.9-8.1-18-18-18h0V63.5z"/>
	<path class="st1" d="M54,63.5h18v-63h0c-9.9,0-18,8.1-18,18V63.5z"/>
	<path class="st1" d="M36,27.5c-19.9,0-36,16.1-36,36s16.1,36,36,36c19.9,0,36-16.1,36-36S55.9,27.5,36,27.5z M36,81.5
		c-9.9,0-18-8.1-18-18c0-9.9,8.1-18,18-18c9.9,0,18,8.1,18,18C54,73.4,45.9,81.5,36,81.5z"/>
	<circle class="st1" cx="90" cy="9.5" r="9"/>
	<path class="st1" d="M144,27.5c-19.9,0-36,16.1-36,36s16.1,36,36,36c19.9,0,36-16.1,36-36S163.9,27.5,144,27.5z M144,81.5
		c-9.9,0-18-8.1-18-18c0-9.9,8.1-18,18-18c9.9,0,18,8.1,18,18C162,73.4,153.9,81.5,144,81.5z"/>
	<path class="st1" d="M99,99.5L99,99.5l0-54c0-9.9-8.1-18-18-18h0v54C81,91.4,89.1,99.5,99,99.5z"/>
	<circle class="st0" cx="279" cy="9.5" r="9"/>
	<path class="st0" d="M288,99.5L288,99.5v-54c0-9.9-8.1-18-18-18h0v54C270,91.4,278.1,99.5,288,99.5z"/>
	<path class="st0" d="M333,45.5L333,45.5c0-9.9-8.1-18-18-18h-18v18H333z"/>
	<path class="st0" d="M351,99.5L351,99.5c0-9.9-8.1-18-18-18h-36v0c0,9.9,8.1,18,18,18H351z"/>
	<path class="st0" d="M315,18.5c0-9.9-8.1-18-18-18h0v35.8c5-4.3,11.2-7.3,18-8.4V18.5z"/>
	<path class="st0" d="M315,99.5v-0.4c-4.3-0.7-8.3-2.1-12-4.1C306.2,97.8,310.4,99.5,315,99.5z"/>
	<path class="st0" d="M297,36.3v45.2c0,5.3,2.3,10.1,6,13.4c3.6,2,7.7,3.5,12,4.1V27.9C308.2,29,302,32,297,36.3z"/>
	<path class="st0" d="M207,27.5c9.9,0,18,8.1,18,18h18c9.9,0,18-8.1,18-18v0H207z"/>
	<path class="st0" d="M207,27.5c-1.8,0-3.6,0.3-5.3,0.8c3.1,1.4,5.3,4.5,5.3,8.2v9h18C225,35.6,216.9,27.5,207,27.5z"/>
	<path class="st0" d="M189.8,40.2c1.4,3.1,4.5,5.3,8.2,5.3h9v-9c0-3.7-2.2-6.8-5.3-8.2C196,30,191.5,34.5,189.8,40.2z"/>
	<path class="st0" d="M225,81.5h-18c-9.9,0-18,8.1-18,18v0h54C233.1,99.5,225,91.4,225,81.5z"/>
	<path class="st0" d="M243,90.5v-9h-18c0,9.9,8.1,18,18,18c1.8,0,3.6-0.3,5.3-0.8C245.2,97.3,243,94.2,243,90.5z"/>
	<path class="st0" d="M248.3,98.7c5.7-1.7,10.1-6.2,11.9-11.9c-1.4-3.1-4.5-5.3-8.2-5.3h-9v9C243,94.2,245.2,97.3,248.3,98.7z"/>
	<path class="st0" d="M373.5,27.5c-1.5,0-3,0.2-4.5,0.5v17.5h26.5C393.5,35.2,384.4,27.5,373.5,27.5z"/>
	<path class="st0" d="M351.5,45.5c-0.3,1.5-0.5,3-0.5,4.5c0,10.9,7.7,20,18,22V45.5H351.5z"/>
	<path class="st0" d="M351.5,45.5H369V28C360.2,29.7,353.2,36.7,351.5,45.5z"/>
	<path class="st0" d="M373.5,27.5c5.1,0,9.7,1.7,13.5,4.5c3.8-2.8,8.4-4.5,13.5-4.5H373.5z"/>
	<path class="st0" d="M405,27.5h-4.5c1.5,0,3,0.2,4.5,0.5V27.5z"/>
	<path class="st0" d="M395.5,45.5h9.5V28c-1.5-0.3-3-0.5-4.5-0.5c-5.1,0-9.8,1.7-13.5,4.5C391.3,35.3,394.4,40,395.5,45.5z"/>
	<path class="st0" d="M400.5,72.5h4.5V72C403.5,72.3,402,72.5,400.5,72.5z"/>
	<path class="st0" d="M405,45.5v9h17.5c0.3-1.5,0.5-3,0.5-4.5s-0.2-3-0.5-4.5H405z"/>
	<path class="st0" d="M422.5,45.5c-1.8-8.8-8.7-15.8-17.5-17.5v17.5H422.5z"/>
	<path class="st0" d="M422.5,54.5H405V72C413.8,70.3,420.8,63.3,422.5,54.5z"/>
	<path class="st0" d="M358.6,66.8c-4.6-4.1-7.6-10.1-7.6-16.8v31.5C351,75.4,354,70.1,358.6,66.8z"/>
	<path class="st0" d="M369,72c-3.9-0.8-7.5-2.6-10.4-5.2c-4.6,3.3-7.6,8.6-7.6,14.7h18V72z"/>
	<path class="st0" d="M387,81.5c0,9.9-8.1,18-18,18h36c9.9,0,18-8.1,18-18H387z"/>
	<path class="st0" d="M387,81.5h-18v18C378.9,99.5,387,91.4,387,81.5z"/>
	<path class="st0" d="M351,81.5c0,9.9,8.1,18,18,18v-18H351z"/>
	<path class="st0" d="M260.2,86.8c0.5-1.7,0.8-3.5,0.8-5.3h-9C255.7,81.5,258.8,83.7,260.2,86.8z"/>
	<path class="st0" d="M248,55.2c-1.6-0.5-3.3-0.7-5-0.7v6.8C243,58.6,245,56.3,248,55.2z"/>
	<path class="st0" d="M248,55.2c-3,1.1-5,3.4-5,6v2.2c9.9,0,18,8.1,18,18v-9C261,64.3,255.5,57.4,248,55.2z"/>
	<path class="st0" d="M243,68v13.5h9h9C261,74,252.9,68,243,68z"/>
	<path class="st0" d="M243,63.5V68c9.9,0,18,6,18,13.5C261,71.6,252.9,63.5,243,63.5z"/>
	<path class="st0" d="M189.8,40.2c-0.5,1.7-0.8,3.5-0.8,5.3h9C194.3,45.5,191.2,43.3,189.8,40.2z"/>
	<path class="st0" d="M202,71.8c1.6,0.5,3.3,0.7,5,0.7v-6.8C207,68.4,205,70.7,202,71.8z"/>
	<path class="st0" d="M189,45.5v9c0,8.2,5.5,15.1,13,17.3c3-1.1,5-3.4,5-6v-2.2C197.1,63.5,189,55.4,189,45.5z"/>
	<path class="st0" d="M198,45.5h-9c0,7.5,8.1,13.5,18,13.5V45.5H198z"/>
	<path class="st0" d="M189,45.5c0,9.9,8.1,18,18,18V59C197.1,59,189,53,189,45.5z"/>
	<path class="st0" d="M261,72.5h-54c-9.9,0-18-8.1-18-18v0h54C252.9,54.5,261,62.6,261,72.5L261,72.5z"/>
</g>
</svg>
