<svg id="Layer_1" data-name="Layer 1" xmlns="http://www.w3.org/2000/svg" viewBox="0 0 127.56 36"><defs><style>.cls-1{fill:#25d366;}.cls-2,.cls-3{fill:#fff;}.cls-2{fill-rule:evenodd;}.cls-3{font-size:12px;font-family:Poppins-Medium, Poppins;font-weight:500;}</style></defs><path class="cls-1" d="M8.5,0H119.7a7.86,7.86,0,0,1,7.86,7.86V27.5a8.5,8.5,0,0,1-8.5,8.5H8.5A8.5,8.5,0,0,1,0,27.5V8.5A8.5,8.5,0,0,1,8.5,0Z"/><path class="cls-2" d="M23.58,8.79a9.47,9.47,0,0,1,7.05,15.73,9.37,9.37,0,0,1-6.83,3.2h-.27a9.41,9.41,0,0,1-4.11-.94l-5,1.11a.08.08,0,0,1-.08-.06v0l.84-5a9.47,9.47,0,0,1,8.31-14Zm0,1.64H23.3a7.81,7.81,0,0,0-6.52,11.78l.14.25-.62,3.4,3.36-.8.26.14a7.92,7.92,0,0,0,3.61.88h.22a7.83,7.83,0,0,0-.22-15.65Zm-3.28,3.25.46,0c.17,0,.36,0,.52.43s.62,1.67.68,1.79a.44.44,0,0,1,0,.42,2.34,2.34,0,0,1-.25.39c-.13.13-.26.3-.37.4s-.25.24-.12.48a6.84,6.84,0,0,0,1.27,1.69,6,6,0,0,0,1.87,1.25.78.78,0,0,0,.26.07.39.39,0,0,0,.26-.12c.15-.15.59-.67.78-.91a.35.35,0,0,1,.29-.17,1,1,0,0,1,.25.06c.22.09,1.37.7,1.6.83s.39.19.45.29A2,2,0,0,1,28,21.73a2.43,2.43,0,0,1-1.63,1.08l-.42,0a6.26,6.26,0,0,1-2.42-.71,9.83,9.83,0,0,1-3.95-3.71,4.63,4.63,0,0,1-.89-2.49,2.67,2.67,0,0,1,.89-2,.89.89,0,0,1,.62-.28Z"/><text class="cls-3" transform="translate(41.67 22.83)">Pesan disini</text></svg>