<svg width="126" height="64" viewBox="0 0 126 64" fill="none" xmlns="http://www.w3.org/2000/svg">
<g clip-path="url(#clip0_4188_2137)">
<path d="M112.49 0.00258343C119.46 -0.0753839 126.017 5.53095 126 13.5591C125.983 21.5459 119.46 27.0889 112.429 27.0767C104.998 27.0645 98.8576 21.0001 98.8893 13.469C98.9185 5.90861 105.156 -0.111931 112.49 0.00258343Z" fill="#F47522"/>
<path d="M96.7183 30.992C96.7183 30.1466 96.7183 29.3035 96.7183 28.4142C98.3775 28.4142 99.9808 28.4142 101.618 28.4142C101.618 33.794 101.618 39.1567 101.618 44.5534C100.008 44.5534 98.419 44.5534 96.7548 44.5534C96.7548 43.6934 96.7548 42.8309 96.7548 41.8416C96.5989 41.9805 96.5356 42.0146 96.5039 42.0682C95.215 44.2708 93.2049 44.9871 90.7928 44.7508C87.986 44.4779 86.1269 42.882 85.1767 40.3042C84.1168 37.4268 84.1704 34.5273 85.5666 31.7571C87.0211 28.8723 90.2007 27.5249 93.317 28.3801C94.6108 28.7358 95.6195 29.4863 96.3455 30.6119C96.4332 30.7484 96.5258 30.8848 96.6135 31.0213C96.6501 31.0115 96.6842 31.0018 96.7183 30.992ZM93.0782 40.4407C94.6887 40.4602 96.0385 39.566 96.4576 38.0115C96.6696 37.227 96.7134 36.3523 96.6135 35.5434C96.4405 34.1253 95.6438 33.0801 94.2234 32.6756C92.8175 32.276 91.4945 32.488 90.4882 33.6332C89.443 34.8222 89.4089 36.2694 89.7037 37.7191C90.0521 39.4295 91.3337 40.4187 93.0782 40.4407Z" fill="#1A345F"/>
<path d="M12.2555 31.1576C12.2555 30.1635 12.2555 29.3156 12.2555 28.419C13.8977 28.419 15.4961 28.419 17.1285 28.419C17.1285 33.7963 17.1285 39.1565 17.1285 44.5533C15.5204 44.5533 13.9343 44.5533 12.2823 44.5533C12.2823 43.6859 12.2823 42.8234 12.2823 41.8147C12.124 41.9877 12.0533 42.0413 12.0095 42.1144C10.7303 44.2585 8.74946 44.9919 6.39095 44.758C3.19185 44.4388 1.04775 42.3995 0.297318 38.9884C-0.20216 36.7225 -0.102264 34.4614 0.826034 32.2954C2.38781 28.6529 6.60048 27.0619 9.96038 28.8283C10.7888 29.262 11.1323 29.6055 12.2555 31.1576ZM5.08743 36.5178C5.0923 36.6129 5.10205 36.7688 5.1118 36.9247C5.23606 39.2516 6.83926 40.6379 9.1466 40.4138C10.8911 40.2456 12.102 38.8154 12.2507 36.7493C12.4456 34.0497 10.6061 32.2272 8.01364 32.5537C6.23014 32.7803 5.0923 34.2982 5.08743 36.5178Z" fill="#1A345F"/>
<path d="M45.5914 37.3585C45.4355 38.9812 46.2566 40.2749 47.6454 40.6867C49.1828 41.1423 50.5448 40.5771 51.3001 39.1956C51.3781 39.0543 51.5632 38.8764 51.7021 38.874C53.3346 38.852 54.967 38.8593 56.6628 38.8593C56.4094 40.2408 55.8247 41.3762 54.9085 42.3338C53.0373 44.2878 50.691 44.9457 48.0596 44.7629C46.1567 44.6314 44.4463 44.0076 43.0599 42.6578C41.3032 40.9498 40.66 38.8009 40.6673 36.4131C40.6697 34.8757 40.9426 33.3943 41.6979 32.0348C43.1038 29.5081 45.3697 28.3557 48.157 28.1705C50.7007 28 53.0446 28.575 54.8793 30.4876C56.6189 32.3003 57.0941 34.5273 56.8821 36.9589C56.8431 37.3926 56.558 37.356 56.2583 37.356C52.9301 37.3536 49.5994 37.3536 46.2712 37.3536C46.0373 37.3585 45.8107 37.3585 45.5914 37.3585ZM51.8629 35.2412C51.9896 33.3724 50.8104 32.1152 48.9294 32.0762C46.9851 32.0348 45.533 33.4089 45.6012 35.2412C47.6892 35.2412 49.7773 35.2412 51.8629 35.2412Z" fill="#1A345F"/>
<path d="M38.5135 40.3213C38.5135 41.7686 38.5135 43.1403 38.5135 44.573C36.8347 44.5657 35.1682 44.7484 33.5479 44.1685C31.5598 43.4571 30.5291 41.9806 30.4024 39.951C30.266 37.7606 30.3074 35.558 30.2709 33.3603C30.266 33.1118 30.2709 32.8608 30.2709 32.5295C29.6861 32.5295 29.1477 32.51 28.6116 32.5368C28.2169 32.5563 28.0585 32.4393 28.0683 32.0154C28.0927 30.8312 28.078 29.6471 28.078 28.3899C28.8114 28.3899 29.5009 28.3899 30.2611 28.3899C30.2611 27.0279 30.2611 25.7366 30.2611 24.4087C31.9569 24.4087 33.5796 24.4087 35.2535 24.4087C35.2535 25.7195 35.2535 26.9987 35.2535 28.3533C36.3596 28.3533 37.4171 28.3533 38.5037 28.3533C38.5037 29.7665 38.5037 31.1017 38.5037 32.5149C37.4487 32.5149 36.3889 32.5149 35.2632 32.5149C35.2632 32.8949 35.2632 33.2019 35.2632 33.5065C35.2632 35.2193 35.2583 36.9322 35.2656 38.645C35.2705 39.8316 35.692 40.2726 36.8664 40.3165C37.4024 40.3384 37.9433 40.3213 38.5135 40.3213Z" fill="#1A345F"/>
<path d="M25.7705 44.5703C24.0748 44.5703 22.4813 44.5703 20.8391 44.5703C20.8391 37.4094 20.8391 30.2608 20.8391 23.0708C21.0097 23.0586 21.1802 23.0367 21.3483 23.0367C22.6129 23.0342 23.8798 23.0537 25.1444 23.0245C25.6122 23.0147 25.8509 23.1293 25.7705 23.6336C25.7608 23.6896 25.7705 23.7506 25.7705 23.809C25.7705 30.4825 25.7705 37.1561 25.7705 43.832C25.7705 44.061 25.7705 44.2901 25.7705 44.5703Z" fill="#1A345F"/>
<path d="M64.6861 44.5727C62.9952 44.5727 61.4017 44.5727 59.7571 44.5727C59.7571 39.1856 59.7571 33.8108 59.7571 28.4042C61.3822 28.4042 62.9903 28.4042 64.6788 28.4042C64.6788 29.3106 64.6788 30.2121 64.6788 31.0722C65.5145 30.3729 66.2771 29.6371 67.1372 29.0402C68.0265 28.4237 69.0693 28.1825 70.2047 28.1996C70.2047 29.9636 70.2047 31.6862 70.2047 33.4307C69.3276 33.4892 68.4529 33.4892 67.5952 33.6134C65.646 33.8985 64.6958 35.0241 64.6885 36.9928C64.6788 39.2904 64.6861 41.5856 64.6861 43.8832C64.6861 44.0927 64.6861 44.3023 64.6861 44.5727Z" fill="#1A345F"/>
<path d="M72.5706 44.5533C72.5706 39.1614 72.5706 33.8036 72.5706 28.4092C74.2054 28.4092 75.8086 28.4092 77.4801 28.4092C77.4801 29.3351 77.4801 30.2366 77.4801 31.1381C78.9493 29.3862 80.6645 28.2338 83.0352 28.1851C83.0352 29.9539 83.0352 31.6765 83.0352 33.4893C82.8354 33.4893 82.6308 33.482 82.4261 33.4917C81.7853 33.5209 81.1396 33.5039 80.5086 33.5989C78.4327 33.9157 77.4995 35.0243 77.4922 37.1342C77.4849 39.3709 77.4898 41.6076 77.4898 43.8443C77.4898 44.0709 77.4898 44.2999 77.4898 44.5533C75.8111 44.5533 74.2079 44.5533 72.5706 44.5533Z" fill="#1A345F"/>
<path d="M2.10264 61.0754C2.10264 61.9086 2.10264 62.681 2.10264 63.4996C1.85899 63.4996 1.66164 63.4996 1.42773 63.4996C1.42773 59.2748 1.42773 55.0646 1.42773 50.808C1.63483 50.7983 1.82244 50.7885 2.09777 50.7764C2.09777 52.7377 2.09777 54.6625 2.09777 56.5874C2.13919 56.5947 2.18061 56.5995 2.21959 56.6069C2.26588 56.5313 2.31705 56.4607 2.35603 56.3827C3.31113 54.5432 5.05565 53.7148 7.13884 54.1168C9.04172 54.4847 10.4037 55.9758 10.5986 57.942C10.7058 59.0141 10.6912 60.0837 10.2429 61.0948C9.49491 62.7809 8.16459 63.6093 6.34454 63.6605C4.57323 63.7116 3.21367 63.0197 2.39258 61.3994C2.34872 61.3141 2.30243 61.2313 2.2537 61.1484C2.24883 61.1338 2.22203 61.1314 2.10264 61.0754ZM6.13501 54.7259C3.79599 54.6893 2.18792 56.3194 2.12213 58.7924C2.06122 61.1752 3.67904 62.949 5.94984 62.9856C8.33515 63.0245 9.85307 61.4676 9.91398 58.9166C9.97733 56.4558 8.44966 54.7624 6.13501 54.7259Z" fill="#1A345F"/>
<path d="M30.2148 56.9212C29.7519 57.0406 29.535 56.9724 29.401 56.468C28.9527 54.799 26.7526 54.051 25.3102 55.0305C24.1894 55.7931 24.2698 57.4134 25.4978 57.9884C26.124 58.2808 26.8257 58.4123 27.4933 58.6121C27.8465 58.7169 28.212 58.7875 28.5604 58.9045C29.8298 59.3309 30.378 60.0886 30.3269 61.319C30.2806 62.4349 29.5764 63.3145 28.3777 63.5533C26.9426 63.8408 25.5514 63.6873 24.5232 62.5056C24.1236 62.0451 23.9116 61.4214 23.5583 60.7708C23.9799 60.7708 24.204 60.7708 24.4233 60.7708C25.0202 62.6323 26.4992 63.4802 28.2413 62.9734C29.0429 62.7395 29.5326 62.145 29.5862 61.3361C29.6422 60.476 29.2987 59.8693 28.4727 59.555C27.8222 59.3089 27.1327 59.1652 26.4626 58.9703C26.0533 58.8509 25.6342 58.751 25.2395 58.5926C24.4964 58.2905 23.9457 57.791 23.8459 56.9456C23.7362 56.0197 23.9604 55.2084 24.7473 54.6212C26.8037 53.0886 29.8688 54.3653 30.2148 56.9212Z" fill="#1A345F"/>
<path d="M20.4932 50.7983C20.7441 50.7983 20.9537 50.7983 21.2022 50.7983C21.2022 55.0329 21.2022 59.2456 21.2022 63.5046C20.9756 63.5046 20.7539 63.5046 20.4932 63.5046C20.4932 59.2919 20.4932 55.0792 20.4932 50.7983Z" fill="#1A345F"/>
<path d="M16.8604 50.813C17.0894 50.813 17.277 50.813 17.5011 50.813C17.5011 55.0573 17.5011 59.27 17.5011 63.5143C17.277 63.5143 17.0894 63.5143 16.8604 63.5143C16.8604 59.2919 16.8604 55.0793 16.8604 50.813Z" fill="#1A345F"/>
<path d="M13.8416 63.5187C13.6102 63.5187 13.4031 63.5187 13.157 63.5187C13.157 60.4074 13.157 57.3252 13.157 54.2041C13.3836 54.2041 13.5882 54.2041 13.8416 54.2041C13.8416 57.2984 13.8416 60.3952 13.8416 63.5187Z" fill="#1A345F"/>
<path d="M14.1485 51.3095C14.1339 51.714 13.9268 51.9479 13.5053 51.9503C13.0862 51.9528 12.8547 51.7262 12.8547 51.3095C12.8547 50.9221 13.0765 50.7029 13.4639 50.6882C13.8805 50.6736 14.1168 50.8758 14.1485 51.3095Z" fill="#1A345F"/>
</g>
<defs>
<clipPath id="clip0_4188_2137">
<rect width="126" height="63.6773" fill="white"/>
</clipPath>
</defs>
</svg>
