<?xml version="1.0" encoding="utf-8"?>
<!-- Generator: Adobe Illustrator 25.1.0, SVG Export Plug-In . SVG Version: 6.00 Build 0)  -->
<svg version="1.1" id="Layer_1" xmlns="http://www.w3.org/2000/svg" xmlns:xlink="http://www.w3.org/1999/xlink" x="0px" y="0px"
	 viewBox="0 0 180 180" style="enable-background:new 0 0 180 180;" xml:space="preserve">
<style type="text/css">
	.st0{fill:#06B3D6;}
</style>
<g>
	<path class="st0" d="M108,103.5h18v-45c0-9.94-8.06-18-18-18h0V103.5z"/>
	<path class="st0" d="M54,103.5h18v-63h0c-9.94,0-18,8.06-18,18V103.5z"/>
	<path class="st0" d="M38.34,67.57C16.61,66.2-1.3,84.11,0.07,105.84c1.13,17.92,15.67,32.46,33.59,33.59
		c21.73,1.37,39.64-16.54,38.26-38.26C70.79,83.24,56.26,68.71,38.34,67.57z M37.84,121.41c-11.38,1.13-20.87-8.36-19.75-19.75
		c0.83-8.42,7.65-15.24,16.07-16.07c11.38-1.13,20.87,8.36,19.75,19.75C53.07,113.76,46.26,120.57,37.84,121.41z"/>
	<circle class="st0" cx="90" cy="49.5" r="9"/>
	<path class="st0" d="M146.34,67.57c-21.73-1.37-39.64,16.54-38.26,38.26c1.13,17.92,15.67,32.46,33.59,33.59
		c21.73,1.37,39.64-16.54,38.26-38.26C178.79,83.24,164.26,68.71,146.34,67.57z M145.84,121.41c-11.38,1.13-20.87-8.36-19.75-19.75
		c0.83-8.42,7.65-15.24,16.07-16.07c11.38-1.13,20.87,8.36,19.75,19.75C161.07,113.76,154.26,120.57,145.84,121.41z"/>
	<path class="st0" d="M99,139.5L99,139.5l0-54c0-9.94-8.06-18-18-18h0v54C81,131.44,89.06,139.5,99,139.5z"/>
</g>
</svg>
